<svg width="374.052734" height="451.494629" viewBox="0 0 374.053 451.495" fill="none" xmlns="http://www.w3.org/2000/svg" xmlns:xlink="http://www.w3.org/1999/xlink">
	<desc>
			Created with Pixso.
	</desc>
	<defs/>
	<path id="Vector" d="M62.5842 20.396L362.292 33.9751C368.686 34.2651 373.354 39.7188 372.668 46.0952L330.394 438.759C329.707 445.135 323.913 450.117 317.518 449.827L17.813 436.248C11.4185 435.958 6.74829 430.502 7.43481 424.126L49.7109 31.4624C50.3955 25.0854 56.1897 20.106 62.5842 20.396Z" fill="#406FBF" fill-opacity="1.000000" fill-rule="nonzero"/>
	<path id="Vector" d="M317.518 449.827L310.634 449.515C317.029 449.805 322.821 444.823 323.51 438.447L365.784 45.7832C366.47 39.4067 361.8 33.9531 355.406 33.6636L258.437 29.2695L362.292 33.9756C368.448 34.2544 373.006 39.3218 372.723 45.3901C372.711 45.623 372.693 45.8594 372.668 46.0952L359.651 167L330.394 438.759C329.707 445.135 323.913 450.117 317.518 449.827Z" fill="#2251AA" fill-opacity="1.000000" fill-rule="nonzero"/>
	<path id="Vector" d="M55.6985 20.084L355.406 33.6631C361.8 33.9531 366.47 39.4067 365.784 45.7832L323.51 438.447C322.821 444.823 317.029 449.805 310.634 449.515L10.9292 435.936C4.53467 435.646 -0.135498 430.19 0.549072 423.814L42.8252 31.1504C43.5117 24.7739 49.3059 19.7939 55.6985 20.084Z" fill="#406FBF" fill-opacity="1.000000" fill-rule="nonzero"/>
	<path id="Vector" d="M308.785 431.631L17.2312 414.916L17.6465 411.065L304.302 424.053C327.1 277.252 335.799 197.125 344.675 51.0991L349.73 51.3281L308.785 431.631Z" fill="#2251AA" fill-opacity="1.000000" fill-rule="nonzero"/>
	<path id="Vector" d="M8.88379 410.67L304.302 424.055C327.339 275.706 335.981 195.443 344.957 46.4565L49.5361 33.0713C40.5623 182.058 31.9207 262.32 8.88379 410.67Z" fill="#FFFFFF" fill-opacity="1.000000" fill-rule="nonzero"/>
	<path id="Vector" d="M304.977 148.562L254.111 146.257C253.075 146.21 252.104 145.737 251.428 144.95C251.094 144.56 250.842 144.106 250.69 143.616C250.537 143.125 250.487 142.609 250.542 142.099L256.004 91.3774C256.218 89.4028 257.93 87.9336 259.912 88.0234L310.78 90.3281C311.815 90.375 312.786 90.8477 313.462 91.6353C314.138 92.4229 314.458 93.4551 314.347 94.4863L308.886 145.209C308.672 147.184 306.961 148.651 304.977 148.562ZM263.103 95.6953L258.446 138.926L301.788 140.89L306.442 97.6592L263.103 95.6953ZM296.659 225.825L245.793 223.521C244.757 223.474 243.786 222.999 243.111 222.211C242.435 221.424 242.115 220.394 242.226 219.361L247.685 168.637C247.9 166.663 249.61 165.193 251.594 165.283L302.46 167.588C303.496 167.635 304.467 168.109 305.142 168.897C305.82 169.685 306.14 170.717 306.029 171.748L300.566 222.471C300.353 224.446 298.643 225.915 296.659 225.825ZM254.783 172.955L250.13 216.189L293.468 218.153L298.125 174.919L254.783 172.955ZM288.341 303.085L237.475 300.78C236.438 300.733 235.469 300.261 234.793 299.473C234.458 299.084 234.207 298.63 234.054 298.14C233.902 297.649 233.851 297.133 233.906 296.623L239.369 245.897C239.583 243.923 241.292 242.455 243.276 242.545L294.141 244.85C295.178 244.897 296.149 245.37 296.823 246.157C297.5 246.944 297.82 247.977 297.71 249.008L292.25 299.733C292.035 301.706 290.325 303.175 288.341 303.085ZM246.467 250.217L241.811 293.449L285.152 295.413L289.805 252.181L246.467 250.217ZM280.023 380.347L229.157 378.042C228.122 377.995 227.151 377.521 226.475 376.733C225.8 375.946 225.478 374.914 225.59 373.882L231.049 323.159C231.263 321.185 232.975 319.715 234.959 319.805L285.825 322.11C286.861 322.157 287.831 322.631 288.507 323.419C289.183 324.207 289.504 325.237 289.392 326.27L283.931 376.993C283.718 378.968 282.006 380.437 280.023 380.347ZM238.148 327.477L233.493 370.711L276.833 372.675L281.489 329.441L238.148 327.477ZM211.375 108.407L96.1772 103.187C92.6807 103.029 90.1255 100.045 90.5005 96.5586C90.8774 93.0723 94.0449 90.3481 97.5415 90.5068L212.742 95.7266C216.238 95.8848 218.793 98.8677 218.417 102.354C218.042 105.841 214.874 108.565 211.375 108.407ZM208.584 134.355L115.29 130.128C111.792 129.97 109.238 126.989 109.613 123.5C109.99 120.013 113.158 117.29 116.654 117.448L209.948 121.675C213.445 121.833 216 124.816 215.623 128.303C215.248 131.792 212.081 134.514 208.584 134.355ZM200.264 211.615L85.0662 206.396C81.5693 206.237 79.0142 203.256 79.3892 199.768C79.7644 196.281 82.9336 193.559 86.4304 193.717L201.63 198.937C205.127 199.095 207.68 202.077 207.305 205.563C206.93 209.052 203.763 211.774 200.264 211.615ZM203.058 185.667L109.764 181.439C106.268 181.281 103.714 178.298 104.089 174.812C104.466 171.325 107.634 168.601 111.13 168.759L204.424 172.986C207.921 173.145 210.474 176.128 210.099 179.615C209.724 183.102 206.556 185.825 203.058 185.667ZM194.74 262.929L79.542 257.709C76.0435 257.55 73.49 254.567 73.865 251.081C74.2402 247.594 77.4097 244.868 80.9062 245.027L196.106 250.247C199.603 250.405 202.156 253.39 201.781 256.876C201.406 260.363 198.239 263.087 194.74 262.929ZM191.947 288.877L145.595 286.777C142.098 286.619 139.545 283.636 139.92 280.149C140.295 276.662 143.462 273.938 146.961 274.097L193.313 276.197C196.809 276.355 199.363 279.338 198.988 282.825C198.613 286.312 195.443 289.036 191.947 288.877ZM123.098 285.758L98.6528 284.65C95.1562 284.492 92.6028 281.509 92.9778 278.022C93.353 274.535 96.5205 271.812 100.019 271.97L124.465 273.078C127.961 273.236 130.515 276.219 130.14 279.706C129.765 283.192 126.597 285.917 123.098 285.758ZM186.423 340.188L71.2224 334.969C67.7258 334.811 65.1724 331.828 65.5474 328.341C65.9224 324.854 69.0918 322.13 72.5886 322.289L187.787 327.508C191.285 327.667 193.839 330.649 193.462 334.136C193.087 337.623 189.919 340.347 186.423 340.188ZM183.629 366.137L90.3352 361.91C86.8386 361.752 84.2832 358.771 84.6602 355.284C85.0354 351.795 88.2029 349.073 91.7012 349.232L184.993 353.458C188.49 353.617 191.045 356.598 190.67 360.087C190.295 363.574 187.126 366.296 183.629 366.137Z" fill="#B8D2EF" fill-opacity="1.000000" fill-rule="nonzero"/>
	<path id="Vector" d="M277.627 133.374C276.897 133.341 276.169 133.094 275.541 132.623L256.55 118.345C254.89 117.097 254.555 114.742 255.805 113.082C257.049 111.422 259.401 111.085 261.068 112.337L277.294 124.534C283.739 117.438 302.088 98.2329 316.888 92.4209C318.812 91.6636 321.001 92.6128 321.762 94.5479C322.521 96.479 321.568 98.6631 319.635 99.4219C303.477 105.763 280.873 131.81 280.646 132.073C279.866 132.978 278.744 133.424 277.627 133.374ZM265.054 208.935C264.113 208.892 263.19 208.498 262.495 207.764L246.179 190.545C244.752 189.038 244.814 186.659 246.322 185.231C247.831 183.804 250.21 183.87 251.636 185.374L265.527 200.033C272.999 193.935 293.926 177.727 309.297 174.263C311.322 173.804 313.334 175.079 313.79 177.104C314.247 179.129 312.976 181.14 310.949 181.597C294.139 185.384 267.938 207.803 267.676 208.03C266.949 208.655 266.011 208.979 265.054 208.935Z" fill="#406FBF" fill-opacity="1.000000" fill-rule="nonzero"/>
	<path id="Vector" d="M257.249 42.4824L256.041 42.4277C256.075 42.2744 256.105 42.1226 256.134 41.9688L257.985 31.7671L257.528 40.5254C257.492 41.1968 257.398 41.8491 257.249 42.4824Z" fill="#2251AA" fill-opacity="1.000000" fill-rule="nonzero"/>
	<path id="Vector" d="M249.454 50.647C252.678 49.022 255.234 45.9912 256.041 42.4272L257.249 42.4824C256.323 46.4346 253.287 49.5513 249.454 50.647Z" fill="#8C8F8F" fill-opacity="1.000000" fill-rule="nonzero"/>
	<path id="Vector" d="M158.329 6.27979L251.275 10.4907C257.04 10.752 260.907 15.6548 259.868 21.3862L256.134 41.9683C255.094 47.6992 249.525 52.1748 243.759 51.9136L150.814 47.7021C145.048 47.4409 141.182 42.5381 142.221 36.8071L145.955 16.2251C146.995 10.4937 152.564 6.01855 158.329 6.27979Z" fill="#406FBF" fill-opacity="1.000000" fill-rule="nonzero"/>
	<path id="Vector" d="M243.759 51.9136L150.814 47.7021C145.521 47.4624 141.83 43.3115 142.063 38.1987C142.084 37.7417 142.136 37.2773 142.221 36.8071L145.955 16.2251C146.996 10.4937 152.564 6.01855 158.329 6.27979L251.275 10.4907C256.566 10.7305 260.26 14.8813 260.026 19.9946C260.006 20.4512 259.954 20.916 259.868 21.3862L256.134 41.9683C255.094 47.6992 249.525 52.1748 243.759 51.9136ZM206.885 12.8716C205.329 12.8013 204.012 14.0054 203.942 15.5601C203.871 17.1162 205.074 18.4331 206.63 18.5034L248.408 20.3965C249.964 20.4668 251.281 19.2642 251.351 17.708C251.422 16.1538 250.219 14.835 248.663 14.7646L206.885 12.8716ZM188.474 12.0376C186.917 11.9668 185.601 13.1714 185.53 14.7256C185.46 16.2822 186.662 17.5986 188.219 17.6694L192.627 17.8691C194.181 17.9395 195.498 16.7368 195.569 15.1807C195.639 13.626 194.437 12.3076 192.882 12.2373L188.474 12.0376Z" fill="#A4C3E9" fill-opacity="1.000000" fill-rule="nonzero"/>
	<path id="Vector" d="M248.408 20.396L206.63 18.5034C205.074 18.4326 203.871 17.1162 203.942 15.5601C204.012 14.0054 205.329 12.8013 206.885 12.8716L248.663 14.7646C250.219 14.835 251.422 16.1533 251.352 17.708C251.281 19.2642 249.964 20.4668 248.408 20.396ZM192.627 17.8687L188.219 17.6689C186.662 17.5986 185.46 16.2817 185.531 14.7256C185.601 13.1714 186.917 11.9668 188.474 12.0371L192.883 12.2373C194.437 12.3076 195.639 13.626 195.569 15.1807C195.499 16.7368 194.182 17.9395 192.627 17.8687Z" fill="#CFE0F5" fill-opacity="1.000000" fill-rule="nonzero"/>
</svg>
