<svg width="329.000000" height="245.000000" viewBox="0 0 329 245" fill="none" xmlns="http://www.w3.org/2000/svg" xmlns:xlink="http://www.w3.org/1999/xlink">
	<desc>
			Created with Pixso.
	</desc>
	<defs>
		<clipPath id="clip337_122">
			<rect id="Logo_alphatrade" width="329.000000" height="245.000000" fill="white" fill-opacity="0"/>
		</clipPath>
	</defs>
	<rect id="Logo_alphatrade" width="329.000000" height="245.000000" fill="#FFFFFF" fill-opacity="0"/>
	<g clip-path="url(#clip337_122)">
		<path id="Vector" d="M38.5073 185.652L44.1575 185.652L55.4006 215.125L49.6218 215.125L47.333 209.057L35.4033 209.057L33.0288 215.125L27.2498 215.125L38.5073 185.652ZM41.3682 193.478L37.4487 203.595L45.2732 203.595L41.3682 193.478Z" fill="#FFFFFF" fill-opacity="1.000000" fill-rule="nonzero"/>
		<path id="Vector" d="M78.6453 215.125L70.5491 193.463L62.3098 215.125L56.4021 215.125L67.6882 185.652L73.3384 185.652L84.5815 215.125L78.6453 215.125Z" fill="#FFFFFF" fill-opacity="1.000000" fill-rule="nonzero"/>
		<path id="Vector" d="M87.9431 215.125L87.9431 185.652L93.5076 185.652L93.5076 196.764L94.7234 196.764C97.0408 196.764 98.9717 197.038 100.517 197.571C102.062 198.119 103.392 199.142 104.522 200.655C105.652 202.168 106.21 203.999 106.21 206.131C106.21 208.149 105.723 209.864 104.765 211.262C103.792 212.66 102.677 213.654 101.389 214.231C100.116 214.807 98.3567 215.096 96.1252 215.096L87.9431 215.096L87.9431 215.125ZM93.5076 201.779L93.5076 209.778L94.895 209.778C97.198 209.778 98.7429 209.489 99.5295 208.913C100.316 208.336 100.703 207.356 100.703 205.973C100.703 203.177 98.6858 201.793 94.6519 201.793L93.5076 201.793L93.5076 201.779Z" fill="#FFFFFF" fill-opacity="1.000000" fill-rule="nonzero"/>
		<path id="Vector" d="M125.721 185.652L125.721 189.457L126.951 189.457C133.975 189.457 137.493 192.368 137.493 198.205C137.493 199.862 137.222 201.26 136.664 202.428C136.12 203.581 135.305 204.532 134.232 205.295C133.159 206.045 132.058 206.549 130.928 206.78C129.798 207.011 128.053 207.126 125.707 207.126L125.707 215.125L120.099 215.125L120.099 207.126C117.653 207.126 115.636 206.881 114.063 206.391C112.49 205.901 111.202 204.964 110.201 203.581C109.199 202.197 108.685 200.468 108.685 198.378C108.685 196.418 109.085 194.761 109.9 193.406C110.701 192.051 111.846 191.057 113.333 190.423C114.807 189.789 117.067 189.457 120.099 189.457L120.099 185.652L125.721 185.652ZM120.114 194.631L118.826 194.631C116.881 194.631 115.579 194.948 114.936 195.582C114.292 196.216 113.963 197.139 113.963 198.349C113.963 199.776 114.363 200.771 115.15 201.318C115.937 201.866 117.095 202.139 118.626 202.139L120.142 202.139L120.142 194.631L120.114 194.631ZM125.721 194.631L125.721 202.139L127.552 202.139C129.44 202.139 130.685 201.779 131.285 201.073C131.901 200.367 132.201 199.444 132.201 198.306C132.201 197.139 131.872 196.245 131.242 195.597C130.599 194.948 129.297 194.631 127.352 194.631L125.721 194.631Z" fill="#FFFFFF" fill-opacity="1.000000" fill-rule="nonzero"/>
		<path id="Vector" d="M150.696 185.652L156.346 185.652L167.59 215.125L161.811 215.125L159.522 209.057L147.592 209.057L145.218 215.125L139.439 215.125L150.696 185.652ZM153.557 193.478L149.638 203.595L157.462 203.595L153.557 193.478Z" fill="#FFFFFF" fill-opacity="1.000000" fill-rule="nonzero"/>
		<path id="Vector" d="M180.406 185.652L196.57 185.652L196.57 191.187L191.235 191.187L191.235 215.125L185.584 215.125L185.584 191.187L180.392 191.187L180.392 185.652L180.406 185.652Z" fill="#FFFFFF" fill-opacity="1.000000" fill-rule="nonzero"/>
		<path id="Vector" d="M200.375 185.652L206.283 185.652C209.473 185.652 211.776 185.955 213.192 186.546C214.608 187.137 215.724 188.103 216.525 189.428C217.34 190.754 217.755 192.354 217.755 194.199C217.755 196.259 217.226 197.96 216.153 199.329C215.08 200.698 213.635 201.635 211.804 202.168C210.732 202.471 208.772 202.629 205.94 202.629L205.94 215.11L200.375 215.11L200.375 185.652ZM205.94 197.182L207.713 197.182C209.101 197.182 210.073 197.081 210.617 196.879C211.161 196.677 211.59 196.346 211.905 195.885C212.219 195.423 212.377 194.861 212.377 194.213C212.377 193.074 211.933 192.238 211.061 191.72C210.431 191.331 209.244 191.143 207.527 191.143L205.954 191.143L205.954 197.182L205.94 197.182Z" fill="#FFFFFF" fill-opacity="1.000000" fill-rule="nonzero"/>
		<path id="Vector" d="M223.219 185.652L239.183 185.652L239.183 191.143L228.741 191.143L228.741 196.476L239.183 196.476L239.183 201.866L228.741 201.866L228.741 209.619L239.183 209.619L239.183 215.125L223.219 215.125L223.219 185.652Z" fill="#FFFFFF" fill-opacity="1.000000" fill-rule="nonzero"/>
		<path id="Vector" d="M265.66 185.652L265.66 215.125L260.096 215.125L260.096 196.677L249.182 215.125L244.347 215.125L244.347 185.652L249.911 185.652L249.911 204.705L260.969 185.652L265.66 185.652ZM247.051 177.74L251.442 177.74C251.785 178.288 252.271 178.706 252.887 178.979C253.502 179.253 254.26 179.397 255.147 179.397C256.048 179.397 256.863 179.239 257.593 178.922C258.065 178.706 258.494 178.317 258.852 177.754L263.243 177.754C262.986 179.455 262.184 180.81 260.825 181.848C259.467 182.871 257.564 183.39 255.132 183.39C253.487 183.39 252.114 183.159 251.013 182.698C249.911 182.237 249.01 181.574 248.338 180.724C247.651 179.859 247.222 178.864 247.051 177.74Z" fill="#FFFFFF" fill-opacity="1.000000" fill-rule="nonzero"/>
		<path id="Vector" d="M281.853 185.652L287.474 185.652L296.887 209.85L300.148 209.85L300.148 219.52L294.755 219.52L294.755 215.11L274.629 215.11L274.629 219.52L269.236 219.52L269.236 209.85L272.469 209.85L281.853 185.652ZM284.714 193.478L278.305 209.864L291.093 209.864L284.714 193.478Z" fill="#FFFFFF" fill-opacity="1.000000" fill-rule="nonzero"/>
		<path id="Vector" d="M123.26 107.642C125.306 111.201 127.366 111.115 129.841 109.472C141.642 101.675 153.471 94.1235 165.33 86.8452C167.032 85.8076 169.12 85.894 170.837 86.9175C174.341 88.9927 177.832 91.1113 181.322 93.2588L181.322 50.4556L172.568 50.4556L172.568 30.3945L115.15 30.3945L115.15 50.4702L106.396 50.4702L106.396 100.249L96.4971 100.249L96.4971 118.551L96.9692 118.551C103.049 114.242 109.114 109.918 115.178 105.566C118.297 103.318 120.8 103.347 123.26 107.642ZM174.499 56.9985L174.499 67.332L164.171 67.332L164.171 56.9985L174.499 56.9985ZM159.136 35.2515L167.504 35.2515L167.504 44.936L159.136 44.936L159.136 35.2515ZM157.419 67.332L147.092 67.332L147.092 56.9985L157.419 56.9985L157.419 67.332ZM146.076 35.2515L154.444 35.2515L154.444 44.936L146.076 44.936L146.076 35.2515ZM132.573 35.2515L140.941 35.2515L140.941 44.936L132.573 44.936L132.573 35.2515ZM129.511 67.332L129.511 56.9985L139.839 56.9985L139.839 67.332L129.511 67.332ZM119.57 35.2515L127.938 35.2515L127.938 44.936L119.57 44.936L119.57 35.2515ZM112.432 67.332L112.432 56.9985L122.76 56.9985L122.76 67.332L112.432 67.332Z" fill="#595959" fill-opacity="1.000000" fill-rule="nonzero"/>
		<path id="Vector" d="M213.836 108.751C217.755 104.716 221.274 104.99 225.394 108.002C228.712 110.438 232.031 112.83 235.349 115.236L235.349 100.248L226.853 100.248L219.886 25.48L192.694 25.48L186.1 96.1841C193.423 100.695 200.761 105.22 208.114 109.529C209.874 110.553 212.234 110.409 213.836 108.751ZM219.629 100.248L219.243 100.248L208.572 84.1646L217.498 70.6895L219.629 100.248ZM196.299 65.6313L206.283 53.3091L216.268 65.6313L206.283 80.6914L196.299 65.6313ZM216.782 60.6016L208.572 50.4702L215.452 41.9814L216.782 60.6016ZM197.7 37.0815L214.851 37.0815L206.269 47.6597L197.7 37.0815ZM197.114 41.9961L203.994 50.4844L195.784 60.6157L197.114 41.9961ZM192.937 100.248L195.054 70.6895L203.98 84.1646L193.309 100.248L192.937 100.248ZM197.915 100.248L206.283 87.6235L214.651 100.248L197.915 100.248Z" fill="#595959" fill-opacity="1.000000" fill-rule="nonzero"/>
		<path id="Vector" d="M122.86 135.269C132.172 144.291 141.499 153.327 150.811 162.349C150.753 162.694 150.711 163.041 150.653 163.386C138.595 157.16 126.536 150.92 114.478 144.694C114.406 145.055 114.32 145.429 114.249 145.79C116.395 149.349 118.526 152.895 120.671 156.454C120.6 156.786 120.514 157.117 120.443 157.463C113.519 153.269 106.582 149.075 98.8286 144.377C100.116 147.591 100.803 149.32 101.904 152.102C80.6765 158.169 59.9353 164.107 39.1797 170.03C39.1223 169.626 39.0508 169.223 38.9937 168.805C39.666 168.171 40.3096 167.407 41.0105 166.917C65.7427 149.508 90.4893 132.257 115.179 114.545C118.297 112.311 120.814 112.325 123.275 116.62C125.32 120.18 127.38 120.093 129.855 118.45C141.656 110.654 153.486 103.102 165.344 95.8237C167.046 94.7861 169.135 94.8726 170.851 95.896C183.296 103.275 195.655 111.187 208.114 118.494C209.874 119.531 212.234 119.373 213.836 117.73C217.755 113.694 221.274 113.968 225.394 116.98C247.036 132.862 268.779 148.124 290.493 163.617C291.337 164.222 292.152 164.928 292.853 166.585C280.88 159.971 268.922 153.341 256.949 146.726C256.849 147.13 256.749 147.533 256.634 147.937C259.981 152.678 263.329 157.42 266.676 162.161C266.604 162.521 266.533 162.882 266.461 163.256C252.186 152.145 237.896 141.034 222.647 129.187C224.664 133.885 226.052 137.114 227.868 141.322C225.637 140.111 224.078 139.261 222.519 138.411C222.461 138.742 222.404 139.088 222.347 139.419C227.926 145.328 233.519 151.223 239.097 157.131C239.026 157.492 238.969 157.867 238.897 158.227C235.006 155.561 231.13 152.909 227.239 150.214C209.301 137.776 191.292 125.771 173.483 112.585C168.448 108.867 164.171 110.279 158.907 114.487C162.512 118.551 165.644 122.111 168.791 125.656C168.72 126.031 168.663 126.391 168.591 126.766C165.659 126.276 162.726 125.786 159.794 125.311C159.722 125.8 159.651 126.291 159.565 126.78C168.434 135.427 177.302 144.06 186.171 152.707C186.114 153.01 186.071 153.312 186.014 153.629C173.469 147.461 160.924 141.293 148.393 135.11C148.307 135.601 148.222 136.09 148.136 136.581C155.031 142.475 161.925 148.369 168.82 154.249C168.763 154.653 168.691 155.042 168.634 155.445C153.443 148.355 138.237 141.264 123.046 134.174C122.989 134.548 122.932 134.909 122.86 135.269Z" fill="#FFFFFF" fill-opacity="1.000000" fill-rule="nonzero"/>
	</g>
</svg>
