<svg width="330.000122" height="161.294922" viewBox="0 0 330 161.295" fill="none" xmlns="http://www.w3.org/2000/svg" xmlns:xlink="http://www.w3.org/1999/xlink">
	<desc>
			Created with Pixso.
	</desc>
	<defs/>
	<path id="Vector" d="M140.851 63.4648C139.048 62.3066 137.098 61.3623 135.315 60.1641C132.219 58.082 131.489 54.8721 131.27 51.4902C131.104 48.8896 132.959 47.4678 134.784 46.0566C134.94 45.9346 135.096 45.8027 135.253 45.6709C138.099 43.0908 138.787 39.0381 136.942 35.707C135.096 32.376 131.187 30.71 127.455 31.6445C123.639 32.6094 121.147 35.7676 121.126 39.6172C121.106 42.7354 122.617 45.0508 125.161 46.7471C127.236 48.1387 127.997 49.9873 127.736 52.3633C127.277 56.5684 125.589 59.7373 121.283 61.5957C112.755 65.2725 108.314 74.2305 110.295 82.9854C112.286 91.8018 120.188 98.0479 129.394 98.0781C132.646 98.1592 135.722 97.4385 138.558 95.9248C140.674 94.7979 141.425 92.5127 140.518 90.501C139.558 88.3887 137.275 87.4746 134.919 88.2666C134.221 88.501 133.543 88.8359 132.834 89.0488C127.601 90.6436 122.023 88.2871 119.688 83.5234C117.321 78.6787 119.031 72.8389 123.66 69.9551C128.237 67.1113 134.294 67.9844 137.838 72.0059C139.527 73.9258 140.247 76.1904 140.476 78.71C140.716 81.3506 142.853 83.0361 145.261 82.793C147.628 82.5488 149.411 80.5576 149.223 78.0898C148.743 71.9863 146.231 66.9277 140.851 63.4648ZM125.088 39.6074C125.088 37.2197 127.069 35.29 129.519 35.29C131.969 35.29 133.95 37.2197 133.95 39.6074C133.95 41.9941 131.969 43.9238 129.519 43.9238C127.069 43.9238 125.088 41.9941 125.088 39.6074Z" fill="#FFFFFF" fill-opacity="1.000000" fill-rule="nonzero"/>
	<path id="Vector" d="M181.323 95.4541C178.624 95.1152 176.765 96.5947 176.439 99.3486C175.693 105.638 171.134 109.604 164.727 109.521C160.273 109.47 155.924 106.326 154.506 102.134C152.994 97.6436 154.538 92.6387 158.235 89.916C162.206 86.9775 166.365 86.9873 170.767 88.8887C173.141 89.916 175.357 89.0527 176.292 87.0078C177.227 84.9629 176.439 82.6816 174.223 81.6133C168.351 78.7773 162.437 78.5615 156.565 81.624C155.305 82.2812 154.086 83.0215 152.836 83.7197C149.79 85.4258 146.639 85.4561 143.362 84.3574C140.357 83.3496 138.614 81.4795 138.173 78.3154C137.973 76.9072 137.469 75.4375 136.734 74.2051C134.853 71.1016 130.83 69.8682 127.227 71.0811C123.898 72.2012 121.398 75.7461 121.671 78.9414C122.007 82.9082 124.633 85.8057 128.351 86.5459C130.41 86.957 132.238 86.4326 134.129 85.7852C135.252 85.3945 136.534 84.9941 137.658 85.1582C141.481 85.7344 145.862 90.7686 145.956 94.5605C145.988 95.8857 145.735 97.2119 145.62 98.5371C145.578 109.11 154.275 117.598 165.094 117.701C174.433 117.793 183.603 111.083 184.674 100.325C184.926 97.8076 183.603 95.7422 181.323 95.4541ZM129.78 82.8877C127.311 82.8877 125.316 80.9355 125.316 78.5205C125.316 76.1055 127.311 74.1533 129.78 74.1533C132.248 74.1533 134.244 76.1055 134.244 78.5205C134.244 80.9355 132.248 82.8877 129.78 82.8877Z" fill="#FFFFFF" fill-opacity="1.000000" fill-rule="nonzero"/>
	<path id="Vector" d="M211.379 63.8311C209.18 62.4844 206.699 62.8926 205.261 64.8311C203.875 66.709 204.229 69.0254 206.189 70.6787C206.752 71.1592 207.387 71.5566 207.929 72.0469C211.66 75.4346 212.484 81.0176 209.899 85.334C207.366 89.5693 202.051 91.5908 197.247 90.0596C193.172 88.7637 190.597 85.9873 189.826 81.875C189.024 77.5273 190.545 73.9551 194.089 71.1689C195.058 70.4033 196.059 69.4951 196.59 68.4443C197.393 66.8623 196.673 64.9434 195.266 63.8008C193.714 62.5449 191.879 62.3926 189.993 63.6172C183.979 67.5459 180.78 72.9648 181.145 80.1807C181.082 81.5684 181.061 82.9561 180.936 84.3447C180.603 87.916 178.258 90.1514 175.454 92.0596C173.089 93.6719 170.806 92.7539 168.503 91.8867C168.253 91.7949 167.992 91.7227 167.732 91.6514C163.354 90.4883 158.8 92.9678 157.487 97.2236C156.163 101.51 158.508 105.98 162.844 107.45C167.033 108.868 171.765 106.776 173.359 102.704C173.818 101.541 174.058 100.275 174.214 99.04C174.464 97.04 175.611 95.8057 177.351 94.9688C181.468 92.9883 185.261 92.7949 189.305 95.6416C198.039 101.796 210.034 99.7041 216.371 91.2637C223.031 82.416 220.675 69.5459 211.379 63.8311ZM165.626 103.888C163.177 103.888 161.197 101.949 161.197 99.5508C161.197 97.1523 163.177 95.2139 165.626 95.2139C168.076 95.2139 170.056 97.1523 170.056 99.5508C170.056 101.949 168.076 103.888 165.626 103.888Z" fill="#FFFFFF" fill-opacity="1.000000" fill-rule="nonzero"/>
	<path id="Vector" d="M171.75 15.7939C170.017 12.9434 167.287 11.5273 163.727 11.8047C159.685 12.1211 156.891 14.8936 156.272 19.2988C155.967 21.4961 155.064 23.209 152.88 24.2188C148.596 26.209 144.658 26.3867 140.448 23.5361C132.257 17.9922 121.022 19.3877 114.291 26.8916C110.511 31.1094 109.241 36.1182 110.07 41.5137C110.879 46.8105 113.766 50.9883 118.502 53.9678C120.56 55.2549 122.902 54.9375 124.183 53.3242C125.59 51.5625 125.233 49.127 123.353 47.6514C122.671 47.1172 121.957 46.6123 121.327 46.0381C117.399 42.415 116.958 36.4355 120.308 32.2969C123.815 27.9512 130.231 26.7734 135.135 29.5645C140.038 32.3564 141.991 37.999 139.744 42.791C138.715 44.9883 137.004 46.5625 134.956 47.9287C133.161 49.127 132.793 51.334 133.864 53.0967C134.809 54.6504 136.909 55.3535 138.873 54.6611C139.681 54.374 140.458 53.9082 141.151 53.3936C146.528 49.4141 149.069 44.207 148.733 38.2275C148.733 36.7324 148.659 35.7031 148.743 34.6729C149.027 31.1689 151.221 28.8223 154.077 26.8428C156.44 25.1992 158.792 25.5752 161.218 26.585C161.585 26.7432 161.984 26.8623 162.383 26.9414C165.785 27.5752 168.841 26.9414 171.025 24.2881C173.188 21.6748 173.503 18.6953 171.75 15.7939ZM164.693 23.793C162.226 23.793 160.231 21.9121 160.231 19.5859C160.231 17.2598 162.226 15.3789 164.693 15.3789C167.161 15.3789 169.156 17.2598 169.156 19.5859C169.166 21.9023 167.161 23.793 164.693 23.793Z" fill="#FFFFFF" fill-opacity="1.000000" fill-rule="nonzero"/>
	<path id="Vector" d="M208.459 56.1016C215.958 52.8379 221.208 45 219.999 36.1602C218.26 23.4727 204.312 16.0146 192.167 21.376C189.558 22.5312 188.582 24.5576 189.558 26.8291C190.513 29.0391 192.751 29.7451 195.434 28.8037C195.837 28.6602 196.251 28.5381 196.654 28.415C199.284 27.6377 202.116 27.6064 204.704 28.5176C204.874 28.5781 205.044 28.6396 205.203 28.7119C210.474 30.9014 213.073 36.8662 211.217 42.2373C209.435 47.3838 203.517 50.6074 198.054 49.3994C192.899 48.2637 189.696 44.5605 188.932 39.0557C188.794 38.0635 188.413 36.958 187.755 36.2012C186.567 34.8193 184.881 34.7686 183.205 35.3828C181.529 35.9961 180.723 37.2549 180.765 38.9531C180.946 46.3916 184.52 51.8242 191.276 55.3643C192.666 56.0908 194.077 56.8379 195.286 57.7998C199.995 61.5244 200.027 68.2051 195.392 71.8779C193.217 73.5977 192.199 75.7051 192.273 78.4678C192.369 81.8438 193.928 84.1562 197.036 85.5166C200.069 86.8369 202.997 86.5303 205.574 84.5146C208.268 82.417 209.265 79.6748 208.47 76.3389C207.865 73.8125 206.083 72.1953 204.089 70.7529C202.838 69.8428 202.212 68.7373 202.021 67.2539C201.427 62.3838 203.718 58.168 208.459 56.1016ZM204.991 78.4062C204.991 80.8105 202.976 82.7549 200.483 82.7549C197.99 82.7549 195.975 80.8105 195.975 78.4062C195.975 76.002 197.99 74.0576 200.483 74.0576C202.965 74.0479 204.991 76.002 204.991 78.4062Z" fill="#FFFFFF" fill-opacity="1.000000" fill-rule="nonzero"/>
	<path id="Vector" d="M202.457 31.0605C200.06 30.2881 197.789 30.6953 195.559 31.6816C193.944 32.3936 192.267 32.668 190.683 31.7422C185.932 28.9658 183.952 25.8643 184.453 20.9619C185.911 6.42773 170.835 -4.19043 157.081 1.61719C150.204 4.51562 145.203 11.6045 145.297 18.3174C145.328 20.707 147.006 22.5684 149.319 22.7617C151.559 22.9551 153.591 21.2773 153.955 18.9375C154.08 18.1543 154.164 17.3613 154.362 16.5986C155.675 11.4824 160.77 8.03516 166.125 8.61426C171.606 9.21484 175.773 13.7305 175.805 19.1104C175.846 26.8711 167.928 32.0166 160.593 29.0166C159.613 28.6104 158.561 28.1826 157.529 28.1221C155.581 28.0098 153.841 29.4541 153.393 31.2852C152.893 33.3086 153.726 35.2109 155.831 36.2178C161.853 39.1162 167.907 39.2891 173.908 36.0957C175.565 35.2109 177.159 34.1631 178.889 33.4512C184.473 31.1631 190.298 34.1934 191.475 39.8994C191.558 40.2861 191.61 40.6826 191.715 41.0586C192.809 44.9336 196.383 47.334 200.623 47.0596C204.541 46.8047 207.792 43.7236 208.292 39.8076C208.771 36.0342 206.26 32.292 202.457 31.0605ZM200.092 43.5303C197.643 43.5303 195.664 41.5977 195.664 39.208C195.664 36.8174 197.643 34.8848 200.092 34.8848C202.54 34.8848 204.52 36.8174 204.52 39.208C204.52 41.5977 202.54 43.5303 200.092 43.5303Z" fill="#FFFFFF" fill-opacity="1.000000" fill-rule="nonzero"/>
	<path id="Vector" d="M0 161.274L0 139.803L4.03052 139.803L4.03052 161.274L0 161.274Z" fill="#FFFFFF" fill-opacity="1.000000" fill-rule="nonzero"/>
	<path id="Vector" d="M23.6665 149.105L31.6327 139.802L36.0642 139.802L36.0642 161.273L32.002 161.273L32.002 145.53L23.6665 155.226L15.2993 145.53L15.2993 161.273L11.2688 161.273L11.2688 139.802L15.6687 139.802L23.6665 149.105Z" fill="#FFFFFF" fill-opacity="1.000000" fill-rule="nonzero"/>
	<path id="Vector" d="M44.1886 139.833L61.9041 139.833C63.0858 139.833 64.0883 140.245 64.9323 141.059C65.7659 141.873 66.1879 142.852 66.1879 143.985L66.1879 149.775C66.1879 150.909 65.7659 151.877 64.9323 152.702C64.0988 153.516 63.0858 153.928 61.9041 153.928L48.3141 153.959L48.2191 153.928L48.2191 161.295L44.1886 161.295L44.1886 139.833ZM62.1151 149.755L62.1151 143.965C62.1151 143.831 62.0413 143.759 61.9041 143.759L48.4408 143.759C48.293 143.759 48.2297 143.831 48.2297 143.965L48.2297 149.755C48.2297 149.889 48.3036 149.961 48.4408 149.961L61.9041 149.961C62.0413 149.972 62.1151 149.899 62.1151 149.755Z" fill="#FFFFFF" fill-opacity="1.000000" fill-rule="nonzero"/>
	<path id="Vector" d="M72.9513 161.273L72.9513 139.771L76.9818 139.771L76.9818 157.338L94.9401 157.338L94.9401 161.273L72.9513 161.273Z" fill="#FFFFFF" fill-opacity="1.000000" fill-rule="nonzero"/>
	<path id="Vector" d="M121.571 139.802L121.571 143.737L105.417 143.737L105.417 148.569L118.427 148.569L118.427 152.506L105.417 152.506L105.417 157.338L121.571 157.338L121.571 161.273L101.355 161.273L101.355 139.802L121.571 139.802Z" fill="#FFFFFF" fill-opacity="1.000000" fill-rule="nonzero"/>
	<path id="Vector" d="M141.028 149.105L148.994 139.802L153.425 139.802L153.425 161.273L149.363 161.273L149.363 145.53L141.028 155.226L132.66 145.53L132.66 161.273L128.63 161.273L128.63 139.802L133.03 139.802L141.028 149.105Z" fill="#FFFFFF" fill-opacity="1.000000" fill-rule="nonzero"/>
	<path id="Vector" d="M183.391 143.943L183.391 145.582L179.329 145.582L179.329 143.943C179.329 143.81 179.265 143.737 179.149 143.737L165.654 143.737C165.506 143.737 165.443 143.81 165.443 143.943L165.443 148.354C165.443 148.487 165.517 148.56 165.654 148.56L179.149 148.56C180.31 148.56 181.302 148.961 182.146 149.765C182.979 150.568 183.401 151.548 183.401 152.701L183.401 157.111C183.401 158.265 182.979 159.244 182.146 160.048C181.312 160.852 180.31 161.253 179.149 161.253L165.654 161.253C164.472 161.253 163.47 160.852 162.647 160.048C161.824 159.244 161.413 158.265 161.413 157.111L161.413 155.473L165.443 155.473L165.443 157.111C165.443 157.255 165.517 157.317 165.654 157.317L179.149 157.317C179.276 157.317 179.329 157.245 179.329 157.111L179.329 152.701C179.329 152.567 179.265 152.495 179.149 152.495L165.654 152.495C164.472 152.495 163.47 152.094 162.647 151.29C161.824 150.486 161.413 149.508 161.413 148.354L161.413 143.943C161.413 142.79 161.824 141.811 162.647 141.007C163.47 140.203 164.472 139.802 165.654 139.802L179.149 139.802C180.31 139.802 181.302 140.203 182.146 141.007C182.969 141.811 183.391 142.79 183.391 143.943Z" fill="#FFFFFF" fill-opacity="1.000000" fill-rule="nonzero"/>
	<path id="Vector" d="M209.589 139.802L214.411 139.802L204.24 153.247L204.24 161.273L200.209 161.273L200.209 153.247L190.038 139.802L194.828 139.802L202.214 148.931L209.589 139.802Z" fill="#FFFFFF" fill-opacity="1.000000" fill-rule="nonzero"/>
	<path id="Vector" d="M242.267 143.943L242.267 145.582L238.204 145.582L238.204 143.943C238.204 143.81 238.141 143.737 238.025 143.737L224.53 143.737C224.382 143.737 224.319 143.81 224.319 143.943L224.319 148.354C224.319 148.487 224.393 148.56 224.53 148.56L238.025 148.56C239.186 148.56 240.177 148.961 241.021 149.765C241.855 150.568 242.277 151.548 242.277 152.701L242.277 157.111C242.277 158.265 241.855 159.244 241.021 160.048C240.188 160.852 239.186 161.253 238.025 161.253L224.53 161.253C223.348 161.253 222.346 160.852 221.523 160.048C220.7 159.244 220.288 158.265 220.288 157.111L220.288 155.473L224.319 155.473L224.319 157.111C224.319 157.255 224.393 157.317 224.53 157.317L238.025 157.317C238.151 157.317 238.204 157.245 238.204 157.111L238.204 152.701C238.204 152.567 238.141 152.495 238.025 152.495L224.53 152.495C223.348 152.495 222.346 152.094 221.523 151.29C220.7 150.486 220.288 149.508 220.288 148.354L220.288 143.943C220.288 142.79 220.7 141.811 221.523 141.007C222.346 140.203 223.348 139.802 224.53 139.802L238.025 139.802C239.186 139.802 240.177 140.203 241.021 141.007C241.844 141.811 242.267 142.79 242.267 143.943Z" fill="#FFFFFF" fill-opacity="1.000000" fill-rule="nonzero"/>
	<path id="Vector" d="M249.019 139.802L271.008 139.802L271.008 143.737L262.061 143.737L262.061 161.273L257.999 161.273L257.999 143.737L249.019 143.737L249.019 139.802Z" fill="#FFFFFF" fill-opacity="1.000000" fill-rule="nonzero"/>
	<path id="Vector" d="M298.156 139.802L298.156 143.737L282.003 143.737L282.003 148.569L295.012 148.569L295.012 152.506L282.003 152.506L282.003 157.338L298.156 157.338L298.156 161.273L277.94 161.273L277.94 139.802L298.156 139.802Z" fill="#FFFFFF" fill-opacity="1.000000" fill-rule="nonzero"/>
	<path id="Vector" d="M317.602 149.105L325.569 139.802L330 139.802L330 161.273L325.938 161.273L325.938 145.53L317.602 155.226L309.235 145.53L309.235 161.273L305.205 161.273L305.205 139.802L309.604 139.802L317.602 149.105Z" fill="#FFFFFF" fill-opacity="1.000000" fill-rule="nonzero"/>
</svg>
