<svg width="51.000000" height="51.000000" viewBox="0 0 51 51" fill="none" xmlns="http://www.w3.org/2000/svg" xmlns:xlink="http://www.w3.org/1999/xlink">
	<desc>
			Created with Pixso.
	</desc>
	<defs>
		<clipPath id="clip155_119">
			<rect id="Figma" width="51.000000" height="51.000000" fill="white" fill-opacity="0"/>
		</clipPath>
	</defs>
	<rect id="Figma" width="51.000000" height="51.000000" fill="#FFFFFF" fill-opacity="0"/>
	<g clip-path="url(#clip155_119)">
		<path id="Vector" d="M33.3984 19.5547L17.6025 19.5547C15.1221 19.458 12.7764 18.4048 11.0557 16.6162C9.33496 14.8271 8.37402 12.4414 8.37402 9.95947C8.37402 7.47754 9.33496 5.0918 11.0557 3.30322C12.7764 1.51416 15.1221 0.460938 17.6025 0.364258L33.3984 0.364258C35.8779 0.460938 38.2246 1.51416 39.9453 3.30322C41.666 5.0918 42.627 7.47754 42.627 9.95947C42.627 12.4414 41.666 14.8271 39.9453 16.6162C38.2246 18.4048 35.8779 19.458 33.3984 19.5547ZM17.6025 4.00732C16.0752 4.08252 14.6348 4.74268 13.5801 5.85107C12.5254 6.95898 11.9375 8.42969 11.9375 9.95947C11.9375 11.4893 12.5254 12.9604 13.5801 14.0684C14.6348 15.1763 16.0752 15.8364 17.6025 15.9121L33.3984 15.9121C34.9258 15.8364 36.3662 15.1763 37.4209 14.0684C38.4746 12.9604 39.0635 11.4893 39.0635 9.95947C39.0635 8.42969 38.4746 6.95898 37.4209 5.85107C36.3662 4.74268 34.9258 4.08252 33.3984 4.00732L17.6025 4.00732Z" fill="#F0F0F0" fill-opacity="1.000000" fill-rule="evenodd"/>
		<path id="Vector" d="M25.3838 35.0879L17.6025 35.0879C15.0596 35.0879 12.6211 34.0781 10.8232 32.2798C9.02441 30.4819 8.01465 28.043 8.01465 25.5C8.01465 22.957 9.02441 20.5186 10.8232 18.7202C12.6211 16.9224 15.0596 15.9121 17.6025 15.9121C18.0859 15.9121 18.5488 16.104 18.8906 16.4458C19.2324 16.7871 19.4238 17.2505 19.4238 17.7334C19.4238 18.2168 19.2324 18.6797 18.8906 19.0215C18.5488 19.3633 18.0859 19.5552 17.6025 19.5552C16.0264 19.5552 14.5137 20.1812 13.3984 21.2964C12.2842 22.4111 11.6572 23.9233 11.6572 25.5C11.6572 27.0767 12.2842 28.5889 13.3984 29.7041C14.5137 30.8188 16.0264 31.4453 17.6025 31.4453L23.5625 31.4453L23.5625 17.7334C23.5625 17.2505 23.7539 16.7871 24.0957 16.4458C24.4375 16.104 24.9004 15.9121 25.3838 15.9121C25.8672 15.9121 26.3301 16.104 26.6719 16.4458C27.0137 16.7871 27.2051 17.2505 27.2051 17.7334L27.2051 33.2666C27.2051 33.75 27.0137 34.2129 26.6719 34.5547C26.3301 34.896 25.8672 35.0879 25.3838 35.0879Z" fill="#F0F0F0" fill-opacity="1.000000" fill-rule="evenodd"/>
		<path id="Vector" d="M17.7188 50.6357C16.4268 50.686 15.1387 50.4751 13.9307 50.0156C12.7227 49.5562 11.6201 48.8574 10.6885 47.9614C9.75684 47.0654 9.01562 45.9907 8.50977 44.8018C8.00293 43.6123 7.74219 42.333 7.74219 41.0405C7.74219 39.748 8.00293 38.4688 8.50977 37.2798C9.01562 36.0903 9.75684 35.0156 10.6885 34.1196C11.6201 33.2236 12.7227 32.5249 13.9307 32.0654C15.1387 31.606 16.4268 31.395 17.7188 31.4453C18.2021 31.4453 18.665 31.6372 19.0068 31.979C19.3486 32.3203 19.54 32.7837 19.54 33.2666C19.54 33.75 19.3486 34.2129 19.0068 34.5547C18.665 34.896 18.2021 35.0879 17.7188 35.0879C16.5391 35.0854 15.3857 35.4321 14.4033 36.0854C13.4219 36.7388 12.6553 37.6685 12.2021 38.7568C11.749 39.8457 11.6289 41.0444 11.8574 42.2017C12.0859 43.3584 12.6523 44.4219 13.4854 45.2568C14.3174 46.0918 15.3799 46.6606 16.5361 46.8921C17.6924 47.123 18.8916 47.0059 19.9814 46.5552C21.0713 46.1045 22.0029 45.3408 22.6582 44.3604C23.3145 43.3799 23.6641 42.2271 23.6641 41.0479L23.6641 33.2666C23.6641 32.7837 23.8555 32.3203 24.1973 31.979C24.5391 31.6372 25.002 31.4453 25.4854 31.4453C25.9688 31.4453 26.4316 31.6372 26.7734 31.979C27.1152 32.3203 27.3066 32.7837 27.3066 33.2666L27.3066 41.0479C27.3027 43.5894 26.291 46.0259 24.4941 47.8232C22.6973 49.6206 20.2607 50.6318 17.7188 50.6357Z" fill="#F0F0F0" fill-opacity="1.000000" fill-rule="evenodd"/>
		<path id="Vector" d="M33.2666 35.3359C31.3447 35.3359 29.4658 34.7656 27.8672 33.6978C26.2686 32.6299 25.0234 31.1118 24.2881 29.3359C23.5518 27.5601 23.3594 25.606 23.7344 23.7207C24.1094 21.835 25.0352 20.1035 26.3945 18.7441C27.7539 17.3848 29.4854 16.4595 31.3711 16.084C33.2559 15.709 35.21 15.9019 36.9863 16.6372C38.7627 17.373 40.2803 18.6187 41.3486 20.2168C42.416 21.8154 42.9863 23.6943 42.9863 25.6167C42.9863 26.8931 42.7344 28.1567 42.2461 29.3359C41.7578 30.5151 41.042 31.5864 40.1396 32.4893C39.2373 33.3916 38.166 34.1074 36.9863 34.5957C35.8076 35.0845 34.543 35.3359 33.2666 35.3359ZM33.2666 19.5547C32.0645 19.5547 30.8896 19.9116 29.8896 20.5801C28.8896 21.248 28.1113 22.1982 27.6523 23.3091C27.1924 24.4204 27.0732 25.6431 27.3086 26.8218C27.5439 28.001 28.124 29.0835 28.9756 29.9331C29.8271 30.7822 30.9111 31.3599 32.0908 31.5923C33.2705 31.8252 34.4922 31.7026 35.6025 31.2407C36.7129 30.7788 37.6602 29.9976 38.3262 28.9966C38.9922 27.9951 39.3457 26.8188 39.3438 25.6167C39.3398 24.0078 38.6973 22.4658 37.5586 21.3296C36.4189 20.1929 34.876 19.5547 33.2666 19.5547Z" fill="#F0F0F0" fill-opacity="1.000000" fill-rule="evenodd"/>
		<path id="Vector" d="M25.3828 19.5547C25.1436 19.5527 24.9072 19.5039 24.6875 19.4106C24.4668 19.3174 24.2676 19.1816 24.0996 19.0112C23.9316 18.8403 23.7988 18.6387 23.709 18.417C23.6191 18.1953 23.5742 17.958 23.5762 17.7188L23.6924 2.1709C23.6963 1.69287 23.8887 1.23584 24.2266 0.897461C24.5645 0.55957 25.0215 0.368164 25.5 0.364258C25.7393 0.366211 25.9756 0.415039 26.1953 0.508301C26.416 0.601562 26.6152 0.737305 26.7832 0.908203C26.9512 1.07861 27.084 1.28027 27.1738 1.50195C27.2637 1.72363 27.3086 1.96094 27.3066 2.2002L27.1904 17.748C27.1826 18.2246 26.9893 18.6802 26.6523 19.0171C26.3154 19.3545 25.8604 19.5474 25.3828 19.5547Z" fill="#F0F0F0" fill-opacity="1.000000" fill-rule="nonzero"/>
	</g>
</svg>
