<svg width="74.000000" height="54.000488" viewBox="0 0 74 54.0005" fill="none" xmlns="http://www.w3.org/2000/svg" xmlns:xlink="http://www.w3.org/1999/xlink">
	<desc>
			Created with Pixso.
	</desc>
	<defs/>
	<path id="Vector" d="M3.05273 44.5752L4.58496 44.5752L7.63379 52.7769L6.06641 52.7769L5.44629 51.0884L2.21094 51.0884L1.56738 52.7769L0 52.7769L3.05273 44.5752ZM3.82812 46.7529L2.76562 49.5684L4.8877 49.5684L3.82812 46.7529Z" fill="#CA0709" fill-opacity="1.000000" fill-rule="nonzero"/>
	<path id="Vector" d="M13.9365 52.7769L11.7412 46.749L9.50684 52.7769L7.90527 52.7769L10.9658 44.5752L12.498 44.5752L15.5469 52.7769L13.9365 52.7769Z" fill="#CA0709" fill-opacity="1.000000" fill-rule="nonzero"/>
	<path id="Vector" d="M16.458 52.7769L16.458 44.5752L17.9668 44.5752L17.9668 47.6675L18.2969 47.6675C18.9248 47.6675 19.4482 47.7437 19.8672 47.8921C20.2861 48.0444 20.6475 48.3291 20.9531 48.7505C21.2598 49.1714 21.4111 49.6807 21.4111 50.2744C21.4111 50.8359 21.2793 51.313 21.0195 51.7021C20.7559 52.0913 20.4531 52.3682 20.1045 52.5283C19.7588 52.689 19.2822 52.769 18.6768 52.769L16.458 52.769L16.458 52.7769ZM17.9668 49.063L17.9668 51.2891L18.3428 51.2891C18.9678 51.2891 19.3867 51.209 19.5996 51.0483C19.8135 50.8882 19.918 50.6152 19.918 50.2305C19.918 49.4521 19.3711 49.0674 18.2773 49.0674L17.9668 49.0674L17.9668 49.063Z" fill="#CA0709" fill-opacity="1.000000" fill-rule="nonzero"/>
	<path id="Vector" d="M26.7021 44.5752L26.7021 45.6338L27.0352 45.6338C28.9395 45.6338 29.8936 46.4443 29.8936 48.0684C29.8936 48.5298 29.8203 48.9189 29.6689 49.2437C29.5215 49.5645 29.3008 49.8291 29.0098 50.042C28.7188 50.2505 28.4199 50.3906 28.1133 50.4551C27.8076 50.519 27.334 50.5513 26.6982 50.5513L26.6982 52.7769L25.1777 52.7769L25.1777 50.5513C24.5137 50.5513 23.9668 50.4829 23.54 50.3467C23.1143 50.2104 22.7646 49.9497 22.4932 49.5645C22.2217 49.1797 22.082 48.6982 22.082 48.1167C22.082 47.5713 22.1904 47.1099 22.4121 46.7329C22.6289 46.356 22.9395 46.0791 23.3428 45.9028C23.7422 45.7261 24.3555 45.6338 25.1777 45.6338L25.1777 44.5752L26.7021 44.5752ZM25.1816 47.0737L24.832 47.0737C24.3047 47.0737 23.9512 47.1621 23.7773 47.3384C23.6025 47.5151 23.5137 47.7715 23.5137 48.1084C23.5137 48.5059 23.6221 48.7822 23.835 48.9351C24.0488 49.0874 24.3623 49.1636 24.7773 49.1636L25.1885 49.1636L25.1885 47.0737L25.1816 47.0737ZM26.7021 47.0737L26.7021 49.1636L27.1982 49.1636C27.71 49.1636 28.0479 49.063 28.2109 48.8667C28.377 48.6699 28.459 48.4136 28.459 48.0967C28.459 47.7715 28.3691 47.5229 28.1992 47.3428C28.0244 47.1621 27.6709 47.0737 27.1436 47.0737L26.7021 47.0737Z" fill="#CA0709" fill-opacity="1.000000" fill-rule="nonzero"/>
	<path id="Vector" d="M33.4746 44.5752L35.0068 44.5752L38.0557 52.7769L36.4883 52.7769L35.8682 51.0884L32.6328 51.0884L31.9893 52.7769L30.4219 52.7769L33.4746 44.5752ZM34.25 46.7529L33.1875 49.5684L35.3096 49.5684L34.25 46.7529Z" fill="#CA0709" fill-opacity="1.000000" fill-rule="nonzero"/>
	<path id="Vector" d="M41.5303 44.5752L45.9131 44.5752L45.9131 46.1152L44.4668 46.1152L44.4668 52.7769L42.9346 52.7769L42.9346 46.1152L41.5264 46.1152L41.5264 44.5752L41.5303 44.5752Z" fill="#CA0709" fill-opacity="1.000000" fill-rule="nonzero"/>
	<path id="Vector" d="M46.9453 44.5752L48.5469 44.5752C49.4121 44.5752 50.0371 44.6592 50.4209 44.8237C50.8047 44.9883 51.1074 45.2568 51.3242 45.626C51.5459 45.9951 51.6582 46.4399 51.6582 46.9536C51.6582 47.5269 51.5146 48.0005 51.2236 48.3813C50.9326 48.7622 50.541 49.0229 50.0449 49.1714C49.7539 49.2559 49.2217 49.2998 48.4541 49.2998L48.4541 52.7729L46.9453 52.7729L46.9453 44.5752ZM48.4541 47.7837L48.9355 47.7837C49.3115 47.7837 49.5752 47.7559 49.7227 47.6997C49.8701 47.6436 49.9863 47.5513 50.0713 47.4229C50.1572 47.2944 50.1992 47.1382 50.1992 46.9575C50.1992 46.6406 50.0791 46.4082 49.8428 46.2637C49.6719 46.1553 49.3506 46.103 48.8848 46.103L48.458 46.103L48.458 47.7837L48.4541 47.7837Z" fill="#CA0709" fill-opacity="1.000000" fill-rule="nonzero"/>
	<path id="Vector" d="M53.1396 44.5752L57.4688 44.5752L57.4688 46.103L54.6367 46.103L54.6367 47.5874L57.4688 47.5874L57.4688 49.0874L54.6367 49.0874L54.6367 51.2451L57.4688 51.2451L57.4688 52.7769L53.1396 52.7769L53.1396 44.5752Z" fill="#CA0709" fill-opacity="1.000000" fill-rule="nonzero"/>
	<path id="Vector" d="M64.6484 44.5747L64.6484 52.7769L63.1396 52.7769L63.1396 47.6431L60.1797 52.7769L58.8691 52.7769L58.8691 44.5747L60.3779 44.5747L60.3779 49.877L63.376 44.5747L64.6484 44.5747ZM59.6025 42.373L60.793 42.373C60.8857 42.5254 61.0176 42.6416 61.1846 42.7178C61.3516 42.7939 61.5576 42.8345 61.7979 42.8345C62.042 42.8345 62.2627 42.79 62.4609 42.7021C62.5889 42.6416 62.7051 42.5337 62.8018 42.377L63.9932 42.377C63.9229 42.8501 63.7061 43.2275 63.3379 43.5161C62.9688 43.8008 62.4531 43.9453 61.7939 43.9453C61.3477 43.9453 60.9756 43.8809 60.6768 43.7529C60.3779 43.6245 60.1338 43.4399 59.9512 43.2031C59.7656 42.9624 59.6484 42.686 59.6025 42.373Z" fill="#CA0709" fill-opacity="1.000000" fill-rule="nonzero"/>
	<path id="Vector" d="M69.0391 44.5752L70.5635 44.5752L73.1162 51.3091L74 51.3091L74 54.0005L72.5381 54.0005L72.5381 52.7729L67.0801 52.7729L67.0801 54.0005L65.6182 54.0005L65.6182 51.3091L66.4951 51.3091L69.0391 44.5752ZM69.8154 46.7529L68.0771 51.313L71.5449 51.313L69.8154 46.7529Z" fill="#CA0709" fill-opacity="1.000000" fill-rule="nonzero"/>
	<path id="Vector" d="M26.0342 22.8652C26.5889 23.8555 27.1475 23.8315 27.8184 23.3745C31.0186 21.2046 34.2266 19.103 37.4424 17.0776C37.9033 16.7886 38.4697 16.813 38.9355 17.0977C39.8857 17.6753 40.832 18.2646 41.7783 18.8623L41.7783 6.95068L39.4053 6.95068L39.4053 1.36768L23.835 1.36768L23.835 6.95459L21.4619 6.95459L21.4619 20.8076L18.7773 20.8076L18.7773 25.9009L18.9053 25.9009C20.5537 24.7017 22.1982 23.4985 23.8428 22.2876C24.6885 21.6616 25.3672 21.6699 26.0342 22.8652ZM39.9287 8.77148L39.9287 11.647L37.1279 11.647L37.1279 8.77148L39.9287 8.77148ZM35.7627 2.71924L38.0312 2.71924L38.0312 5.41455L35.7627 5.41455L35.7627 2.71924ZM35.2969 11.647L32.4971 11.647L32.4971 8.77148L35.2969 8.77148L35.2969 11.647ZM32.2217 2.71924L34.4902 2.71924L34.4902 5.41455L32.2217 5.41455L32.2217 2.71924ZM28.5596 2.71924L30.8291 2.71924L30.8291 5.41455L28.5596 5.41455L28.5596 2.71924ZM27.7295 11.647L27.7295 8.77148L30.5303 8.77148L30.5303 11.647L27.7295 11.647ZM25.0342 2.71924L27.3027 2.71924L27.3027 5.41455L25.0342 5.41455L25.0342 2.71924ZM23.0986 11.647L23.0986 8.77148L25.8984 8.77148L25.8984 11.647L23.0986 11.647Z" fill="#000000" fill-opacity="1.000000" fill-rule="nonzero"/>
	<path id="Vector" d="M50.5957 23.1738C51.6592 22.0508 52.6133 22.127 53.7305 22.9653C54.6299 23.6431 55.5303 24.3086 56.4297 24.9785L56.4297 20.8076L54.126 20.8076L52.2373 0L44.8633 0L43.0752 19.6763C45.0615 20.9316 47.0508 22.1914 49.0449 23.3901C49.5215 23.6753 50.1621 23.6353 50.5957 23.1738ZM52.167 20.8076L52.0625 20.8076L49.1689 16.3315L51.5889 12.5815L52.167 20.8076ZM45.8408 11.1738L48.5479 7.74463L51.2559 11.1738L48.5479 15.3647L45.8408 11.1738ZM51.3955 9.77393L49.1689 6.95459L51.0342 4.59229L51.3955 9.77393ZM46.2207 3.22852L50.8711 3.22852L48.5439 6.17236L46.2207 3.22852ZM46.0615 4.59619L47.9277 6.9585L45.7012 9.77783L46.0615 4.59619ZM44.9297 20.8076L45.5029 12.5815L47.9238 16.3315L45.0303 20.8076L44.9297 20.8076ZM46.2793 20.8076L48.5479 17.2939L50.8174 20.8076L46.2793 20.8076Z" fill="#000000" fill-opacity="1.000000" fill-rule="nonzero"/>
	<path id="Vector" d="M25.9258 30.5537C28.4512 33.0645 30.9805 35.5791 33.5049 38.0898C33.4893 38.186 33.4775 38.2822 33.4629 38.3784C30.1924 36.646 26.9229 34.9092 23.6533 33.1768C23.6338 33.2769 23.6104 33.3813 23.5908 33.4814C24.1729 34.4722 24.751 35.459 25.332 36.4492C25.3135 36.5415 25.29 36.6338 25.2705 36.73C23.3936 35.563 21.5117 34.396 19.4092 33.0884C19.7588 33.9829 19.9453 34.4644 20.2432 35.2383C14.4873 36.9268 8.86328 38.5791 3.23535 40.2275C3.21973 40.1152 3.2002 40.0029 3.18457 39.8867C3.36719 39.71 3.54102 39.4976 3.73145 39.3613C10.4375 34.5161 17.1484 29.7153 23.8428 24.7861C24.6885 24.1646 25.3711 24.1689 26.0381 25.3638C26.5928 26.3545 27.1514 26.3306 27.8223 25.873C31.0225 23.7036 34.2305 21.6021 37.4463 19.5767C37.9072 19.2876 38.4736 19.3115 38.9395 19.5967C42.3135 21.6499 45.665 23.8521 49.0439 25.8853C49.5205 26.1738 50.1611 26.1299 50.5947 25.6729C51.6582 24.5498 52.6123 24.626 53.7295 25.4644C59.5977 29.8838 65.4932 34.1313 71.3818 38.4429C71.6104 38.6113 71.8311 38.8076 72.0215 39.269C68.7754 37.4282 65.5322 35.583 62.2861 33.7422C62.2588 33.8545 62.2314 33.9668 62.2002 34.0791C63.1084 35.3984 64.0156 36.7183 64.9238 38.0376C64.9043 38.1382 64.8848 38.2383 64.8652 38.3423C60.9941 35.2505 57.1191 32.1582 52.9844 28.8613C53.5312 30.1689 53.9072 31.0669 54.4004 32.2383C53.7949 31.9014 53.3721 31.6646 52.9492 31.4282C52.9336 31.5205 52.9189 31.6167 52.9033 31.709C54.416 33.353 55.9326 34.9937 57.4453 36.6382C57.4258 36.7383 57.4102 36.8423 57.3906 36.9429C56.3359 36.2007 55.2842 35.4629 54.2295 34.7129C49.3652 31.2515 44.4824 27.9106 39.6533 24.2407C38.2881 23.2061 37.1279 23.5991 35.7002 24.7705C36.6777 25.9014 37.5273 26.8921 38.3809 27.8784C38.3613 27.9829 38.3457 28.083 38.3262 28.1875C37.5312 28.0513 36.7363 27.9146 35.9414 27.7822C35.9219 27.9189 35.9023 28.0552 35.8789 28.1914C38.2842 30.5977 40.6885 33.0005 43.0938 35.4067C43.0781 35.4907 43.0664 35.5752 43.0508 35.6636C39.6494 33.9468 36.2471 32.23 32.8496 30.5098C32.8262 30.646 32.8027 30.7822 32.7803 30.9185C34.6494 32.5591 36.5186 34.1992 38.3887 35.8359C38.373 35.9482 38.3535 36.0566 38.3379 36.1685C34.2188 34.1953 30.0957 32.2222 25.9766 30.249C25.9609 30.353 25.9453 30.4536 25.9258 30.5537Z" fill="#CA0709" fill-opacity="1.000000" fill-rule="nonzero"/>
</svg>
