<svg width="15.000000" height="15.000000" viewBox="0 0 15 15" fill="none" xmlns="http://www.w3.org/2000/svg" xmlns:xlink="http://www.w3.org/1999/xlink">
	<desc>
			Created with Pixso.
	</desc>
	<defs/>
	<path id="Soft Star" d="M7.2998 0.177734C7.32812 -0.059082 7.67188 -0.059082 7.7002 0.177734L7.93652 2.1665C8.00879 2.7749 8.17676 3.35303 8.42676 3.88477C8.6084 4.271 8.83203 4.6333 9.09277 4.96484C9.36816 5.31494 9.68457 5.63135 10.0352 5.90723C10.3672 6.16797 10.7285 6.39209 11.1152 6.57324C11.6465 6.82275 12.2246 6.9917 12.833 7.06396L14.8223 7.2998C15.0596 7.32812 15.0596 7.67188 14.8223 7.7002L12.833 7.93604C12.2246 8.0083 11.6465 8.17725 11.1152 8.42676C10.7285 8.60791 10.3672 8.83203 10.0352 9.09277C9.68457 9.36865 9.36816 9.68506 9.09277 10.0352C8.83203 10.3667 8.6084 10.729 8.42676 11.1152C8.17676 11.647 8.00879 12.2251 7.93652 12.8335L7.7002 14.8223C7.67188 15.0591 7.32812 15.0591 7.2998 14.8223L7.06348 12.8335C6.99121 12.2251 6.82324 11.647 6.57324 11.1152C6.3916 10.729 6.16797 10.3667 5.90723 10.0352C5.63184 9.68506 5.31543 9.36865 4.96484 9.09277C4.63281 8.83203 4.27148 8.60791 3.88477 8.42676C3.35352 8.17725 2.77539 8.0083 2.16699 7.93604L0.177734 7.7002C-0.0595703 7.67188 -0.0595703 7.32812 0.177734 7.2998L2.16699 7.06396C2.77539 6.9917 3.35352 6.82275 3.88477 6.57324C4.27148 6.39209 4.63281 6.16797 4.96484 5.90723C5.31543 5.63135 5.63184 5.31494 5.90723 4.96484C6.16797 4.6333 6.3916 4.271 6.57324 3.88477C6.82324 3.35303 6.99121 2.7749 7.06348 2.1665L7.2998 0.177734Z" fill="#FFFFFF" fill-opacity="1.000000" fill-rule="evenodd"/>
</svg>
