<svg width="15.000000" height="15.000000" viewBox="0 0 15 15" fill="none" xmlns="http://www.w3.org/2000/svg" xmlns:xlink="http://www.w3.org/1999/xlink">
	<desc>
			Created with Pixso.
	</desc>
	<defs/>
	<path id="Soft Star" d="M7.27441 0.394043L7.2998 0.177734C7.32812 -0.059082 7.67188 -0.059082 7.7002 0.177734L7.72559 0.394043L7.75195 0.612793L7.93652 2.1665C8.24121 4.73438 10.2656 6.75928 12.833 7.06396L14.3877 7.24805L14.6055 7.27441L14.8223 7.2998C15.0596 7.32812 15.0596 7.67188 14.8223 7.7002L14.6055 7.72559L14.3877 7.75195L12.833 7.93604C10.2656 8.24072 8.24121 10.2656 7.93652 12.8335L7.75195 14.3872L7.72559 14.606L7.7002 14.8223C7.67188 15.0591 7.32812 15.0591 7.2998 14.8223L7.27441 14.606L7.24805 14.3872L7.06348 12.8335C6.75879 10.2656 4.73438 8.24072 2.16699 7.93604L0.612305 7.75195L0.394531 7.72559L0.177734 7.7002C-0.0595703 7.67188 -0.0595703 7.32812 0.177734 7.2998L0.394531 7.27441L0.612305 7.24805L2.16699 7.06396C4.73438 6.75928 6.75879 4.73438 7.06348 2.1665L7.24805 0.612793L7.27441 0.394043ZM2.62402 7.5Q2.9707 7.56445 3.30664 7.66748Q3.76074 7.80762 4.19238 8.02002Q4.62793 8.23389 5.02051 8.51025Q5.44434 8.80957 5.81738 9.18262Q6.19043 9.55518 6.48926 9.97998Q6.7666 10.3716 6.98047 10.8076Q7.19238 11.2397 7.33203 11.6938Q7.43555 12.0288 7.5 12.376Q7.56445 12.0288 7.66797 11.6938Q7.80762 11.2397 8.01953 10.8076Q8.2334 10.3716 8.50977 9.97998Q8.80957 9.55518 9.18262 9.18262Q9.55566 8.80957 9.97949 8.51025Q10.3721 8.23389 10.8076 8.02002Q11.2393 7.80762 11.6943 7.66748Q12.0293 7.56445 12.376 7.5Q12.0293 7.43555 11.6943 7.33252Q11.2393 7.19238 10.8076 6.97998Q10.3711 6.76611 9.97949 6.48975Q9.55566 6.19043 9.18262 5.81738Q8.80957 5.44482 8.51074 5.02002Q8.2334 4.62842 8.01953 4.19238Q7.80762 3.76025 7.66797 3.30615Q7.56445 2.97119 7.5 2.62402Q7.43555 2.97119 7.33203 3.30615Q7.19238 3.76025 6.98047 4.19238Q6.7666 4.62842 6.48926 5.02002Q6.19043 5.44482 5.81738 5.81738Q5.44434 6.19043 5.02051 6.48975Q4.62891 6.76611 4.19238 6.97998Q3.76074 7.19238 3.30664 7.33252Q2.9707 7.43555 2.62402 7.5Z" fill="#FFFFFF" fill-opacity="1.000000" fill-rule="evenodd"/>
</svg>
