<svg width="22.000000" height="21.000000" viewBox="0 0 22 21" fill="none" xmlns="http://www.w3.org/2000/svg" xmlns:xlink="http://www.w3.org/1999/xlink">
	<desc>
			Created with Pixso.
	</desc>
	<defs/>
	<path id="@" d="M10.983 21C9.38953 21 7.92322 20.748 6.58398 20.2441C5.24463 19.7402 4.0813 19.0264 3.09399 18.1016C2.10669 17.1875 1.34412 16.1094 0.806519 14.8682C0.268799 13.627 0 12.2783 0 10.8223C0 9.08594 0.278564 7.5459 0.835815 6.20215C1.40283 4.8584 2.18481 3.72852 3.18201 2.81445C4.18884 1.88965 5.35217 1.19043 6.67188 0.713867C8.00146 0.238281 9.42383 0 10.939 0C12.7964 0 14.4241 0.275391 15.8219 0.826172C17.2198 1.37695 18.3832 2.12305 19.3119 3.06641C20.2406 4.00879 20.9298 5.08691 21.3794 6.2998C21.8291 7.50391 22.0344 8.76367 21.9954 10.0801C21.9464 11.8906 21.5505 13.2812 20.8076 14.252C20.0646 15.2129 18.9111 15.6943 17.3469 15.6943C16.516 15.6943 15.7487 15.5117 15.0448 15.1484C14.3507 14.7842 13.8717 14.2471 13.6078 13.5381L14.4583 13.5801C14.0575 14.2988 13.51 14.8027 12.8159 15.0918C12.1218 15.3809 11.4131 15.5264 10.6897 15.5264C9.70239 15.5264 8.8324 15.3252 8.07959 14.9238C7.3269 14.5137 6.73547 13.9395 6.3053 13.2021C5.87524 12.4648 5.66016 11.6104 5.66016 10.6396C5.66016 9.6416 5.88501 8.77832 6.33459 8.0498C6.7843 7.3125 7.39038 6.74316 8.15295 6.3418C8.91541 5.94043 9.77563 5.74023 10.7338 5.74023C11.3691 5.74023 12.0289 5.86621 12.7133 6.11816C13.4073 6.37012 13.9451 6.72461 14.3263 7.18164L13.7251 7.91016L13.7251 6.13184L15.6899 6.13184L15.646 11.1582C15.646 11.877 15.7926 12.418 16.0859 12.7822C16.3792 13.1465 16.8142 13.3281 17.391 13.3281C17.8993 13.3281 18.2903 13.1924 18.5641 12.9219C18.8475 12.6416 19.0431 12.2637 19.1506 11.7881C19.2679 11.3115 19.3363 10.7656 19.3558 10.1504C19.3853 8.70312 19.1604 7.48535 18.6814 6.49609C18.2024 5.50684 17.5522 4.70898 16.7311 4.10156C15.9197 3.48633 15.0253 3.04297 14.0477 2.77246C13.0701 2.49219 12.0974 2.35156 11.1296 2.35156C9.76099 2.35156 8.54395 2.56152 7.47839 2.98242C6.41284 3.39258 5.51355 3.97559 4.78027 4.73242C4.05688 5.47852 3.50952 6.36523 3.13794 7.3916C2.77625 8.40918 2.60522 9.5293 2.62476 10.752C2.66382 11.9658 2.89355 13.0576 3.31396 14.0283C3.73438 14.999 4.3208 15.8291 5.07361 16.5195C5.82629 17.2109 6.71594 17.7383 7.74231 18.1016C8.7688 18.4658 9.89294 18.6484 11.115 18.6484C11.7993 18.6484 12.4786 18.5732 13.1532 18.4238C13.8375 18.2842 14.4631 18.083 15.0302 17.8223L15.866 20.0059C15.1133 20.3418 14.3214 20.5889 13.4905 20.748C12.6693 20.916 11.8335 21 10.983 21ZM10.8657 13.1465C11.5598 13.1465 12.1414 12.9551 12.6106 12.5723C13.0798 12.1895 13.3145 11.541 13.3145 10.626C13.3145 9.79492 13.1044 9.16992 12.684 8.75C12.2734 8.32031 11.6918 8.10645 10.939 8.10645C10.0494 8.10645 9.38464 8.33008 8.9447 8.77832C8.50488 9.22559 8.28491 9.8418 8.28491 10.626C8.28491 11.4287 8.50977 12.0498 8.95947 12.4883C9.41882 12.9268 10.0543 13.1465 10.8657 13.1465Z" fill="#EDEDED" fill-opacity="1.000000" fill-rule="nonzero"/>
</svg>
