<svg width="25.000000" height="25.000000" viewBox="0 0 25 25" fill="none" xmlns="http://www.w3.org/2000/svg" xmlns:xlink="http://www.w3.org/1999/xlink">
	<desc>
			Created with Pixso.
	</desc>
	<defs>
		<clipPath id="clip88_740">
			<rect id="phone 1" width="25.000000" height="25.000000" fill="white" fill-opacity="0"/>
		</clipPath>
	</defs>
	<rect id="phone 1" width="25.000000" height="25.000000" fill="#FFFFFF" fill-opacity="0"/>
	<g clip-path="url(#clip88_740)">
		<path id="Vector" d="M20.2502 13.542C20.0211 13.542 19.7815 13.4688 19.5524 13.417C19.0883 13.3145 18.6322 13.1787 18.1877 13.0107C17.7046 12.835 17.1733 12.8438 16.6964 13.0361C16.2195 13.2285 15.8306 13.5908 15.6045 14.0527L15.3752 14.5215C14.3607 13.957 13.4283 13.2559 12.6045 12.4375C11.7865 11.6143 11.0856 10.6816 10.5211 9.66699L10.9586 9.375C11.4204 9.14941 11.7823 8.76074 11.9746 8.2832C12.167 7.80664 12.1761 7.27539 12.0002 6.79199C11.8348 6.34668 11.6992 5.89062 11.594 5.42773C11.542 5.19824 11.5002 4.95898 11.469 4.71875C11.3425 3.98535 10.9583 3.32129 10.3853 2.8457C9.81238 2.37012 9.0885 2.11426 8.34399 2.125L5.21899 2.125C4.77014 2.12109 4.32556 2.21387 3.91565 2.39648C3.50562 2.58008 3.14001 2.84863 2.84351 3.18652C2.54688 3.52344 2.32642 3.91992 2.19714 4.34961C2.06787 4.78027 2.03271 5.23242 2.09399 5.67773C2.64893 10.041 4.64197 14.0957 7.7583 17.2012C10.8745 20.3057 14.9364 22.2842 19.3024 22.8232L19.6982 22.8232C20.4663 22.8242 21.208 22.543 21.7815 22.0312C22.1111 21.7373 22.3744 21.376 22.554 20.9717C22.7335 20.5674 22.8252 20.1299 22.8232 19.6875L22.8232 16.5625C22.8104 15.8389 22.547 15.1426 22.0778 14.5918C21.6085 14.041 20.9626 13.6699 20.2502 13.542ZM20.7711 19.792C20.771 19.9395 20.7393 20.0859 20.6782 20.2207C20.6171 20.3555 20.5281 20.4756 20.417 20.5732C20.3009 20.6738 20.1648 20.75 20.0177 20.7949C19.8705 20.8398 19.7155 20.8525 19.5627 20.834C15.6616 20.333 12.0381 18.5488 9.26355 15.7607C6.48901 12.9736 4.72156 9.34082 4.23987 5.4375C4.22327 5.28516 4.23779 5.13086 4.28259 4.98438C4.32739 4.83691 4.40137 4.70117 4.50024 4.58398C4.5979 4.47266 4.71802 4.38379 4.85278 4.32227C4.98743 4.26172 5.13367 4.22949 5.28149 4.22949L8.40649 4.22949C8.6488 4.22363 8.88525 4.30371 9.07544 4.45312C9.2655 4.60352 9.39734 4.81543 9.44824 5.05273C9.48987 5.33691 9.54199 5.61816 9.60449 5.89648C9.72473 6.44531 9.88489 6.98535 10.0836 7.51074L8.62524 8.1875C8.50061 8.24512 8.38843 8.32617 8.29529 8.42676C8.20203 8.52734 8.12964 8.64551 8.08228 8.77441C8.03479 8.90332 8.01331 9.04004 8.01892 9.17676C8.02454 9.31445 8.05713 9.44922 8.11487 9.57324C9.61401 12.7842 12.1953 15.3662 15.4065 16.8652C15.6602 16.9688 15.9446 16.9688 16.1982 16.8652C16.3281 16.8184 16.4475 16.7471 16.5494 16.6533C16.6514 16.5605 16.7338 16.4482 16.792 16.3232L17.4377 14.8652C17.9763 15.0576 18.5259 15.2178 19.0836 15.3438C19.3615 15.4062 19.6427 15.459 19.9274 15.5C20.1643 15.5508 20.3761 15.6826 20.5262 15.873C20.6765 16.0635 20.7557 16.2998 20.7502 16.542L20.7711 19.792Z" fill="#EDEDED" fill-opacity="1.000000" fill-rule="nonzero"/>
	</g>
</svg>
