<svg width="25.000000" height="25.000000" viewBox="0 0 25 25" fill="none" xmlns="http://www.w3.org/2000/svg" xmlns:xlink="http://www.w3.org/1999/xlink">
	<desc>
			Created with Pixso.
	</desc>
	<defs>
		<clipPath id="clip88_743">
			<rect id="telegram / 24 / Outline" width="25.000000" height="25.000000" fill="white" fill-opacity="0"/>
		</clipPath>
	</defs>
	<rect id="telegram / 24 / Outline" width="25.000000" height="25.000000" fill="#FFFFFF" fill-opacity="0"/>
	<g clip-path="url(#clip88_743)">
		<path id="Vector" d="M23.1924 2.52832C22.8958 2.28223 22.5378 2.12012 22.1566 2.06055C21.7755 2.00098 21.3853 2.0459 21.0276 2.19043L2.35999 9.72754C1.96082 9.8916 1.62097 10.1738 1.38562 10.5352C1.15027 10.8975 1.03064 11.3223 1.04248 11.7539C1.0542 12.1855 1.19702 12.6035 1.45178 12.9521C1.70654 13.2998 2.06128 13.5625 2.46887 13.7051L6.24487 15.0186L8.34961 21.9785C8.37817 22.0713 8.41968 22.1602 8.4729 22.2412C8.48096 22.2539 8.49243 22.2627 8.50098 22.2754C8.56238 22.3613 8.63672 22.4365 8.72119 22.5C8.74524 22.5186 8.76819 22.5352 8.79395 22.5518C8.89282 22.6172 9.00232 22.665 9.11755 22.6934L9.12988 22.6943L9.13696 22.6973C9.20618 22.7119 9.27673 22.7188 9.34753 22.7188C9.35425 22.7188 9.36035 22.7158 9.36707 22.7158C9.47375 22.7139 9.57959 22.6953 9.68066 22.6611C9.70422 22.6533 9.72437 22.6396 9.74719 22.6299C9.82263 22.5986 9.89404 22.5586 9.95996 22.5107C10.0128 22.4658 10.0657 22.4219 10.1185 22.377L12.9333 19.2695L17.1316 22.5215C17.5011 22.8096 17.9561 22.9658 18.4244 22.9658C18.9153 22.9658 19.391 22.7959 19.7717 22.4863C20.1526 22.1768 20.4153 21.7461 20.516 21.2656L23.9146 4.58105C23.9916 4.20605 23.9651 3.81641 23.8379 3.45508C23.7107 3.09375 23.4875 2.77344 23.1924 2.52832ZM9.7605 15.3496C9.61609 15.4941 9.51733 15.6768 9.47668 15.877L9.1543 17.4434L8.33765 14.7422L12.5723 12.5371L9.7605 15.3496ZM18.4082 20.875L13.447 17.0312C13.2395 16.8711 12.9791 16.7949 12.7178 16.8174C12.4565 16.8408 12.2135 16.9619 12.0371 17.1553L11.1356 18.1504L11.4542 16.6025L18.8324 9.22363C19.0085 9.04785 19.1158 8.81543 19.1349 8.56738C19.1539 8.31836 19.0835 8.07227 18.9363 7.87109C18.7891 7.6709 18.5748 7.5293 18.3324 7.47266C18.09 7.41699 17.8354 7.44922 17.6147 7.56348L7.02588 13.0771L3.14636 11.6572L21.8739 4.16504L18.4082 20.875Z" fill="#EDEDED" fill-opacity="1.000000" fill-rule="nonzero"/>
	</g>
</svg>
