<svg width="328.000000" height="128.000000" viewBox="0 0 328 128" fill="none" xmlns="http://www.w3.org/2000/svg" xmlns:xlink="http://www.w3.org/1999/xlink">
	<desc>
			Created with Pixso.
	</desc>
	<defs>
		<clipPath id="clip498_923">
			<rect id="calipso 2" width="328.000000" height="128.000000" fill="white" fill-opacity="0"/>
		</clipPath>
	</defs>
	<rect id="calipso 2" width="328.000000" height="128.000000" fill="#FFFFFF" fill-opacity="0"/>
	<g clip-path="url(#clip498_923)">
		<path id="Vector" d="M1480.11 419.807C1480.11 419.807 1351.79 530.193 1459.03 668.193C1459.03 668.193 1467 655.032 1470.02 621.871C1470.02 621.871 1459.61 619.097 1454.72 598.258C1454.72 598.258 1467 602.258 1474.01 607.807L1480.82 567.484C1480.82 567.484 1463.08 548.452 1460.64 522.839C1460.64 522.839 1482.3 538.323 1490.59 556.903C1490.59 556.903 1512 517.936 1501.01 482.388C1490.01 446.774 1480.11 419.807 1480.11 419.807Z" fill="#000000" fill-opacity="1.000000" fill-rule="nonzero"/>
		<path id="Vector" d="M1464.04 419.807C1464.04 419.807 1310.97 347.162 1230.8 503.033C1230.8 503.033 1263.33 501.227 1276.19 495.227C1276.19 495.227 1277.99 480.065 1289.5 468.581C1289.5 468.581 1293.16 466.774 1292.26 487.871C1292.26 487.871 1321.13 495.227 1362.4 446.903C1362.4 446.903 1361.05 468.517 1344.53 484.13C1344.47 484.194 1403.1 501.613 1464.04 419.807Z" fill="#000000" fill-opacity="1.000000" fill-rule="nonzero"/>
		<path id="Vector" d="M1490.59 411.484C1490.21 365.484 1870.54 262.452 1823.8 629.484L1782.08 588.065C1782.08 588.065 1790.31 571.937 1790.31 535.162C1790.31 535.162 1776.1 541.613 1770.63 563.678C1770.63 563.678 1727.11 508.001 1695.48 492.388C1695.48 492.388 1703.26 456.065 1700.05 431.678C1700.05 431.678 1674.84 470.774 1673.94 480.452C1673.94 480.452 1635.89 462.517 1567.61 451.033C1499.34 439.549 1490.59 411.484 1490.59 411.484Z" fill="#000000" fill-opacity="1.000000" fill-rule="nonzero"/>
		<path id="Vector" d="M1613.9 184.774C1613.9 184.774 1444.76 216.968 1477.35 394.064C1477.35 394.064 1555.72 360 1566.71 295.678C1566.71 295.678 1532.32 305.807 1525.44 303.032C1525.44 303.032 1579.05 279.549 1585.93 244.646C1585.93 244.646 1574.49 243.742 1564.85 236.839C1564.85 236.839 1546.52 232.258 1592.36 231.355C1592.36 231.226 1613 198.064 1613.9 184.774Z" fill="#000000" fill-opacity="1.000000" fill-rule="nonzero"/>
		<path id="Vector" d="M1288.02 216.903C1288.02 216.903 1460.12 214 1464.04 394C1464.04 394 1380.4 376.646 1356.62 315.807C1356.62 315.807 1392.3 318.71 1398.47 314.646C1398.47 314.646 1341.19 302.581 1327.43 269.742C1327.43 269.742 1338.49 266.517 1346.46 257.807C1346.46 257.807 1363.5 249.549 1318.43 258C1318.49 258 1291.62 229.742 1288.02 216.903Z" fill="#000000" fill-opacity="1.000000" fill-rule="nonzero"/>
		<path id="Vector" d="M1449.13 685.291C1442.89 706.064 1659.67 897.032 1808.37 672.13C1809.01 671.162 1807.92 669.936 1806.89 670.517C1799.76 674.646 1784.97 682.839 1776.29 685.227C1775.52 685.42 1774.75 684.774 1774.88 684C1776.87 671.355 1787.16 590 1718.37 590.259C1658.26 590.517 1662.5 641.032 1666.42 660.581C1666.68 661.807 1668.42 661.742 1668.61 660.517C1670.09 649.291 1676.77 629.742 1705.51 629.549C1745.82 629.227 1748.26 720.581 1633.7 720.903C1526.53 721.162 1458.9 688.903 1450.61 684.71C1450.09 684.388 1449.32 684.646 1449.13 685.291Z" fill="#000000" fill-opacity="1.000000" fill-rule="nonzero"/>
		<path id="Vector" d="M1599.05 542.258C1599.24 541.871 1599.37 541.612 1599.5 541.29C1602.52 534.064 1607.08 528.258 1614.09 524.58C1625.6 518.516 1641.09 520.58 1649.84 532.387C1652.99 536.645 1654.72 541.483 1655.43 546.71C1656.01 550.71 1656.33 554.71 1656.07 558.774C1655.69 565.483 1653.5 571.677 1650.16 577.419C1647.14 582.645 1643.54 587.419 1639.81 592.193C1632.03 602.193 1624.31 612.193 1616.53 622.129C1615.89 622.968 1615.31 623.742 1614.73 624.58C1614.41 625.097 1614.09 625.097 1613.58 624.774C1609.21 622 1604.9 619.226 1600.46 616.516C1594.61 612.968 1588.63 609.548 1582.78 605.936C1577.58 602.71 1572.3 599.483 1567.29 596.064C1562.02 592.516 1557.45 588.129 1554.05 582.645C1551.41 578.387 1549.67 573.742 1548.45 568.903C1547.68 565.742 1547.04 562.58 1546.97 559.29C1546.72 546.58 1555.27 535.29 1567.48 532C1577.45 529.354 1586.25 531.612 1594.23 537.871C1595.71 539.032 1596.99 540.387 1598.34 541.677C1598.6 541.807 1598.73 542 1599.05 542.258Z" fill="#000000" fill-opacity="1.000000" fill-rule="nonzero"/>
		<path id="Vector" d="M1624.06 309.42C1608.69 309.42 1593.65 310.774 1578.99 313.355C1576.42 321.291 1573.08 329.613 1567.35 335.742C1585.55 331.291 1604.51 328.969 1623.99 328.969C1756.04 328.969 1863.08 436.388 1863.08 568.903C1863.08 701.42 1756.04 808.839 1623.99 808.839C1491.94 808.839 1384.9 701.42 1384.9 568.903C1384.9 541.484 1389.47 515.227 1397.89 490.71C1395.06 492.065 1392.23 493.42 1389.47 494.903C1384.9 497.291 1380.08 499.42 1375 500.388C1374.81 500.388 1374.68 500.452 1374.49 500.452C1368.57 522.259 1365.42 545.227 1365.42 568.903C1365.42 712.194 1481.21 828.388 1623.99 828.388C1766.78 828.388 1882.56 712.194 1882.56 568.903C1882.56 425.613 1766.84 309.42 1624.06 309.42Z" fill="#000000" fill-opacity="1.000000" fill-rule="nonzero"/>
		<path id="Vector" d="M54.8381 55.1602C54.8381 55.1602 25.3298 61.6113 30.6013 92.4502C30.6013 92.4502 32.98 91.0312 36.2588 86.1279C36.2588 86.1279 34.8445 84.8379 35.873 81.0957C35.873 81.0957 37.4802 82.7734 38.123 84.2568L42.6233 78.5146C42.6233 78.5146 41.4661 73.999 43.2019 69.8057C43.2019 69.8057 45.3235 74.0635 45.0664 77.6768C45.0664 77.6768 51.688 73.3535 52.9739 66.8379C54.1311 60.2568 54.8381 55.1602 54.8381 55.1602Z" fill="#8962F8" fill-opacity="1.000000" fill-rule="nonzero"/>
		<path id="Vector" d="M53.4883 52.9023C53.4883 52.9023 35.5518 28.5156 9.77197 46.1934C9.77197 46.1934 15.0437 48.6445 17.5508 48.8379C17.5508 48.8379 19.0938 46.5801 21.9226 45.7412C21.9226 45.7412 22.6296 45.7412 20.7009 49.0312C20.7009 49.0312 24.6226 52.6445 35.166 48.5156C35.166 48.5156 33.1086 51.8057 29.187 52.8379C29.2515 52.9023 36.9661 60.6445 53.4883 52.9023Z" fill="#8962F8" fill-opacity="1.000000" fill-rule="nonzero"/>
		<path id="Vector" d="M96.8186 28.6445C96.8186 28.6445 67.5032 19.3545 57.7312 50C57.7312 50 72.9033 51.29 80.1035 42.1289C80.1035 42.1289 73.8677 40.7744 72.9675 39.8066C72.9675 39.8066 83.3823 40.6445 87.3682 35.7412C87.3682 35.7412 85.6323 34.6445 84.7324 32.709C84.7324 32.709 82.2251 30.4512 89.554 34.1934C89.554 34.1289 95.533 30.709 96.8186 28.6445Z" fill="#8962F8" fill-opacity="1.000000" fill-rule="nonzero"/>
		<path id="Vector" d="M42.5593 6.45117C42.5593 6.45117 69.8818 20.5801 55.3525 49.2256C55.3525 49.2256 43.6521 39.4189 45.0664 27.8057C45.0664 27.8057 50.4668 31.29 51.7524 31.1611C51.7524 31.1611 43.7808 24.3867 44.3594 18.0645C44.3594 18.0645 46.3523 18.5156 48.3452 17.8057C48.3452 17.8057 51.6882 17.9346 43.9092 15.4834C43.845 15.4834 41.9807 8.77344 42.5593 6.45117Z" fill="#8962F8" fill-opacity="1.000000" fill-rule="nonzero"/>
		<path id="Vector" d="M190.165 80.8379L190.229 80.7734C190.551 80.2578 191.001 79.9355 191.515 79.7412C192.48 79.4189 193.573 79.8057 194.087 80.8379C194.28 81.2256 194.344 81.6123 194.28 82C194.28 82.3223 194.215 82.5801 194.151 82.9033C194.022 83.4189 193.765 83.8057 193.444 84.1934C193.123 84.5156 192.801 84.8379 192.48 85.1611C191.772 85.8057 191.065 86.4512 190.358 87.0967C190.294 87.1611 190.229 87.2256 190.165 87.2256C190.101 87.29 190.101 87.29 190.101 87.2256C189.844 86.9678 189.522 86.709 189.265 86.4512C188.879 86.1289 188.494 85.7412 188.108 85.4189C187.787 85.0967 187.401 84.7734 187.079 84.4512C186.758 84.1289 186.437 83.7412 186.308 83.29C186.179 82.9678 186.115 82.5801 186.051 82.1934C186.051 81.9355 186.051 81.6768 186.051 81.4834C186.179 80.5156 187.015 79.8057 187.979 79.7412C188.751 79.6768 189.394 80 189.908 80.5156C189.972 80.5801 190.037 80.709 190.165 80.8379Z" fill="#DF1125" fill-opacity="1.000000" fill-rule="nonzero"/>
		<path id="Vector" d="M73.0959 55.29C73.6104 55.29 74.0603 55.4834 74.446 55.8711C74.8318 56.2578 75.0247 56.709 75.0247 57.2256L75.0247 71.8066C75.0247 72.3223 74.8318 72.8389 74.446 73.1611C74.0603 73.5479 73.6104 73.7412 73.0959 73.7412C72.5815 73.7412 72.1316 73.5479 71.7458 73.1611C71.3601 72.7734 71.1672 72.3223 71.1672 71.8066L71.1672 59.1611L62.9385 59.1611L62.9385 71.8066C62.9385 72.3223 62.7456 72.8389 62.3599 73.1611C61.9741 73.5479 61.5239 73.7412 61.0098 73.7412C60.4954 73.7412 59.9812 73.5479 59.6597 73.1611C59.2739 72.7734 59.0811 72.3223 59.0811 71.8066L59.0811 57.2256C59.0811 56.709 59.2739 56.2578 59.6597 55.8711C60.0454 55.4834 60.4954 55.29 61.0098 55.29L73.0959 55.29Z" fill="#343434" fill-opacity="1.000000" fill-rule="nonzero"/>
		<path id="Vector" d="M82.0964 73.7412C81.582 73.7412 81.0679 73.5479 80.7463 73.1611C80.3606 72.7734 80.1677 72.3223 80.1677 71.8066L80.1677 57.2256C80.1677 56.709 80.3606 56.2578 80.7463 55.8711C81.1321 55.4834 81.582 55.29 82.0964 55.29L89.3611 55.29C91.2253 55.29 92.8325 55.9355 94.1826 57.29C95.5327 58.6445 96.1755 60.1934 96.1755 62.1289C96.1755 64 95.5327 65.6123 94.1826 66.9033C92.8325 68.2578 91.2896 68.9033 89.3611 68.9033L84.0251 68.9033L84.0251 71.8066C84.0251 72.3223 83.8323 72.8389 83.4465 73.1611C83.0608 73.5479 82.6106 73.7412 82.0964 73.7412ZM92.2539 62.0645C92.2539 61.29 91.9968 60.5801 91.4182 60C90.8396 59.4189 90.1968 59.1611 89.3611 59.1611L84.0251 59.1611L84.0251 64.9678L89.3611 64.9678C90.1323 64.9678 90.8396 64.709 91.4182 64.1289C91.9326 63.5479 92.2539 62.8389 92.2539 62.0645Z" fill="#343434" fill-opacity="1.000000" fill-rule="nonzero"/>
		<path id="Vector" d="M101.511 73.6123C101.126 73.4834 100.804 73.2256 100.611 72.9033C100.354 72.5801 100.226 72.1934 100.226 71.8057L100.226 57.2256C100.226 56.709 100.418 56.2578 100.804 55.8711C101.19 55.4834 101.64 55.29 102.154 55.29C102.668 55.29 103.119 55.4834 103.504 55.8711C103.89 56.2578 104.083 56.709 104.083 57.2256L104.083 66.4512L112.762 56C113.019 55.6768 113.34 55.4834 113.726 55.3545C114.112 55.2256 114.498 55.29 114.883 55.4189C115.269 55.5479 115.591 55.8057 115.783 56.1289C116.041 56.4512 116.169 56.8389 116.169 57.2256L116.169 71.8057C116.169 72.3223 115.976 72.8389 115.591 73.1611C115.205 73.5479 114.755 73.7412 114.24 73.7412C113.726 73.7412 113.276 73.5479 112.89 73.1611C112.505 72.7734 112.312 72.3223 112.312 71.8057L112.312 62.5801L103.633 73.0322C103.247 73.4834 102.733 73.7412 102.154 73.7412C101.961 73.7412 101.704 73.6768 101.511 73.6123Z" fill="#343434" fill-opacity="1.000000" fill-rule="nonzero"/>
		<path id="Vector" d="M136.292 71.7412C136.292 72.2578 136.099 72.7734 135.713 73.0967C135.327 73.4834 134.877 73.6768 134.363 73.6768C133.848 73.6768 133.398 73.4834 133.013 73.0967C132.627 72.709 132.434 72.2578 132.434 71.7412L132.434 68.8389L128.32 68.8389C126.134 68.8389 124.27 68.0645 122.662 66.5156C121.119 64.9678 120.348 63.0322 120.348 60.8389L120.348 57.2256C120.348 56.709 120.541 56.2578 120.927 55.8711C121.312 55.4834 121.762 55.29 122.277 55.29C122.791 55.29 123.241 55.4834 123.627 55.8711C124.012 56.2578 124.205 56.709 124.205 57.2256L124.205 60.8389C124.205 62 124.591 62.9678 125.427 63.7412C126.198 64.5156 127.227 64.9678 128.32 64.9678L132.434 64.9678L132.434 57.2256C132.434 56.709 132.627 56.2578 133.013 55.8711C133.398 55.4834 133.848 55.29 134.363 55.29C134.877 55.29 135.327 55.4834 135.713 55.8711C136.099 56.2578 136.292 56.709 136.292 57.2256L136.292 71.7412Z" fill="#343434" fill-opacity="1.000000" fill-rule="nonzero"/>
		<path id="Vector" d="M154.807 55.4834C155.257 55.7422 155.578 56.0645 155.771 56.5801C155.964 57.0967 155.899 57.6123 155.642 58.0645L148.378 72.6445C148.185 72.9678 147.992 73.2256 147.671 73.4189C147.349 73.6123 147.028 73.6777 146.642 73.6777C146.321 73.6777 146.063 73.6123 145.742 73.4834C145.292 73.2256 144.97 72.9033 144.778 72.3867C144.585 71.8711 144.649 71.3545 144.906 70.9033L145.678 69.3545L140.149 58.1289C139.892 57.6123 139.892 57.1611 140.02 56.6455C140.213 56.1289 140.535 55.7422 140.985 55.5479C141.499 55.29 141.949 55.29 142.463 55.4189C142.978 55.6123 143.363 55.9355 143.556 56.3867L147.864 65.0322L152.171 56.3867C152.428 55.9355 152.749 55.6123 153.264 55.4189C153.842 55.2256 154.357 55.2256 154.807 55.4834Z" fill="#343434" fill-opacity="1.000000" fill-rule="nonzero"/>
		<path id="Vector" d="M170.879 73.7412L157.828 73.7412L157.828 74.1934C157.828 74.709 157.635 75.2256 157.25 75.5479C156.864 75.9355 156.414 76.1289 155.9 76.1289C155.385 76.1289 154.871 75.9355 154.55 75.5479C154.164 75.1611 153.971 74.709 153.971 74.1934L153.971 71.8057C153.971 71.29 154.164 70.7734 154.55 70.4512C154.935 70.0645 155.385 69.8711 155.9 69.8711L162.65 56.3867C162.843 56.0645 163.036 55.8057 163.357 55.6123C163.678 55.4189 164 55.3545 164.386 55.3545C164.771 55.3545 165.093 55.4189 165.414 55.6123C165.736 55.8057 165.993 56.0645 166.122 56.3867L172.872 69.8711C173.386 69.8711 173.836 70.0645 174.222 70.4512C174.608 70.8379 174.801 71.29 174.801 71.8057L174.801 74.1934C174.801 74.709 174.608 75.2256 174.222 75.5479C173.836 75.9355 173.386 76.1289 172.872 76.1289C172.357 76.1289 171.907 75.9355 171.522 75.5479C171.136 75.1611 170.943 74.709 170.943 74.1934L170.943 73.7412L170.879 73.7412ZM160.207 69.8057L168.436 69.8057L164.321 61.5479L160.207 69.8057Z" fill="#343434" fill-opacity="1.000000" fill-rule="nonzero"/>
		<path id="Vector" d="M186.115 61.5479L180.586 72.6445C180.393 72.9678 180.2 73.2256 179.879 73.4189C179.558 73.6123 179.236 73.6768 178.85 73.6768C178.529 73.6768 178.272 73.6123 178.015 73.4834C177.5 73.2256 177.179 72.9033 177.05 72.3867C176.857 71.8711 176.922 71.3545 177.179 70.9033L184.444 56.3223C184.636 56 184.829 55.7422 185.151 55.5479C185.472 55.3545 185.794 55.2256 186.179 55.2256C186.565 55.2256 186.886 55.3545 187.208 55.5479C187.529 55.7422 187.787 56 187.915 56.3223L195.18 70.9033C195.437 71.3545 195.437 71.8711 195.308 72.3867C195.115 72.9033 194.794 73.29 194.344 73.4834C193.894 73.7422 193.38 73.7422 192.865 73.6123C192.351 73.4189 191.965 73.0967 191.772 72.6445L186.115 61.5479Z" fill="#343434" fill-opacity="1.000000" fill-rule="nonzero"/>
		<path id="Vector" d="M200.259 73.6123C199.873 73.4834 199.552 73.2256 199.359 72.9033C199.102 72.5801 198.973 72.1934 198.973 71.8057L198.973 57.2256C198.973 56.709 199.166 56.2578 199.552 55.8711C199.937 55.4834 200.387 55.29 200.902 55.29C201.416 55.29 201.866 55.4834 202.252 55.8711C202.637 56.2578 202.83 56.709 202.83 57.2256L202.83 66.4512L211.509 56C211.766 55.6768 212.088 55.4834 212.473 55.3545C212.859 55.2256 213.245 55.29 213.631 55.4189C214.016 55.5479 214.338 55.8057 214.531 56.1289C214.788 56.4512 214.917 56.8389 214.917 57.2256L214.917 71.8057C214.917 72.3223 214.724 72.8389 214.338 73.1611C213.952 73.5479 213.502 73.7412 212.988 73.7412C212.473 73.7412 212.023 73.5479 211.638 73.1611C211.252 72.7734 211.059 72.3223 211.059 71.8057L211.059 62.5801L202.38 73.0322C201.994 73.4834 201.48 73.7412 200.902 73.7412C200.709 73.7412 200.451 73.6768 200.259 73.6123Z" fill="#343434" fill-opacity="1.000000" fill-rule="nonzero"/>
		<path id="Vector" d="M221.988 73.7412C221.474 73.7412 220.96 73.5479 220.638 73.1611C220.252 72.7734 220.06 72.3223 220.06 71.8066L220.06 57.2256C220.06 56.709 220.252 56.2578 220.638 55.8711C221.024 55.4834 221.474 55.29 221.988 55.29L228.031 55.29C229.574 55.29 230.86 55.8066 231.953 56.9033C233.046 58 233.56 59.29 233.56 60.8389C233.56 61.6768 233.367 62.4512 233.046 63.2256C233.946 63.6768 234.653 64.3867 235.167 65.2256C235.746 66.1289 236.003 67.0967 236.003 68.1289C236.003 69.6768 235.489 70.9678 234.396 72.0645C233.303 73.1611 232.017 73.6768 230.474 73.6768L221.988 73.6768L221.988 73.7412ZM223.917 62.5801L228.031 62.5801C228.481 62.5801 228.867 62.3867 229.253 62.0645C229.574 61.7412 229.767 61.3545 229.767 60.8389C229.767 60.3867 229.574 60 229.253 59.6123C228.931 59.29 228.546 59.0967 228.031 59.0967L223.917 59.0967L223.917 62.5801ZM223.917 69.8066L230.474 69.8066C230.924 69.8066 231.31 69.6123 231.696 69.29C232.017 68.9678 232.21 68.5801 232.21 68.0645C232.21 67.6123 232.017 67.2256 231.696 66.8389C231.374 66.5156 230.989 66.3223 230.474 66.3223L223.917 66.3223L223.917 69.8066Z" fill="#343434" fill-opacity="1.000000" fill-rule="nonzero"/>
		<path id="Vector" d="M249.311 60.1289C251.175 60.1289 252.782 60.7734 254.132 62.1289C255.482 63.4834 256.125 65.0322 256.125 66.9678C256.125 68.8389 255.482 70.4512 254.132 71.7412C252.782 73.0967 251.239 73.7412 249.311 73.7412L242.046 73.7412C241.532 73.7412 241.018 73.5479 240.696 73.1611C240.31 72.7734 240.117 72.3223 240.117 71.8066L240.117 57.2256C240.117 56.709 240.31 56.2578 240.696 55.8711C241.082 55.4834 241.532 55.29 242.046 55.29C242.56 55.29 243.01 55.4834 243.396 55.8711C243.782 56.2578 243.975 56.709 243.975 57.2256L243.975 60.1289L249.311 60.1289ZM249.311 69.8066C250.082 69.8066 250.789 69.5479 251.368 68.9678C251.947 68.3867 252.204 67.6768 252.204 66.9033C252.204 66.1289 251.947 65.4189 251.368 64.8389C250.789 64.2578 250.146 64 249.311 64L243.975 64L243.975 69.8066L249.311 69.8066ZM257.99 57.2256C257.99 56.709 258.183 56.2578 258.568 55.8711C258.954 55.4834 259.404 55.29 259.918 55.29C260.433 55.29 260.883 55.4834 261.268 55.8711C261.654 56.2578 261.847 56.709 261.847 57.2256L261.847 71.8066C261.847 72.3223 261.654 72.8389 261.268 73.1611C260.883 73.5479 260.433 73.7412 259.918 73.7412C259.404 73.7412 258.954 73.5479 258.568 73.1611C258.183 72.7734 257.99 72.3223 257.99 71.8066L257.99 57.2256Z" fill="#343434" fill-opacity="1.000000" fill-rule="nonzero"/>
		<path id="Vector" d="M268.276 73.6123C267.89 73.4834 267.569 73.2256 267.376 72.9023C267.119 72.5801 266.99 72.1934 266.99 71.8057L266.99 57.2256C266.99 56.709 267.183 56.2578 267.569 55.8701C267.955 55.4834 268.405 55.29 268.919 55.29C269.433 55.29 269.883 55.4834 270.269 55.8701C270.655 56.2578 270.848 56.709 270.848 57.2256L270.848 66.4512L279.527 56C279.784 55.6768 280.105 55.4834 280.491 55.3545C280.876 55.2256 281.262 55.29 281.648 55.4189C282.034 55.5479 282.355 55.8057 282.548 56.1289C282.805 56.4512 282.934 56.8379 282.934 57.2256L282.934 71.8057C282.934 72.3223 282.741 72.8379 282.355 73.1611C281.969 73.5479 281.52 73.7412 281.005 73.7412C280.491 73.7412 280.041 73.5479 279.655 73.1611C279.269 72.7734 279.076 72.3223 279.076 71.8057L279.076 62.5801L270.397 73.0322C270.012 73.4834 269.498 73.7412 268.919 73.7412C268.726 73.7412 268.469 73.6768 268.276 73.6123ZM272.583 53.3545C272.069 53.3545 271.619 53.1611 271.233 52.7734C270.848 52.3867 270.655 51.9346 270.655 51.4189C270.655 50.9023 270.848 50.4512 271.233 50.0645C271.619 49.6768 272.069 49.4834 272.583 49.4834L277.405 49.4834C277.919 49.4834 278.369 49.6768 278.755 50.0645C279.141 50.4512 279.334 50.9023 279.334 51.4189C279.334 51.9346 279.141 52.4512 278.755 52.7734C278.369 53.1611 277.919 53.3545 277.405 53.3545L272.583 53.3545Z" fill="#343434" fill-opacity="1.000000" fill-rule="nonzero"/>
		<path id="Vector" d="M145.806 105.677C145.292 105.677 144.778 105.483 144.456 105.097C144.071 104.709 143.878 104.258 143.878 103.742L143.878 89.1611C143.878 88.6445 144.071 88.1934 144.456 87.8066C144.842 87.4189 145.292 87.2256 145.806 87.2256L153.071 87.2256C154.935 87.2256 156.542 87.8711 157.893 89.2256C159.243 90.5801 159.885 92.1289 159.885 94.0645C159.885 95.9355 159.243 97.5479 157.893 98.8389C156.542 100.193 155 100.839 153.071 100.839L147.735 100.839L147.735 103.742C147.735 104.258 147.542 104.774 147.156 105.097C146.835 105.483 146.321 105.677 145.806 105.677ZM155.964 94C155.964 93.2256 155.707 92.5156 155.128 91.9355C154.55 91.3545 153.907 91.0967 153.071 91.0967L147.735 91.0967L147.735 96.9033L153.071 96.9033C153.842 96.9033 154.55 96.6445 155.128 96.0645C155.707 95.4834 155.964 94.7744 155.964 94Z" fill="#343434" fill-opacity="1.000000" fill-rule="nonzero"/>
		<path id="Vector" d="M161.235 105.419C160.721 105.161 160.4 104.839 160.271 104.322C160.078 103.807 160.143 103.29 160.4 102.839L167.664 88.2578C167.857 87.9355 168.05 87.6768 168.371 87.4834C168.693 87.29 169.014 87.2256 169.4 87.2256C169.786 87.2256 170.107 87.29 170.429 87.4834C170.75 87.6768 171.007 87.9355 171.136 88.2578L178.4 102.839C178.657 103.29 178.658 103.807 178.529 104.322C178.4 104.839 178.015 105.226 177.565 105.419C177.308 105.548 176.986 105.612 176.729 105.612C176.343 105.612 176.022 105.548 175.7 105.354C175.379 105.161 175.122 104.903 174.993 104.58L173.707 102L165.221 102L163.936 104.58C163.678 105.097 163.357 105.419 162.843 105.548C162.2 105.742 161.685 105.677 161.235 105.419ZM167.021 98.1289L171.65 98.1289L169.336 93.4834L167.021 98.1289Z" fill="#343434" fill-opacity="1.000000" fill-rule="nonzero"/>
		<path id="Vector" d="M183.479 105.548C183.094 105.419 182.772 105.161 182.579 104.839C182.322 104.516 182.194 104.129 182.194 103.741L182.194 89.1611C182.194 88.6445 182.386 88.1934 182.772 87.8066C183.158 87.4189 183.608 87.2256 184.122 87.2256C184.636 87.2256 185.087 87.4189 185.472 87.8066C185.858 88.1934 186.051 88.6445 186.051 89.1611L186.051 98.3867L194.73 87.9355C194.987 87.6123 195.308 87.4189 195.694 87.29C196.08 87.1611 196.466 87.2256 196.851 87.3545C197.237 87.4834 197.559 87.7412 197.751 88.0645C198.009 88.3867 198.137 88.7744 198.137 89.1611L198.137 103.741C198.137 104.258 197.944 104.773 197.559 105.097C197.173 105.483 196.723 105.677 196.208 105.677C195.694 105.677 195.244 105.483 194.858 105.097C194.473 104.709 194.28 104.258 194.28 103.741L194.28 94.5156L185.601 104.968C185.215 105.419 184.701 105.677 184.122 105.677C183.865 105.677 183.672 105.612 183.479 105.548Z" fill="#343434" fill-opacity="1.000000" fill-rule="nonzero"/>
	</g>
</svg>
