<svg width="30.000000" height="18.000000" viewBox="0 0 30 18" fill="none" xmlns="http://www.w3.org/2000/svg" xmlns:xlink="http://www.w3.org/1999/xlink">
	<desc>
			Created with Pixso.
	</desc>
	<defs/>
	<path id="primary" d="M28.5005 0L22.5022 0C22.1045 0 21.7231 0.158203 21.4419 0.438965C21.1606 0.720215 21.0027 1.10156 21.0027 1.49951C21.0027 1.89697 21.1606 2.27832 21.4419 2.55957C21.7231 2.84082 22.1045 2.99854 22.5022 2.99854L24.8865 2.99854L17.2537 10.6299L13.3699 6.74658C12.8079 6.18848 12.0479 5.875 11.2554 5.875C10.4631 5.875 9.70288 6.18848 9.14111 6.74658L0.443604 15.4277C0.302979 15.5669 0.191406 15.7329 0.115234 15.9155C0.0393066 16.0981 0 16.2939 0 16.4922C0 16.6899 0.0393066 16.8857 0.115234 17.0688C0.191406 17.2515 0.302979 17.417 0.443604 17.5566C0.583008 17.6973 0.748779 17.8086 0.931641 17.8848C1.11426 17.9609 1.3103 18 1.5083 18C1.7063 18 1.90234 17.9609 2.08496 17.8848C2.26758 17.8086 2.43359 17.6973 2.573 17.5566L11.2554 8.86084L15.1394 12.7437C15.7012 13.3022 16.4614 13.6157 17.2537 13.6157C18.0461 13.6157 18.8062 13.3022 19.3682 12.7437L27.001 5.1123L27.001 7.49658C27.001 7.89404 27.1589 8.27539 27.4402 8.55664C27.7212 8.83789 28.1028 8.99561 28.5005 8.99561C28.8982 8.99561 29.2795 8.83789 29.5608 8.55664C29.842 8.27539 30 7.89404 30 7.49658L30 1.49951C30 1.10156 29.842 0.720215 29.5608 0.438965C29.2795 0.158203 28.8982 0 28.5005 0Z" fill="#A3A3A3" fill-opacity="1.000000" fill-rule="evenodd"/>
</svg>
