<svg width="33.000000" height="9.000000" viewBox="0 0 33 9" fill="none" xmlns="http://www.w3.org/2000/svg" xmlns:xlink="http://www.w3.org/1999/xlink">
	<desc>
			Created with Pixso.
	</desc>
	<defs/>
	<path id="Vector" d="M28.2334 0L22.3667 0C20.1169 0 18.2277 1.47949 17.7296 3.46143L15.2705 3.46143C14.7725 1.47949 12.8831 0 10.6334 0L4.76672 0C2.13831 0 0 2.01855 0 4.5C0 6.98145 2.13831 9 4.76672 9L10.6334 9C12.8831 9 14.7725 7.52051 15.2705 5.53857L17.7295 5.53857C18.2277 7.52051 20.1171 9 22.3666 9L28.2333 9C30.8617 9 33 6.98145 33 4.5C33 2.01855 30.8618 0 28.2334 0ZM12.9519 5.53857C12.5392 6.35645 11.6552 6.92285 10.6334 6.92285L4.76672 6.92285C3.35144 6.92285 2.20007 5.83594 2.20007 4.5C2.20007 3.16406 3.35144 2.07715 4.76672 2.07715L10.6334 2.07715C11.6552 2.07715 12.5392 2.64355 12.9519 3.46143L11.3667 3.46143L11.3667 5.53857L12.9519 5.53857ZM28.2334 6.92285L22.3667 6.92285C21.3448 6.92285 20.4609 6.35645 20.0482 5.53857L21.6333 5.53857L21.6333 3.46143L20.0482 3.46143C20.4609 2.64355 21.345 2.07715 22.3667 2.07715L28.2334 2.07715C29.6487 2.07715 30.8 3.16406 30.8 4.5C30.8 5.83594 29.6487 6.92285 28.2334 6.92285Z" fill="#A3A3A3" fill-opacity="1.000000" fill-rule="evenodd"/>
</svg>
