<svg width="16.000000" height="20.870117" viewBox="0 0 16 20.8701" fill="none" xmlns="http://www.w3.org/2000/svg" xmlns:xlink="http://www.w3.org/1999/xlink">
	<desc>
			Created with Pixso.
	</desc>
	<defs/>
	<path id="Vector" d="M3.47827 0L12.5217 0L12.5217 1.39111L3.47827 1.39111L3.47827 0Z" fill="#A3A3A3" fill-opacity="1.000000" fill-rule="evenodd"/>
	<path id="Vector" d="M14.3291 8.34668C12.7429 7.0249 11.826 5.06738 11.826 3.00293L11.826 2.0874L4.17395 2.0874L4.17395 3.00293C4.17395 5.06738 3.25708 7.0249 1.6709 8.34668L0 9.73975L7.65222 20.8701L7.65222 13.1831C6.8584 13.0215 6.26086 12.3203 6.26086 11.4785C6.26086 10.5181 7.03931 9.73975 8 9.73975C8.96069 9.73975 9.73914 10.5181 9.73914 11.4785C9.73914 12.3198 9.1416 13.0215 8.34778 13.1831L8.34778 20.8701L16 9.73975L14.3291 8.34668Z" fill="#A3A3A3" fill-opacity="1.000000" fill-rule="evenodd"/>
	<path id="Vector" d="M3.47827 0L12.5217 0L12.5217 1.39111L3.47827 1.39111L3.47827 0Z" fill="#A3A3A3" fill-opacity="1.000000" fill-rule="evenodd"/>
	<path id="Vector" d="M14.3291 8.34668C12.7429 7.0249 11.826 5.06738 11.826 3.00293L11.826 2.0874L4.17395 2.0874L4.17395 3.00293C4.17395 5.06738 3.25708 7.0249 1.6709 8.34668L0 9.73975L7.65222 20.8701L7.65222 13.1831C6.8584 13.0215 6.26086 12.3203 6.26086 11.4785C6.26086 10.5181 7.03931 9.73975 8 9.73975C8.96069 9.73975 9.73914 10.5181 9.73914 11.4785C9.73914 12.3198 9.1416 13.0215 8.34778 13.1831L8.34778 20.8701L16 9.73975L14.3291 8.34668Z" fill="#A3A3A3" fill-opacity="1.000000" fill-rule="evenodd"/>
</svg>
