<svg width="16.000000" height="23.000000" viewBox="0 0 16 23" fill="none" xmlns="http://www.w3.org/2000/svg" xmlns:xlink="http://www.w3.org/1999/xlink">
	<desc>
			Created with Pixso.
	</desc>
	<defs/>
	<path id="Vector" d="M13.999 0L1.99902 0C0.89502 0 0 0.858887 0 1.9165L0 21.0835C0 22.1411 0.89502 23 1.99902 23L13.999 23C15.104 23 16 22.1411 16 21.0835L16 1.9165C16 0.858887 15.104 0 13.999 0ZM5 0.958496L10 0.958496L10.062 1.9165L5 1.9165L5 0.958496ZM7.979 21.5625C7.427 21.5625 6.979 21.1343 6.979 20.604C6.979 20.0742 7.427 19.646 7.979 19.646C8.53198 19.646 8.979 20.0742 8.979 20.604C8.979 21.1343 8.53101 21.5625 7.979 21.5625ZM13.999 18.2085L1.99902 18.2085L2.02002 2.875L13.999 2.875L13.999 18.2085Z" fill="#A3A3A3" fill-opacity="1.000000" fill-rule="evenodd"/>
</svg>
