<svg width="25.000000" height="25.000000" viewBox="0 0 25 25" fill="none" xmlns="http://www.w3.org/2000/svg" xmlns:xlink="http://www.w3.org/1999/xlink">
	<desc>
			Created with Pixso.
	</desc>
	<defs/>
	<path id="Vector" d="M16.4551 10.5752C16.5234 11.2451 16.5625 11.8936 16.5625 12.5C16.5625 13.6362 16.4253 14.9185 16.2153 16.2153C14.9185 16.4253 13.6357 16.5625 12.5 16.5625C11.3694 16.5625 10.0872 16.4258 8.78467 16.2148C8.57471 14.9185 8.4375 13.6357 8.4375 12.5C8.4375 11.8936 8.47656 11.2451 8.54517 10.5752C9.91211 10.7939 11.2756 10.9375 12.5 10.9375C13.7246 10.9375 15.0881 10.7939 16.4551 10.5752Z" fill="#A3A3A3" fill-opacity="1.000000" fill-rule="evenodd"/>
	<path id="Vector" d="M18.3037 10.2373C18.3882 11.0215 18.4375 11.7847 18.4375 12.5C18.4375 13.5439 18.333 14.6895 18.1665 15.8516C20.5269 15.3594 22.7083 14.73 23.877 14.3716C24.2546 14.2559 24.4031 14.21 24.6021 14.1304C24.7017 14.0908 24.7927 14.0503 24.9116 13.9932C24.97 13.5039 25 13.0054 25 12.5C25 11.1646 24.7905 9.87744 24.4026 8.6709L24.3015 8.70264C23.0796 9.07422 20.7917 9.73145 18.3037 10.2373Z" fill="#A3A3A3" fill-opacity="1.000000" fill-rule="evenodd"/>
	<path id="Vector" d="M23.6926 6.92773C22.4641 7.2998 20.3323 7.90479 18.0476 8.37598C17.5212 5.17725 16.5989 1.9873 16.155 0.54248C19.4551 1.5498 22.1753 3.88623 23.6926 6.92773Z" fill="#A3A3A3" fill-opacity="1.000000" fill-rule="evenodd"/>
	<path id="Vector" d="M16.2043 8.7168C14.9109 8.92578 13.6323 9.0625 12.5 9.0625C11.3674 9.0625 10.0889 8.92578 8.79565 8.7168C9.29126 5.69043 10.1758 2.59912 10.6282 1.12305C10.7439 0.745117 10.79 0.597168 10.8696 0.397949C10.9094 0.29834 10.95 0.207031 11.0066 0.0883789C11.4963 0.0297852 11.9946 0 12.5 0C13.0278 0 13.5479 0.0327148 14.0586 0.0961914C14.0693 0.137695 14.0793 0.174805 14.0894 0.209961C14.1187 0.313477 14.1643 0.458984 14.2415 0.703613L14.2495 0.729492C14.635 1.95508 15.657 5.37402 16.2043 8.7168Z" fill="#A3A3A3" fill-opacity="1.000000" fill-rule="evenodd"/>
	<path id="Vector" d="M6.95239 8.37598C7.47632 5.19141 8.39282 2.01855 8.83569 0.573242L8.84521 0.54248C5.54492 1.5498 2.82471 3.88623 1.30762 6.92773C2.53589 7.2998 4.66797 7.90479 6.95239 8.37598Z" fill="#A3A3A3" fill-opacity="1.000000" fill-rule="evenodd"/>
	<path id="Vector" d="M0.597412 8.6709C0.209473 9.87744 0 11.1646 0 12.5C0 13.0225 0.0319824 13.5376 0.0942383 14.0435L0.29126 14.1089L0.292969 14.1094L0.294922 14.1104L0.296143 14.1108C0.359619 14.1318 2.21802 14.7456 4.66528 15.3545C5.35571 15.5259 6.08691 15.6958 6.8335 15.8516C6.66699 14.689 6.5625 13.5439 6.5625 12.5C6.5625 11.7842 6.61157 11.021 6.69604 10.2373C4.20752 9.73145 1.91919 9.07422 0.69751 8.70215L0.688965 8.69971L0.597412 8.6709Z" fill="#A3A3A3" fill-opacity="1.000000" fill-rule="evenodd"/>
	<path id="Vector" d="M12.5 18.4375C13.5437 18.4375 14.689 18.333 15.8513 18.1665C15.3589 20.5269 14.7297 22.7085 14.3716 23.877C14.2559 24.2544 14.2097 24.4028 14.1301 24.6021C14.0903 24.7017 14.0498 24.793 13.9932 24.9116C13.5034 24.9697 13.0051 25 12.5 25C11.9946 25 11.4963 24.9697 11.0066 24.9116C10.95 24.793 10.9094 24.7017 10.8696 24.6021C10.79 24.4028 10.7439 24.2544 10.6282 23.877C10.27 22.7085 9.64087 20.5269 9.14844 18.167C10.3069 18.333 11.4524 18.4375 12.5 18.4375Z" fill="#A3A3A3" fill-opacity="1.000000" fill-rule="evenodd"/>
	<path id="Vector" d="M4.21265 17.1733C2.66504 16.7886 1.34692 16.4014 0.542969 16.1548C1.75317 20.1191 4.88086 23.2466 8.84521 24.457L8.83569 24.4263C8.44897 23.1646 7.70142 20.585 7.16919 17.8311C6.13403 17.6309 5.12769 17.4009 4.21265 17.1733Z" fill="#A3A3A3" fill-opacity="1.000000" fill-rule="evenodd"/>
	<path id="Vector" d="M24.4265 16.1641C23.1646 16.5508 20.5852 17.2988 17.8311 17.8311C17.2991 20.585 16.5513 23.1641 16.1646 24.4263L16.155 24.457C20.1194 23.2466 23.2468 20.1191 24.4573 16.1548L24.4265 16.1641Z" fill="#A3A3A3" fill-opacity="1.000000" fill-rule="evenodd"/>
	<path id="Vector" d="M0.131348 14.0752C0.174561 14.0806 0.209961 14.0869 0.22168 14.0894C0.231934 14.0918 0.247803 14.0962 0.253662 14.0977L0.266602 14.1016L0.273438 14.1035L0.280762 14.106L0.286865 14.1079C0.283447 14.1064 0.214111 14.0894 0.131348 14.0752Z" fill="#A3A3A3" fill-opacity="1.000000" fill-rule="evenodd"/>
</svg>
