<svg width="23.000000" height="23.000000" viewBox="0 0 23 23" fill="none" xmlns="http://www.w3.org/2000/svg" xmlns:xlink="http://www.w3.org/1999/xlink">
	<desc>
			Created with Pixso.
	</desc>
	<defs/>
	<path id="rect1084" d="M22.3127 4.00439L17.6255 8.69189L14.3071 5.37354L18.9929 0.6875C17.6809 0.0605469 16.207 -0.144531 14.7739 0.100586C13.3406 0.345215 12.0183 1.02832 10.9888 2.05469C10.1169 2.92871 9.49023 4.0166 9.17163 5.20898C8.85278 6.40137 8.85303 7.65674 9.17261 8.84912L1.03394 16.9883C-0.344727 18.3672 -0.344727 20.5869 1.03394 21.9658C2.41284 23.3447 4.63281 23.3447 6.01147 21.9658L14.1516 13.8252C15.3435 14.1445 16.5984 14.145 17.7903 13.8267C18.9824 13.5078 20.0698 12.8818 20.9436 12.0103C21.9709 10.981 22.6541 9.6582 22.8992 8.22461C23.1445 6.79102 22.9395 5.31641 22.3127 4.00439Z" fill="#A3A3A3" fill-opacity="1.000000" fill-rule="evenodd"/>
</svg>
