<svg width="53.185059" height="60.666992" viewBox="0 0 53.1851 60.667" fill="none" xmlns="http://www.w3.org/2000/svg" xmlns:xlink="http://www.w3.org/1999/xlink">
	<desc>
			Created with Pixso.
	</desc>
	<defs/>
	<path id="Vector" d="M33.1809 1.87598C32.3181 1.87598 31.5339 2.11035 30.8279 2.50098C30.1221 1.01611 28.5535 0 26.7495 0C24.9456 0 23.4553 1.01611 22.7495 2.5791C22.0437 2.18848 21.2593 1.9541 20.3967 1.9541C17.9653 1.9541 15.926 3.98633 15.926 6.40918C15.926 8.83203 17.9653 10.8643 20.3967 10.8643C22.2004 10.8643 23.769 9.84814 24.4751 8.28516C25.1809 8.67578 25.9653 8.91016 26.8279 8.91016C27.6907 8.91016 28.4751 8.67578 29.1809 8.28516C29.8867 9.77002 31.4553 10.8643 33.2593 10.8643C35.6907 10.8643 37.73 8.83203 37.73 6.40918C37.6516 3.9082 35.6123 1.87598 33.1809 1.87598Z" fill="#FFFFFF" fill-opacity="1.000000" fill-rule="nonzero"/>
	<path id="Vector" d="M1.18091 2.57959L5.02393 2.89209C6.20044 2.97021 7.29834 3.51709 8.08276 4.37695L11.9258 8.44141C12.5535 9.14502 12.2397 10.2393 11.377 10.4736L10.4358 10.708C8.63184 11.1772 6.74951 10.708 5.41602 9.37939L0.318115 4.29883C-0.387939 3.67383 0.161133 2.50146 1.18091 2.57959Z" fill="#FFFFFF" fill-opacity="1.000000" fill-rule="nonzero"/>
	<path id="Vector" d="M52.0044 2.57959L48.1611 2.89209C46.9846 2.97021 45.8867 3.51709 45.1023 4.37695L41.2593 8.44141C40.6318 9.14502 40.9456 10.2393 41.8083 10.4736L42.7495 10.708C44.5532 11.1772 46.4358 10.708 47.769 9.37939L52.8669 4.2207C53.573 3.67383 53.0239 2.50146 52.0044 2.57959Z" fill="#FFFFFF" fill-opacity="1.000000" fill-rule="nonzero"/>
	<path id="Vector" d="M43.8477 16.4917C42.1221 15.0068 39.4556 15.9448 39.0632 18.1333L37.4946 27.356C36.8672 31.0293 33.1025 33.7651 28.4751 34.2339L28.4751 28.9189L30.2791 27.9814C31.1416 27.5122 31.4556 26.3398 30.7495 25.48C30.2791 24.9331 29.4163 24.7769 28.7888 25.1675L27.926 25.6362C27.2986 25.9492 26.5142 25.9492 25.8083 25.6362L24.9456 25.1675C24.3181 24.9331 23.5339 25.0112 22.9849 25.5581C22.2791 26.418 22.5928 27.5903 23.4556 28.0596L25.2593 28.9971L25.2593 34.2339C20.8672 33.6089 17.3379 30.873 16.7888 27.356L15.1416 17.6641C14.7495 15.4756 12.1614 14.5376 10.4358 15.9448C4.71045 20.9468 1.10254 28.4502 1.573 36.7354C2.12207 46.896 8.78882 55.4155 17.8083 58.9326L17.8083 53.1489C17.8083 52.2891 18.5142 51.5854 19.377 51.5854C20.2397 51.5854 20.9456 52.2891 20.9456 53.1489L20.9456 59.9487C22.5142 60.3394 24.1614 60.5737 25.8867 60.6523C28.3967 60.7305 30.8279 60.4956 33.1025 59.8706L33.1025 53.1489C33.1025 52.2891 33.8083 51.5854 34.6711 51.5854C35.5339 51.5854 36.2397 52.2891 36.2397 53.1489L36.2397 58.8545C45.573 55.1025 52.2397 46.0361 52.2397 35.3281C52.3181 27.9028 49.0242 21.1812 43.8477 16.4917Z" fill="#FFFFFF" fill-opacity="1.000000" fill-rule="nonzero"/>
</svg>
