<svg width="180.000000" height="60.652344" viewBox="0 0 180 60.6523" fill="none" xmlns="http://www.w3.org/2000/svg" xmlns:xlink="http://www.w3.org/1999/xlink">
	<desc>
			Created with Pixso.
	</desc>
	<defs>
		<clipPath id="clip4_332">
			<rect width="180.000000" height="60.652172" fill="white" fill-opacity="0"/>
		</clipPath>
	</defs>
	<rect width="180.000000" height="60.652172" fill="#FFFFFF" fill-opacity="0"/>
	<g clip-path="url(#clip4_332)">
		<path d="M33.1765 1.87598C32.3137 1.87598 31.5295 2.11035 30.8235 2.50098C30.1177 1.01611 28.5491 0 26.7451 0C24.9412 0 23.4509 1.01611 22.7451 2.5791C22.0393 2.18848 21.2549 1.9541 20.3923 1.9541C17.9609 1.9541 15.9216 3.98633 15.9216 6.40918C15.9216 8.83203 17.9609 10.8643 20.3923 10.8643C22.196 10.8643 23.7646 9.84814 24.4707 8.28516C25.1765 8.67578 25.9609 8.91016 26.8235 8.91016C27.6863 8.91016 28.4707 8.67578 29.1765 8.28516C29.8823 9.77002 31.4509 10.8643 33.2549 10.8643C35.6863 10.8643 37.7256 8.83203 37.7256 6.40918C37.6472 3.9082 35.6079 1.87598 33.1765 1.87598Z" fill="#FFFFFF" fill-opacity="1.000000" fill-rule="nonzero"/>
		<path d="M1.17651 2.57959L5.01953 2.89209C6.19604 2.97021 7.29395 3.51709 8.07837 4.37695L11.9214 8.44141C12.5491 9.14502 12.2354 10.2393 11.3726 10.4736L10.4314 10.708C8.62744 11.1772 6.74512 10.708 5.41162 9.37939L0.313721 4.29883C-0.392334 3.67383 0.156738 2.50146 1.17651 2.57959Z" fill="#FFFFFF" fill-opacity="1.000000" fill-rule="nonzero"/>
		<path d="M52 2.57959L48.1567 2.89209C46.9802 2.97021 45.8823 3.51709 45.0979 4.37695L41.2549 8.44141C40.6274 9.14502 40.9412 10.2393 41.804 10.4736L42.7451 10.708C44.5488 11.1772 46.4314 10.708 47.7646 9.37939L52.8625 4.2207C53.5686 3.67383 53.0195 2.50146 52 2.57959Z" fill="#FFFFFF" fill-opacity="1.000000" fill-rule="nonzero"/>
		<path d="M43.8433 16.4917C42.1177 15.0068 39.4512 15.9448 39.0588 18.1333L37.4902 27.356C36.8628 31.0293 33.0981 33.7651 28.4707 34.2339L28.4707 28.9189L30.2747 27.9814C31.1372 27.5122 31.4512 26.3398 30.7451 25.48C30.2747 24.9331 29.4119 24.7769 28.7844 25.1675L27.9216 25.6362C27.2942 25.9492 26.5098 25.9492 25.804 25.6362L24.9412 25.1675C24.3137 24.9331 23.5295 25.0112 22.9805 25.5581C22.2747 26.418 22.5884 27.5903 23.4512 28.0596L25.2549 28.9971L25.2549 34.2339C20.8628 33.6089 17.3335 30.873 16.7844 27.356L15.1372 17.6641C14.7451 15.4756 12.157 14.5376 10.4314 15.9448C4.70605 20.9468 1.09814 28.4502 1.5686 36.7354C2.11768 46.896 8.78442 55.4155 17.804 58.9326L17.804 53.1489C17.804 52.2891 18.5098 51.5854 19.3726 51.5854C20.2354 51.5854 20.9412 52.2891 20.9412 53.1489L20.9412 59.9487C22.5098 60.3394 24.157 60.5737 25.8823 60.6523C28.3923 60.7305 30.8235 60.4956 33.0981 59.8706L33.0981 53.1489C33.0981 52.2891 33.804 51.5854 34.6667 51.5854C35.5295 51.5854 36.2354 52.2891 36.2354 53.1489L36.2354 58.8545C45.5686 55.1025 52.2354 46.0361 52.2354 35.3281C52.3137 27.9028 49.0198 21.1812 43.8433 16.4917Z" fill="#FFFFFF" fill-opacity="1.000000" fill-rule="nonzero"/>
		<path d="M83.6079 24.3081C83.6079 28.3721 80.3137 30.7173 76.2354 30.7173L67.6079 30.7173L67.6079 9.37939L75.4509 9.37939C79.6863 9.37939 82.8235 11.4897 82.8235 15.5542C82.8235 17.2734 82.196 18.6021 81.1765 19.6182C82.5884 20.6343 83.6079 22.1978 83.6079 24.3081ZM72.0786 13.1309L72.0786 18.0552L75.0588 18.0552C77.0981 18.0552 78.5884 17.5078 78.5884 15.5542C78.5884 13.6001 77.0981 13.1309 75.0588 13.1309L72.0786 13.1309ZM79.3726 24.23C79.3726 22.4321 77.9609 21.5723 75.8433 21.5723L72 21.5723L72 26.8091L75.8433 26.8091C77.9609 26.8091 79.3726 26.1055 79.3726 24.23Z" fill="#FFFFFF" fill-opacity="1.000000" fill-rule="nonzero"/>
		<path d="M89.5686 9.37939L94.0393 9.37939L94.0393 26.8872L103.529 26.8872L103.529 30.7954L89.5686 30.7954L89.5686 9.37939Z" fill="#FFFFFF" fill-opacity="1.000000" fill-rule="nonzero"/>
		<path d="M123.137 27.356L114.902 27.356L113.255 30.7949L108.235 30.7949L118.98 9.14453L129.726 30.7949L124.784 30.7949L123.137 27.356ZM121.412 23.7603L118.98 18.6802L116.549 23.7603L121.412 23.7603Z" fill="#FFFFFF" fill-opacity="1.000000" fill-rule="nonzero"/>
		<path d="M144.47 31.0293C138.118 31.0293 133.333 26.1055 133.333 20.0088C133.333 13.9126 138.118 8.98828 144.47 8.98828C149.49 8.98828 153.569 12.1929 154.98 16.5698L150.196 16.5698C149.02 14.6157 146.902 13.2871 144.392 13.2871C140.549 13.2871 137.647 16.3354 137.647 20.0088C137.647 23.6821 140.47 26.7305 144.392 26.7305C146.902 26.7305 149.02 25.48 150.118 23.5259L154.902 23.5259C153.569 27.9028 149.49 31.0293 144.47 31.0293Z" fill="#FFFFFF" fill-opacity="1.000000" fill-rule="nonzero"/>
		<path d="M174.118 30.7173L165.255 21.2598L165.255 30.7173L160.784 30.7173L160.784 9.37939L165.255 9.37939L165.255 18.8369L173.804 9.37939L179.686 9.37939L169.647 20.0093L180 30.7954L174.118 30.7954L174.118 30.7173Z" fill="#FFFFFF" fill-opacity="1.000000" fill-rule="nonzero"/>
		<path d="M73.804 51.5859C70.2747 51.5859 67.6079 48.772 67.6079 45.2549C67.6079 41.7378 70.2747 38.9238 73.804 38.9238C76.6274 38.9238 78.9021 40.7217 79.6863 43.3008L77.0198 43.3008C76.3923 42.2065 75.2158 41.4248 73.804 41.4248C71.6079 41.4248 70.0393 43.1445 70.0393 45.2549C70.0393 47.3652 71.6079 49.0845 73.804 49.0845C75.2158 49.0845 76.3923 48.3813 77.0198 47.209L79.6863 47.209C78.9021 49.7881 76.6274 51.5859 73.804 51.5859Z" fill="#FFFFFF" fill-opacity="1.000000" fill-rule="nonzero"/>
		<path d="M82.0393 48.4595L84.3137 47.7559C84.7844 48.772 85.5686 49.3188 86.9805 49.3188C88.3923 49.3188 89.0198 48.6157 89.0198 47.9121C89.0198 46.896 88.0786 46.7397 86.1963 46.271C84.3923 45.8799 82.4314 45.0205 82.4314 42.7534C82.4314 40.4087 84.5491 39.002 86.7451 39.002C89.0198 39.002 90.5884 40.1743 91.2158 42.0503L88.9412 42.7534C88.7061 41.894 87.9216 41.3467 86.8237 41.3467C85.5686 41.3467 84.9412 42.0503 84.9412 42.7534C84.9412 43.457 85.5686 43.8477 87.4512 44.3169C89.4902 44.8638 91.5295 45.333 91.5295 47.9121C91.5295 50.2568 89.4902 51.6641 86.9021 51.6641C84.3923 51.5859 82.6667 50.2568 82.0393 48.4595Z" fill="#FFFFFF" fill-opacity="1.000000" fill-rule="nonzero"/>
		<path d="M93.7256 48.4595L96 47.7559C96.4707 48.772 97.2549 49.3188 98.6667 49.3188C100.079 49.3188 100.706 48.6157 100.706 47.9121C100.706 46.896 99.7649 46.7397 97.8826 46.271C96.0786 45.8799 94.1177 45.0205 94.1177 42.7534C94.1177 40.4087 96.2354 39.002 98.4314 39.002C100.706 39.002 102.275 40.1743 102.902 42.0503L100.627 42.7534C100.392 41.894 99.6079 41.3467 98.51 41.3467C97.2549 41.3467 96.6274 42.0503 96.6274 42.7534C96.6274 43.457 97.2549 43.8477 99.1375 44.3169C101.177 44.8638 103.216 45.333 103.216 47.9121C103.216 50.2568 101.177 51.6641 98.5884 51.6641C96.157 51.5859 94.4314 50.2568 93.7256 48.4595Z" fill="#FFFFFF" fill-opacity="1.000000" fill-rule="nonzero"/>
		<path d="M111.529 48.4595L113.725 47.6777C114.196 48.6938 114.98 49.2407 116.392 49.2407C117.804 49.2407 118.431 48.5376 118.431 47.834C118.431 46.8179 117.49 46.6616 115.608 46.1929C113.804 45.8018 111.843 44.9424 111.843 42.6753C111.843 40.3306 113.961 38.9238 116.157 38.9238C118.431 38.9238 120 40.0962 120.627 41.9722L118.353 42.6753C118.117 41.8159 117.333 41.2686 116.235 41.2686C114.98 41.2686 114.353 41.9722 114.353 42.6753C114.353 43.3789 114.98 43.7695 116.863 44.2388C118.902 44.7856 120.941 45.2549 120.941 47.834C120.941 50.1787 118.902 51.5859 116.314 51.5859C113.882 51.5859 112.157 50.2568 111.529 48.4595Z" fill="#FFFFFF" fill-opacity="1.000000" fill-rule="nonzero"/>
		<path d="M132.706 41.4248L129.255 41.4248L129.255 51.4292L126.745 51.4292L126.745 41.4248L123.294 41.4248L123.294 39.1582L132.627 39.1582L132.627 41.4248L132.706 41.4248Z" fill="#FFFFFF" fill-opacity="1.000000" fill-rule="nonzero"/>
		<path d="M145.333 39.1582L145.333 46.6616C145.333 49.71 142.98 51.6636 140.314 51.6636C137.569 51.6636 135.294 49.71 135.294 46.6616L135.294 39.1582L137.804 39.1582L137.804 46.6616C137.804 48.1465 138.745 49.3188 140.392 49.3188C142.039 49.3188 142.98 48.1465 142.902 46.6616L142.902 39.1582L145.333 39.1582Z" fill="#FFFFFF" fill-opacity="1.000000" fill-rule="nonzero"/>
		<path d="M159.137 45.2549C159.137 49.2407 156.157 51.4292 152.863 51.4292L151.137 51.4292L148.627 51.4292L148.627 39.1582L151.137 39.1582L152.863 39.1582C156.157 39.1582 159.137 41.2686 159.137 45.2549ZM156.706 45.2549C156.706 42.6753 154.902 41.3467 152.863 41.3467L151.137 41.3467L151.137 49.0845L152.863 49.0845C154.902 49.1626 156.706 47.834 156.706 45.2549Z" fill="#FFFFFF" fill-opacity="1.000000" fill-rule="nonzero"/>
		<path d="M164.627 39.1582L164.627 51.4292L162.118 51.4292L162.118 39.1582L164.627 39.1582Z" fill="#FFFFFF" fill-opacity="1.000000" fill-rule="nonzero"/>
		<path d="M167.608 45.2549C167.608 41.7378 170.275 38.9238 173.804 38.9238C177.333 38.9238 180 41.7378 180 45.2549C180 48.772 177.333 51.5859 173.804 51.5859C170.275 51.5859 167.608 48.772 167.608 45.2549ZM177.569 45.2549C177.569 43.1445 175.922 41.4248 173.804 41.4248C171.608 41.4248 169.961 43.1445 169.961 45.2549C169.961 47.3652 171.608 49.0845 173.804 49.0845C176 49.0845 177.569 47.3652 177.569 45.2549Z" fill="#FFFFFF" fill-opacity="1.000000" fill-rule="nonzero"/>
	</g>
</svg>
