<svg width="630.000000" height="622.753418" viewBox="0 0 630 622.753" fill="none" xmlns="http://www.w3.org/2000/svg" xmlns:xlink="http://www.w3.org/1999/xlink">
	<desc>
			Created with Pixso.
	</desc>
	<defs/>
	<rect id="Rectangle 75" y="311.156250" rx="10.000000" width="210.084641" height="210.741409" transform="rotate(-45 0.000000 311.156250)" fill="#226DFF" fill-opacity="1.000000"/>
	<path id="PHP / Icon" d="M125.872 297.797C122.931 294.39 118.251 292.686 111.835 292.686L90.5107 292.686L80.6168 344.207L91.7057 344.207L94.3363 330.509L103.835 330.509C108.026 330.509 111.474 330.064 114.181 329.172C116.888 328.282 119.348 326.788 121.562 324.69C123.421 322.961 124.923 321.055 126.075 318.969C127.225 316.885 128.042 314.585 128.526 312.07C129.699 305.962 128.813 301.206 125.872 297.797ZM117.063 311.283C116.297 315.27 114.821 318.116 112.633 319.821C110.444 321.526 107.114 322.379 102.643 322.379L95.8972 322.379L100.038 300.816L107.636 300.816C111.849 300.816 114.657 301.603 116.061 303.177C117.463 304.751 117.798 307.453 117.063 311.283ZM169.712 306.534L165.109 330.509L153.932 330.509L158.309 307.713C158.806 305.12 158.624 303.351 157.758 302.408C156.894 301.465 155.053 300.993 152.238 300.993L143.446 300.993L137.778 330.509L126.776 330.509L136.67 278.988L147.672 278.988L145.042 292.686L154.844 292.686C161.01 292.686 165.264 293.775 167.605 295.952C169.947 298.129 170.648 301.657 169.712 306.534ZM212.427 297.797C209.485 294.39 204.806 292.686 198.391 292.686L177.067 292.686L167.173 344.207L178.261 344.207L180.892 330.509L190.391 330.509C194.582 330.509 198.028 330.064 200.736 329.172C203.442 328.282 205.903 326.788 208.117 324.69C209.975 322.961 211.479 321.055 212.63 318.969C213.78 316.885 214.597 314.585 215.08 312.07C216.254 305.962 215.369 301.206 212.427 297.797ZM203.619 311.283C202.853 315.27 201.376 318.116 199.187 319.821C196.999 321.526 193.668 322.379 189.198 322.379L182.453 322.379L186.594 300.816L194.191 300.816C198.405 300.816 201.212 301.603 202.616 303.177C204.019 304.751 204.353 307.453 203.619 311.283Z" fill="#F0F0F0" fill-opacity="1.000000" fill-rule="nonzero"/>
	<rect id="Rectangle 75" x="332.431274" y="311.156250" rx="10.000000" width="210.084641" height="210.741409" transform="rotate(-45 332.431274 311.156250)" fill="#226DFF" fill-opacity="1.000000"/>
	<path id="Java / Icon" d="M465.787 287.802C464.63 285.263 464.111 282.301 464.995 279.61C465.879 276.859 467.86 274.653 469.84 272.597C475.354 267.126 482.149 263.105 487.542 257.544C490.527 254.491 492.995 250.833 493.848 246.631C494.549 243.548 494.214 240.375 493.575 237.321C496.438 240.556 497.383 245.181 496.56 249.352C495.677 254.037 493.056 258.178 489.979 261.745C487.511 264.617 484.677 267.156 481.722 269.515C478.279 272.265 474.898 275.227 472.735 279.097C470.906 282.24 470.479 286.109 471.729 289.525C473.771 295.389 478.523 299.742 481.113 305.273C478.249 302.764 475.446 300.165 472.825 297.414C470.084 294.512 467.494 291.43 465.787 287.802ZM481.326 283.207C480.808 288.013 483.336 292.547 486.354 296.114C487.815 297.716 489.065 299.681 489.125 301.918C489.187 304.91 487.481 307.692 485.286 309.656C485.805 309.596 486.17 309.142 486.597 308.9C489.887 306.814 493.055 304.185 494.67 300.588C495.737 298.14 495.493 295.238 494.092 292.97C492.446 290.31 490.283 287.952 489.004 285.051C488.302 283.418 488.059 281.515 488.638 279.792C489.4 277.464 491.045 275.56 492.782 273.897C497.565 269.394 503.354 266.188 508.899 262.683C501.891 264.677 494.975 267.428 489.065 271.751C485.317 274.532 481.844 278.401 481.326 283.207ZM514.628 305.938C517.949 306.12 521.208 308.538 521.818 311.863C522.398 314.735 520.996 317.576 519.198 319.752C516.242 323.258 512.251 325.768 508.23 327.914C507.833 328.155 507.498 328.457 507.193 328.79C512.495 327.46 517.796 325.466 522.093 322.05C524.468 320.085 526.571 317.484 527.028 314.371C527.455 311.681 526.328 308.9 524.317 307.117C521.879 304.91 518.437 304.094 515.206 304.518C513.348 304.759 511.307 305.152 510.027 306.694C511.551 306.392 513.043 305.787 514.628 305.938ZM448.482 314.583C452.472 315.641 456.586 315.943 460.668 316.215C464.325 316.457 467.981 316.518 471.668 316.487C481.174 316.337 490.741 315.702 500.064 313.646C500.947 313.435 501.922 313.284 502.715 312.74C504.269 311.742 505.974 310.956 507.651 310.17C500.064 311.379 492.447 312.408 484.769 312.891C477 313.375 469.169 313.677 461.37 313.163C459.146 312.952 456.86 312.83 454.788 311.983C454.3 311.772 453.63 311.35 453.873 310.714C454.331 309.898 455.245 309.505 456.037 309.082C459.389 307.51 463.045 306.634 466.61 305.606C460.485 305.515 454.391 307.056 448.786 309.445C447.537 310.05 446.135 310.533 445.13 311.561C444.733 311.983 444.733 312.71 445.191 313.072C446.105 313.888 447.323 314.25 448.482 314.583ZM497.84 322.896C492.508 323.833 487.145 324.71 481.752 324.982C475.841 325.375 469.93 325.042 464.081 324.438C462.954 324.286 461.826 324.105 460.821 323.592C460.303 323.289 459.785 322.806 459.816 322.17C459.876 321.173 460.729 320.478 461.339 319.752C459.45 320.417 457.561 321.112 455.977 322.353C455.306 322.867 454.636 323.682 454.818 324.589C455.094 325.647 456.129 326.282 457.043 326.765C459.297 327.914 461.826 328.427 464.295 328.881C470.54 329.879 476.908 329.91 483.184 329.485C489.828 328.972 496.438 327.884 502.867 326.009C501.039 325.194 499.302 324.256 497.84 322.896ZM464.355 333.355C462.649 333.839 460.912 334.414 459.511 335.531C458.809 336.075 458.261 337.013 458.597 337.89C459.024 339.008 460.09 339.674 461.094 340.247C463.716 341.668 466.671 342.333 469.565 342.847C476.116 343.874 482.849 343.723 489.37 342.575C493.239 341.849 497.108 340.821 500.703 339.22C498.357 338.252 496.073 337.164 493.879 335.895C490.071 336.56 486.231 337.255 482.331 337.497C477.183 337.89 471.972 337.467 466.823 336.832C465.604 336.56 464.081 336.439 463.258 335.381C462.832 334.503 463.807 333.869 464.355 333.355ZM506.036 352.791C510.301 351.916 514.598 350.917 518.497 348.953C519.715 348.256 521.208 347.5 521.605 346.051C521.818 344.66 520.356 343.935 519.32 343.36C519.96 344.086 520.386 345.144 519.746 345.99C518.679 347.411 516.852 347.955 515.237 348.499C510.18 349.919 504.938 350.494 499.729 351.069C485.927 352.308 472.033 352.61 458.231 351.462C453.6 350.978 448.877 350.464 444.459 348.832C443.759 348.529 442.693 348.227 442.693 347.29C442.966 346.475 443.759 346.02 444.459 345.627C447.628 344.025 451.162 343.148 454.696 342.937C453.661 342.332 452.442 342.272 451.254 342.302C448.298 342.393 445.404 343.148 442.601 344.086C440.194 344.962 437.726 345.93 435.806 347.684C435.045 348.348 434.345 349.617 435.136 350.524C436.355 351.825 438.244 352.156 439.919 352.549C449.303 354.152 458.809 355.058 468.316 355.391C480.93 355.754 493.635 355.21 506.036 352.791ZM518.528 354.424C512.799 356.237 506.859 357.235 500.947 358.051C490.741 359.32 480.442 359.713 470.174 359.412C463.928 359.17 457.683 358.747 451.528 357.718C452.96 358.686 454.727 358.988 456.373 359.441C463.29 360.893 470.388 361.165 477.427 361.376C487.754 361.558 498.083 361.165 508.26 359.562C513.074 358.717 517.919 357.689 522.244 355.452C524.5 354.273 526.785 352.458 527.18 349.829C524.895 352.247 521.605 353.366 518.528 354.424Z" fill="#F0F0F0" fill-opacity="1.000000" fill-rule="nonzero"/>
	<rect id="Rectangle 75" x="166.204102" y="148.552246" rx="10.000000" width="210.084641" height="210.741409" transform="rotate(-45 166.204102 148.552246)" fill="#226DFF" fill-opacity="1.000000"/>
	<path id="Photoshop / Icon" d="M267.213 109.892C272.361 108.956 279.498 108.255 289.206 108.255C299.736 108.255 307.457 110.475 312.488 114.68C317.168 118.537 320.21 124.728 320.21 132.089C320.21 139.566 317.871 145.759 313.425 149.965C307.693 155.69 298.684 158.377 288.506 158.377C285.815 158.377 283.358 158.261 281.485 157.909L281.485 187.586L267.213 187.586L267.213 109.892ZM281.485 146.578C283.241 147.046 285.582 147.161 288.506 147.161C299.269 147.161 305.82 141.905 305.82 132.673C305.82 123.912 299.736 119.237 289.791 119.237C285.815 119.237 283.008 119.588 281.485 119.939L281.485 146.578ZM323.363 147.278C323.363 137.23 331.67 129.401 344.891 129.401C351.207 129.401 356.707 131.038 359.981 132.79L357.174 142.955C354.717 141.552 350.153 139.684 345.124 139.684C339.978 139.684 337.169 142.138 337.169 145.641C337.169 149.265 339.859 151.017 347.113 153.587C357.408 157.326 362.203 162.584 362.323 170.995C362.323 181.276 354.25 188.872 339.156 188.872C332.254 188.872 326.053 187.119 321.844 184.782L324.65 174.384C327.926 176.372 334.127 178.472 339.275 178.472C345.593 178.472 348.398 175.902 348.398 172.165C348.398 168.309 346.06 166.321 339.042 163.867C327.926 160.013 323.247 153.936 323.363 147.278Z" fill="#F0F0F0" fill-opacity="1.000000" fill-rule="evenodd"/>
	<rect id="Rectangle 75" x="166.204102" y="473.736816" rx="10.000000" width="210.084641" height="210.741409" transform="rotate(-45 166.204102 473.736816)" fill="#226DFF" fill-opacity="1.000000"/>
	<path id="Figma / Icon" d="M294.368 457.822C285.63 457.822 278.548 464.956 278.548 473.758C278.548 482.56 285.631 489.695 294.368 489.695L310.188 489.695L310.188 474.079C310.186 473.973 310.186 473.865 310.186 473.758C310.186 473.651 310.186 473.544 310.188 473.437L310.188 457.822L294.368 457.822ZM310.188 448.568L294.368 448.568C285.631 448.568 278.548 441.433 278.548 432.631C278.548 423.829 285.631 416.694 294.368 416.694L310.188 416.694L310.188 448.568ZM319.373 416.694L319.373 448.568L335.189 448.567C343.926 448.567 351.011 441.433 351.011 432.631C351.011 423.829 343.929 416.694 335.191 416.694L319.373 416.694ZM335.19 457.821C326.538 457.822 319.509 464.819 319.373 473.502L319.373 474.013C319.509 482.698 326.539 489.695 335.191 489.695C343.929 489.695 351.011 482.56 351.011 473.758C351.011 464.956 343.927 457.821 335.19 457.821ZM294.368 498.949C285.631 498.949 278.547 506.086 278.547 514.888C278.547 523.69 285.63 530.826 294.367 530.826C303.104 530.826 310.187 523.69 310.187 514.888L310.188 498.949L294.368 498.949Z" fill="#F0F0F0" fill-opacity="1.000000" fill-rule="evenodd"/>
</svg>
