<svg width="819.000000" height="968.000000" viewBox="0 0 819 968" fill="none" xmlns="http://www.w3.org/2000/svg" xmlns:xlink="http://www.w3.org/1999/xlink">
	<desc>
			Created with Pixso.
	</desc>
	<defs>
		<linearGradient id="paint_linear_105_1072_0" x1="344.064423" y1="252.000137" x2="515.041260" y2="700.000244" gradientUnits="userSpaceOnUse">
			<stop stop-color="#D9D9D9"/>
			<stop offset="1.000000" stop-color="#D9D9D9" stop-opacity="0.000000"/>
		</linearGradient>
	</defs>
	<mask id="mask105_1072" mask-type="alpha" maskUnits="userSpaceOnUse" x="0.000000" y="0.000000" width="819.000000" height="968.000000">
		<rect id="Rectangle 76" width="819.000000" height="968.000000" fill="url(#paint_linear_105_1072_0)" fill-opacity="1.000000"/>
	</mask>
	<g mask="url(#mask105_1072)">
		<path id="Vector" d="M384.549 280.114C199.703 245.959 31.0662 319.954 7.8877 445.386C-15.291 570.812 115.765 700.187 300.609 734.347L301.024 734.419C319.219 737.764 336.048 723.568 335.941 705.067C335.887 696.067 336.876 686.9 339.004 677.709C352.701 618.578 410.823 579.281 470.812 588.542C514.346 595.265 548.275 624.936 562.641 663.083C569.734 681.909 593 688.893 608.803 676.446C644.928 648.001 669.434 611.494 677.269 569.082C700.451 443.65 569.392 314.275 384.549 280.114Z" fill="#505262" fill-opacity="1.000000" fill-rule="nonzero"/>
		<path id="Vector" d="M388.299 259.822C203.453 225.66 34.8162 299.655 11.6377 425.087C-11.5393 550.513 119.517 679.888 304.362 714.042L304.773 714.12C322.97 717.466 339.799 703.269 339.69 684.768C339.637 675.768 340.626 666.601 342.756 657.41C356.453 598.28 414.575 558.982 474.561 568.242C518.094 574.966 552.024 604.636 566.395 642.785C573.483 661.61 596.749 668.594 612.558 656.148C648.677 627.702 673.182 591.194 681.023 548.783C704.2 423.351 573.146 293.977 388.299 259.822Z" fill="#80848B" fill-opacity="1.000000" fill-rule="nonzero"/>
		<path id="Vector" d="M237.026 594.16C232.907 616.446 211.506 631.167 189.224 627.052C166.94 622.936 152.216 601.533 156.335 579.253C160.453 556.966 181.853 542.245 204.135 546.36C226.418 550.477 241.143 571.879 237.026 594.16ZM147.253 491.866C143.136 514.147 121.735 528.875 99.4512 524.758C77.1694 520.643 62.4451 499.24 66.5618 476.959C70.6804 454.673 92.0801 439.951 114.364 444.067C136.645 448.183 151.372 469.586 147.253 491.866ZM211.872 367.966C207.756 390.247 186.354 404.975 164.072 400.852C141.791 396.737 127.063 375.339 131.183 353.053C135.3 330.772 156.701 316.045 178.983 320.167C201.265 324.283 215.991 345.68 211.872 367.966ZM363.998 330.097C359.879 352.377 338.478 367.104 316.198 362.983C293.914 358.867 279.189 337.464 283.306 315.184C287.423 292.903 308.826 278.176 331.108 282.292C353.39 286.414 368.115 307.816 363.998 330.097ZM514.944 369.633C510.829 391.914 489.425 406.641 467.144 402.525C444.864 398.404 430.135 377.006 434.253 354.72C438.37 332.439 459.774 317.712 482.054 321.834C504.338 325.95 519.06 347.352 514.944 369.633ZM624.882 473.394C620.767 495.675 599.363 510.402 577.082 506.286C554.795 502.169 540.074 480.768 544.19 458.486C548.307 436.2 569.709 421.479 591.99 425.594C614.277 429.711 628.998 451.113 624.882 473.394Z" fill="#226DFF" fill-opacity="1.000000" fill-rule="nonzero"/>
		<path id="Vector" d="" fill="#585C65" fill-opacity="1.000000" fill-rule="nonzero"/>
		<path id="Vector" d="M303.186 713.825C303.23 713.835 303.253 713.841 303.3 713.847C303.264 713.838 303.223 713.834 303.186 713.825ZM303.904 713.959C304.062 713.992 304.205 714.015 304.363 714.042C304.21 714.016 304.055 713.99 303.904 713.959ZM343.031 656.25L343.053 656.155C343.045 656.185 343.04 656.215 343.031 656.25ZM343.781 653.318C343.79 653.295 343.797 653.265 343.803 653.242C343.796 653.271 343.791 653.289 343.781 653.318ZM343.824 653.166C343.833 653.13 343.837 653.112 343.848 653.078C343.838 653.106 343.831 653.136 343.824 653.166ZM343.958 652.673C343.971 652.632 343.983 652.585 343.996 652.544C343.981 652.591 343.973 652.626 343.958 652.673ZM344.021 652.45C344.029 652.421 344.033 652.403 344.041 652.38C344.037 652.398 344.027 652.427 344.021 652.45ZM344.156 651.964C344.165 651.941 344.169 651.923 344.179 651.895C344.17 651.917 344.163 651.947 344.156 651.964ZM344.404 651.105C344.414 651.076 344.42 651.052 344.429 651.023C344.421 651.046 344.412 651.082 344.404 651.105ZM344.451 650.948C344.46 650.918 344.466 650.895 344.475 650.866C344.467 650.889 344.46 650.918 344.451 650.948ZM344.497 650.79C344.505 650.767 344.514 650.731 344.522 650.708C344.512 650.737 344.506 650.761 344.497 650.79ZM344.755 649.927C344.764 649.898 344.772 649.869 344.78 649.846C344.77 649.875 344.764 649.898 344.755 649.927ZM344.899 649.456C344.91 649.421 344.917 649.404 344.925 649.368C344.918 649.398 344.908 649.427 344.899 649.456ZM345.168 648.596C345.178 648.567 345.186 648.537 345.195 648.508C345.188 648.538 345.177 648.573 345.168 648.596ZM345.267 648.288C345.278 648.253 345.286 648.23 345.295 648.195C345.288 648.225 345.276 648.259 345.267 648.288ZM345.442 647.743C345.455 647.708 345.462 647.679 345.476 647.645C345.466 647.678 345.454 647.71 345.442 647.743ZM345.493 647.586L345.523 647.494C345.512 647.524 345.503 647.556 345.493 647.586ZM345.597 647.274C345.603 647.25 345.616 647.216 345.622 647.193C345.612 647.222 345.606 647.245 345.597 647.274ZM345.65 647.112L345.676 647.037C345.667 647.062 345.658 647.087 345.65 647.112ZM345.829 646.574C345.838 646.551 345.842 646.533 345.849 646.516C345.844 646.534 345.836 646.557 345.829 646.574ZM345.936 646.263C345.942 646.239 345.954 646.21 345.962 646.188C345.95 646.216 345.944 646.239 345.936 646.263ZM345.986 646.112C345.998 646.083 346.006 646.061 346.015 646.032C346.007 646.055 345.998 646.083 345.986 646.112ZM346.091 645.806L346.122 645.72C346.113 645.749 346.101 645.777 346.091 645.806ZM346.142 645.662C346.165 645.599 346.186 645.535 346.208 645.472C346.187 645.529 346.165 645.599 346.142 645.662ZM346.28 645.264C346.29 645.242 346.299 645.213 346.309 645.184C346.301 645.207 346.29 645.242 346.28 645.264ZM346.334 645.115C346.344 645.086 346.354 645.051 346.366 645.023C346.353 645.057 346.344 645.086 346.334 645.115ZM346.385 644.965L346.418 644.873C346.407 644.908 346.399 644.931 346.385 644.965ZM346.497 644.654C346.507 644.625 346.516 644.597 346.528 644.568C346.519 644.597 346.507 644.625 346.497 644.654ZM346.688 644.12C346.699 644.097 346.71 644.062 346.718 644.039C346.708 644.068 346.701 644.091 346.688 644.12ZM346.748 643.959C346.756 643.936 346.766 643.907 346.776 643.885C346.766 643.909 346.756 643.934 346.748 643.959ZM346.802 643.81C346.812 643.781 346.82 643.758 346.832 643.729L346.802 643.81ZM346.856 643.66C346.868 643.632 346.877 643.603 346.887 643.574C346.879 643.597 346.868 643.632 346.856 643.66ZM346.911 643.517C346.923 643.482 346.936 643.448 346.946 643.419C346.935 643.454 346.923 643.482 346.911 643.517ZM347.283 642.52C347.293 642.491 347.307 642.457 347.319 642.429C347.305 642.463 347.296 642.492 347.283 642.52ZM347.387 642.251C347.417 642.171 347.45 642.085 347.48 642.005C347.45 642.085 347.418 642.165 347.387 642.251ZM347.486 641.988C347.5 641.954 347.512 641.925 347.527 641.885L347.486 641.988ZM347.602 641.691C347.615 641.657 347.625 641.628 347.638 641.594C347.627 641.628 347.615 641.657 347.602 641.691ZM348.17 640.26C348.18 640.231 348.193 640.197 348.205 640.168L348.17 640.26ZM348.443 639.583C348.455 639.554 348.469 639.527 348.483 639.493C348.471 639.521 348.455 639.554 348.443 639.583ZM348.625 639.146C348.641 639.112 348.654 639.078 348.667 639.043C348.654 639.078 348.64 639.112 348.625 639.146ZM348.685 639.004C348.701 638.97 348.715 638.93 348.731 638.896L348.685 639.004ZM348.738 638.879C348.791 638.755 348.841 638.629 348.898 638.5C348.845 638.624 348.788 638.754 348.738 638.879ZM348.91 638.471C348.923 638.437 348.939 638.403 348.953 638.369C348.941 638.397 348.923 638.437 348.91 638.471ZM348.971 638.324C348.987 638.29 349 638.255 349.016 638.222C349.003 638.256 348.987 638.29 348.971 638.324ZM349.099 638.023C349.113 637.989 349.127 637.961 349.139 637.933C349.126 637.963 349.113 637.994 349.099 638.023ZM349.161 637.882C349.177 637.849 349.19 637.814 349.203 637.786C349.189 637.82 349.178 637.843 349.161 637.882ZM349.52 637.057C349.532 637.029 349.543 637.006 349.556 636.972L349.52 637.057ZM349.651 636.758C349.665 636.73 349.676 636.708 349.688 636.679L349.651 636.758ZM349.71 636.628C349.741 636.561 349.772 636.487 349.805 636.414C349.772 636.487 349.743 636.555 349.71 636.628ZM349.882 636.239L349.913 636.178C349.902 636.2 349.891 636.223 349.882 636.239ZM350.215 635.507C350.242 635.452 350.27 635.39 350.297 635.327C350.27 635.39 350.243 635.445 350.215 635.507ZM350.581 634.715C350.595 634.688 350.611 634.654 350.623 634.625C350.609 634.653 350.597 634.682 350.581 634.715ZM350.644 634.581L350.695 634.474C350.677 634.507 350.66 634.547 350.644 634.581ZM350.695 634.474C350.752 634.351 350.814 634.222 350.875 634.093C350.814 634.222 350.754 634.345 350.695 634.474ZM350.958 633.914C350.973 633.886 350.989 633.852 351 633.824C350.987 633.858 350.974 633.88 350.958 633.914ZM351.217 633.376L351.398 633.002C351.337 633.126 351.276 633.251 351.217 633.376ZM351.411 632.98C351.426 632.946 351.443 632.907 351.462 632.874C351.442 632.913 351.427 632.94 351.411 632.98ZM351.944 631.897C351.961 631.864 351.977 631.831 351.993 631.797C351.977 631.831 351.959 631.864 351.944 631.897ZM352.012 631.758C352.031 631.725 352.05 631.686 352.065 631.652L352.012 631.758ZM352.485 630.829C352.505 630.79 352.524 630.751 352.542 630.718L352.485 630.829ZM352.558 630.685L352.613 630.579C352.594 630.618 352.576 630.651 352.558 630.685ZM352.627 630.551C352.647 630.512 352.665 630.479 352.683 630.446C352.666 630.473 352.646 630.519 352.627 630.551ZM352.703 630.407C352.72 630.374 352.74 630.335 352.758 630.302C352.74 630.335 352.718 630.374 352.703 630.407ZM352.767 630.285C352.877 630.068 352.99 629.859 353.103 629.643C352.992 629.853 352.875 630.074 352.767 630.285ZM353.601 628.708C353.623 628.669 353.646 628.625 353.664 628.592C353.644 628.631 353.623 628.67 353.601 628.708ZM353.677 628.57C353.696 628.531 353.718 628.493 353.74 628.454C353.718 628.493 353.698 628.532 353.677 628.57ZM353.75 628.432C353.769 628.398 353.79 628.36 353.81 628.321C353.791 628.358 353.771 628.396 353.75 628.432ZM353.894 628.167C354.01 627.958 354.127 627.742 354.245 627.534C354.125 627.748 354.01 627.958 353.894 628.167ZM354.254 627.517L354.319 627.402C354.298 627.44 354.272 627.484 354.254 627.517ZM354.326 627.385C354.348 627.346 354.368 627.313 354.391 627.27L354.326 627.385ZM354.403 627.253C354.544 627 354.687 626.742 354.828 626.495C354.685 626.748 354.545 626.995 354.403 627.253ZM354.841 626.473C354.863 626.435 354.881 626.401 354.906 626.358L354.841 626.473ZM354.914 626.347C354.937 626.303 354.958 626.27 354.98 626.226L354.914 626.347ZM354.988 626.215C355.183 625.875 355.385 625.524 355.582 625.191C355.381 625.53 355.187 625.87 354.988 626.215ZM355.588 625.18C375.602 591.027 412.277 568.625 452.272 566.986C452.264 566.99 452.27 566.992 452.264 566.99C412.275 568.63 375.6 591.026 355.588 625.18Z" fill="#1F1E25" fill-opacity="1.000000" fill-rule="nonzero"/>
		<path id="Vector" d="M286.734 710.457C298.091 692.773 309.594 674.931 320.977 657.36L320.974 657.359C321.707 656.232 322.433 655.11 323.163 653.982C324.561 651.831 325.957 649.672 327.347 647.531C328.589 645.616 329.827 643.713 331.064 641.803C332.371 639.792 333.674 637.785 334.971 635.79C336.049 634.129 337.114 632.489 338.187 630.839C339.698 628.515 341.205 626.197 342.708 623.89C343.546 622.601 344.376 621.329 345.21 620.045C346.886 617.474 348.555 614.908 350.211 612.369L352.379 609.043C354.064 606.462 355.744 603.885 357.405 601.342C358.209 600.114 358.999 598.901 359.796 597.683L364.475 590.522L366.598 587.279C368.258 584.741 369.91 582.214 371.539 579.732C372.144 578.805 372.733 577.905 373.337 576.984C374.934 574.55 376.529 572.115 378.093 569.729C378.938 568.442 379.761 567.187 380.599 565.911C381.952 563.849 383.308 561.787 384.631 559.767C385.362 558.658 386.064 557.592 386.785 556.494C388.195 554.351 389.606 552.203 390.977 550.12C391.61 549.156 392.218 548.236 392.842 547.289L396.964 541.028C397.837 539.711 398.669 538.446 399.523 537.155C400.548 535.599 401.587 534.022 402.583 532.516C403.364 531.332 404.11 530.208 404.874 529.052C411.451 519.099 417.405 510.125 422.483 502.518C424.315 499.769 426.16 497.029 428.017 494.297C428.549 493.515 429.052 492.788 429.575 492.022C430.819 490.202 432.063 488.382 433.264 486.651C433.929 485.688 434.562 484.793 435.214 483.86C436.219 482.424 437.234 480.967 438.206 479.592C438.928 478.576 439.615 477.619 440.32 476.635C441.19 475.417 442.066 474.182 442.91 473.02C443.633 472.021 444.323 471.084 445.025 470.125C445.798 469.064 446.582 467.994 447.333 466.979C448.048 466.01 448.737 465.097 449.432 464.168C450.133 463.239 450.839 462.294 451.516 461.403C452.224 460.471 452.902 459.593 453.587 458.705C454.205 457.9 454.827 457.09 455.428 456.325C456.116 455.444 456.807 454.565 457.503 453.69C458.04 453.016 458.582 452.33 459.102 451.683C459.777 450.846 460.455 450.012 461.137 449.182C461.614 448.599 462.094 448.01 462.558 447.449C463.237 446.634 463.894 445.852 464.545 445.08C464.957 444.594 465.365 444.112 465.764 443.648C466.44 442.857 467.096 442.106 467.743 441.371L468.745 440.236C469.416 439.482 470.071 438.755 470.709 438.056L471.517 437.179C472.184 436.462 472.833 435.765 473.466 435.108L474.064 434.486C474.732 433.794 475.382 433.128 476.01 432.508L476.416 432.107C477.085 431.441 477.735 430.813 478.36 430.223L478.561 430.035C479.234 429.407 479.883 428.81 480.501 428.262L480.51 428.252C489.158 420.585 492.98 420.3 494.354 420.642C494.608 420.705 494.782 420.785 494.878 420.853L491.718 418.546C486.204 414.522 484.99 406.788 489.011 401.273L489.183 401.034C489.369 400.786 489.561 400.545 489.756 400.312C492.558 399.191 495.227 397.775 497.708 396.08C499.177 395.912 500.677 396.002 502.14 396.366C502.334 396.414 502.528 396.468 502.719 396.528L559.677 327.401C572.835 336.128 585.115 345.439 596.461 355.232L548.33 429.018C551.655 432.022 553.047 436.507 552.172 440.711C550.386 442.994 548.85 445.462 547.589 448.072C546.106 449.245 544.374 450.063 542.526 450.464C540.678 450.865 538.762 450.838 536.927 450.385C535.416 450.01 533.96 449.341 532.629 448.372L529.463 446.064C530.631 447.037 539.072 457.938 473.858 539.97C467.729 547.679 460.433 556.814 452.271 566.988C412.276 568.627 375.602 591.029 355.587 625.183L355.582 625.194C355.384 625.527 355.182 625.877 354.988 626.217C354.986 626.223 354.984 626.223 354.98 626.228C354.957 626.272 354.937 626.305 354.914 626.349C354.91 626.354 354.907 626.354 354.906 626.36C354.88 626.404 354.862 626.437 354.84 626.475L354.827 626.497C354.686 626.744 354.543 627.002 354.402 627.256L354.391 627.271C354.367 627.316 354.347 627.349 354.325 627.387C354.324 627.393 354.32 627.398 354.319 627.404L354.254 627.52C354.25 627.525 354.246 627.53 354.245 627.536C354.126 627.745 354.01 627.96 353.894 628.169C353.872 628.212 353.85 628.254 353.826 628.296C353.822 628.302 353.815 628.319 353.809 628.323C353.79 628.362 353.768 628.401 353.75 628.434C353.745 628.441 353.742 628.448 353.74 628.457C353.718 628.495 353.696 628.533 353.677 628.572C353.672 628.579 353.667 628.586 353.664 628.594C353.646 628.627 353.623 628.672 353.6 628.71L353.319 629.235L353.317 629.241C353.3 629.274 353.278 629.312 353.258 629.352C353.253 629.363 353.245 629.374 353.24 629.385C353.222 629.417 353.203 629.457 353.183 629.496C353.181 629.495 353.176 629.506 353.172 629.512C353.153 629.551 353.131 629.589 353.111 629.628C353.106 629.639 353.106 629.639 353.102 629.645C352.99 629.861 352.876 630.071 352.766 630.288C352.762 630.293 352.762 630.293 352.758 630.304C352.739 630.337 352.72 630.376 352.702 630.41C352.693 630.426 352.691 630.432 352.682 630.448C352.663 630.483 352.645 630.518 352.627 630.554L352.612 630.582L352.557 630.687L352.542 630.72C352.523 630.753 352.504 630.792 352.485 630.832C352.418 630.959 352.353 631.087 352.289 631.215L352.276 631.237C352.261 631.269 352.245 631.301 352.228 631.332C352.222 631.347 352.214 631.362 352.205 631.376C352.189 631.41 352.171 631.443 352.156 631.476C352.151 631.488 352.142 631.504 352.135 631.521L352.084 631.615L352.065 631.654C352.049 631.69 352.031 631.726 352.012 631.76C352.006 631.771 352 631.788 351.993 631.799C351.977 631.833 351.961 631.866 351.943 631.899L351.929 631.927C351.847 632.088 351.768 632.25 351.688 632.412C351.68 632.427 351.674 632.442 351.668 632.458C351.651 632.484 351.636 632.518 351.621 632.546C351.614 632.563 351.606 632.58 351.596 632.596C351.581 632.63 351.567 632.658 351.551 632.691C351.542 632.708 351.535 632.725 351.528 632.736C351.512 632.77 351.496 632.803 351.482 632.831C351.476 632.848 351.466 632.865 351.461 632.876C351.443 632.909 351.426 632.948 351.41 632.982L351.397 633.004L351.216 633.378C351.215 633.384 351.211 633.39 351.211 633.39C351.196 633.423 351.177 633.457 351.161 633.49L351.139 633.541C351.125 633.569 351.111 633.597 351.099 633.625L351.069 633.687C351.054 633.714 351.043 633.743 351.029 633.771L351 633.826C350.987 633.856 350.973 633.886 350.958 633.916C350.951 633.933 350.942 633.949 350.932 633.972C350.918 634 350.903 634.027 350.89 634.062L350.875 634.095C350.813 634.224 350.752 634.353 350.694 634.477L350.644 634.583C350.637 634.6 350.629 634.61 350.622 634.627C350.609 634.658 350.595 634.688 350.581 634.717C350.572 634.734 350.563 634.757 350.554 634.773C350.54 634.801 350.528 634.83 350.514 634.857C350.506 634.879 350.497 634.899 350.487 634.919C350.475 634.948 350.46 634.976 350.448 635.004C350.438 635.026 350.429 635.043 350.418 635.065C350.403 635.099 350.392 635.122 350.381 635.15C350.37 635.172 350.363 635.189 350.354 635.206C350.338 635.24 350.327 635.268 350.312 635.296L350.296 635.33C350.269 635.392 350.241 635.454 350.215 635.51C350.205 635.532 350.193 635.561 350.18 635.583C350.172 635.605 350.161 635.628 350.151 635.65C350.139 635.679 350.126 635.701 350.114 635.729L350.082 635.802C350.069 635.831 350.06 635.847 350.047 635.881C350.037 635.904 350.026 635.926 350.016 635.949C350.001 635.977 349.991 635.999 349.979 636.027L349.948 636.095L349.912 636.18L349.882 636.241L349.848 636.32C349.837 636.343 349.821 636.376 349.813 636.399C349.81 636.405 349.806 636.41 349.804 636.416C349.771 636.489 349.741 636.563 349.709 636.63C349.703 636.647 349.693 636.664 349.687 636.681C349.676 636.708 349.664 636.734 349.65 636.76C349.64 636.782 349.632 636.805 349.622 636.828L349.587 636.907L349.556 636.974C349.542 637.008 349.531 637.031 349.52 637.06C349.51 637.082 349.503 637.099 349.492 637.122C349.48 637.15 349.466 637.178 349.454 637.206C349.446 637.229 349.437 637.246 349.427 637.268C349.413 637.302 349.402 637.325 349.391 637.353L349.363 637.415L349.327 637.5L349.31 637.54C349.278 637.607 349.248 637.681 349.217 637.754C349.213 637.76 349.207 637.777 349.202 637.789C349.19 637.817 349.177 637.851 349.161 637.885C349.153 637.901 349.146 637.918 349.139 637.936C349.126 637.964 349.112 637.992 349.099 638.026C349.092 638.043 349.086 638.06 349.075 638.083L349.035 638.173L349.016 638.224C349 638.258 348.986 638.292 348.97 638.326L348.952 638.371C348.939 638.405 348.923 638.439 348.909 638.474C348.904 638.485 348.901 638.49 348.898 638.502C348.841 638.632 348.79 638.757 348.737 638.882C348.733 638.887 348.732 638.893 348.73 638.899C348.715 638.933 348.7 638.973 348.684 639.006L348.667 639.046C348.653 639.08 348.641 639.114 348.625 639.148C348.622 639.16 348.611 639.182 348.606 639.193C348.593 639.228 348.579 639.262 348.564 639.296L348.545 639.341C348.531 639.375 348.519 639.404 348.506 639.438C348.497 639.455 348.489 639.478 348.482 639.495C348.469 639.529 348.454 639.557 348.443 639.585C348.438 639.603 348.429 639.62 348.423 639.637L348.384 639.733C348.38 639.739 348.377 639.75 348.374 639.756C348.343 639.83 348.315 639.904 348.284 639.978L348.265 640.023L348.228 640.114C348.221 640.131 348.213 640.154 348.204 640.171C348.192 640.201 348.18 640.231 348.17 640.263C348.16 640.279 348.152 640.302 348.144 640.325L348.108 640.41L348.087 640.467C348.071 640.501 348.061 640.53 348.049 640.558C348.039 640.581 348.031 640.604 348.024 640.621L347.987 640.712L347.967 640.763C347.921 640.877 347.875 640.997 347.829 641.111C347.824 641.122 347.821 641.134 347.814 641.151L347.778 641.236L347.754 641.306C347.744 641.328 347.734 641.356 347.722 641.385C347.712 641.407 347.703 641.43 347.695 641.454C347.683 641.482 347.671 641.51 347.66 641.545C347.651 641.562 347.644 641.579 347.637 641.596C347.625 641.63 347.615 641.659 347.602 641.693L347.581 641.745L347.541 641.848C347.536 641.859 347.533 641.871 347.526 641.888C347.511 641.928 347.499 641.956 347.486 641.99L347.48 642.007C347.45 642.088 347.416 642.173 347.387 642.254C347.381 642.262 347.377 642.272 347.375 642.282L347.334 642.385C347.328 642.402 347.325 642.414 347.318 642.431C347.305 642.461 347.293 642.491 347.283 642.522C347.275 642.545 347.264 642.568 347.257 642.591C347.247 642.62 347.236 642.642 347.225 642.677L347.201 642.734C347.19 642.769 347.178 642.797 347.169 642.826L347.146 642.889C347.133 642.919 347.121 642.95 347.11 642.98C347.104 642.998 347.097 643.015 347.092 643.026L346.957 643.393C346.951 643.404 346.95 643.41 346.945 643.422C346.936 643.451 346.922 643.485 346.911 643.52C346.901 643.538 346.893 643.557 346.887 643.576C346.877 643.605 346.867 643.634 346.856 643.663L346.831 643.731C346.82 643.758 346.81 643.785 346.801 643.812L346.776 643.887C346.765 643.909 346.756 643.938 346.747 643.961C346.738 643.99 346.727 644.013 346.717 644.042C346.709 644.064 346.699 644.1 346.688 644.122C346.684 644.14 346.672 644.168 346.663 644.191C346.655 644.218 346.645 644.245 346.634 644.271C346.629 644.289 346.621 644.312 346.616 644.323L346.545 644.519C346.539 644.536 346.535 644.553 346.528 644.571C346.516 644.599 346.506 644.628 346.496 644.657L346.473 644.72C346.462 644.755 346.451 644.783 346.441 644.812L346.418 644.875L346.385 644.967C346.378 644.984 346.372 645.008 346.365 645.025C346.354 645.054 346.343 645.088 346.333 645.117L346.309 645.186C346.299 645.215 346.289 645.244 346.279 645.267L346.253 645.342L346.226 645.422C346.219 645.439 346.214 645.457 346.208 645.474C346.185 645.538 346.164 645.601 346.141 645.665L346.122 645.722C346.112 645.751 346.102 645.78 346.091 645.809C346.085 645.832 346.077 645.855 346.069 645.878C346.06 645.905 346.05 645.932 346.039 645.958C346.03 645.983 346.022 646.008 346.015 646.034C346.005 646.063 345.998 646.086 345.986 646.114C345.98 646.138 345.97 646.167 345.962 646.19C345.954 646.213 345.941 646.241 345.936 646.265L345.908 646.346C345.9 646.371 345.891 646.396 345.883 646.42C345.872 646.454 345.861 646.486 345.848 646.519C345.842 646.536 345.837 646.553 345.829 646.576C345.818 646.611 345.806 646.646 345.794 646.68C345.781 646.721 345.765 646.767 345.752 646.808C345.743 646.833 345.734 646.858 345.726 646.883L345.7 646.958C345.693 646.987 345.683 647.016 345.675 647.039L345.649 647.114L345.621 647.195C345.615 647.219 345.603 647.253 345.597 647.276L345.572 647.346C345.562 647.375 345.555 647.404 345.543 647.432C345.537 647.456 345.529 647.479 345.522 647.496L345.492 647.589C345.488 647.606 345.48 647.629 345.475 647.647C345.462 647.682 345.455 647.711 345.441 647.745L345.435 647.769C345.409 647.844 345.385 647.925 345.357 648.006C345.354 648.018 345.351 648.03 345.346 648.041L345.314 648.139C345.308 648.163 345.301 648.18 345.294 648.197C345.286 648.232 345.277 648.255 345.267 648.291C345.259 648.313 345.254 648.332 345.246 648.354L345.216 648.447C345.211 648.464 345.203 648.488 345.195 648.511C345.185 648.54 345.178 648.569 345.168 648.598C345.16 648.621 345.154 648.645 345.146 648.668C345.136 648.697 345.127 648.726 345.12 648.755C345.111 648.78 345.103 648.805 345.096 648.831L345.068 648.911C345.062 648.935 345.056 648.952 345.048 648.981C345.031 649.034 345.014 649.092 344.996 649.144C344.989 649.173 344.982 649.19 344.974 649.213C344.967 649.243 344.957 649.272 344.947 649.301C344.941 649.324 344.933 649.348 344.925 649.371C344.916 649.406 344.909 649.423 344.899 649.458C344.893 649.481 344.885 649.504 344.879 649.528C344.869 649.557 344.859 649.586 344.852 649.615C344.844 649.639 344.838 649.662 344.83 649.685C344.82 649.714 344.811 649.743 344.803 649.772C344.795 649.795 344.788 649.825 344.779 649.848C344.771 649.871 344.764 649.9 344.755 649.93C344.749 649.953 344.739 649.982 344.731 650.005C344.724 650.035 344.716 650.058 344.708 650.087C344.7 650.11 344.694 650.133 344.686 650.157C344.669 650.215 344.652 650.273 344.633 650.331C344.627 650.355 344.624 650.367 344.616 650.39C344.609 650.419 344.599 650.448 344.589 650.477C344.583 650.5 344.575 650.524 344.568 650.553C344.56 650.576 344.552 650.605 344.544 650.629C344.537 650.658 344.529 650.681 344.521 650.711C344.513 650.734 344.504 650.769 344.496 650.792C344.49 650.816 344.481 650.845 344.475 650.868C344.465 650.897 344.459 650.921 344.45 650.95C344.444 650.974 344.436 650.996 344.429 651.026C344.419 651.055 344.413 651.079 344.404 651.107C344.396 651.137 344.392 651.154 344.382 651.184C344.376 651.207 344.365 651.242 344.357 651.265C344.351 651.289 344.344 651.318 344.335 651.341L344.287 651.504C344.281 651.528 344.276 651.552 344.268 651.575C344.262 651.598 344.255 651.628 344.245 651.657C344.24 651.68 344.231 651.703 344.224 651.733C344.218 651.756 344.208 651.785 344.202 651.809C344.191 651.844 344.186 651.867 344.178 651.896C344.168 651.926 344.164 651.943 344.156 651.966C344.147 652.002 344.139 652.025 344.132 652.054C344.126 652.078 344.116 652.107 344.11 652.13C344.103 652.16 344.093 652.189 344.086 652.218L344.066 652.289C344.058 652.324 344.05 652.347 344.041 652.382C344.032 652.405 344.028 652.423 344.021 652.453C344.013 652.482 344.004 652.511 343.995 652.546C343.982 652.587 343.971 652.634 343.958 652.675C343.951 652.705 343.941 652.733 343.934 652.763C343.928 652.787 343.918 652.815 343.912 652.839C343.905 652.869 343.898 652.898 343.889 652.921L343.869 653.003C343.861 653.027 343.854 653.056 343.848 653.08C343.836 653.114 343.832 653.132 343.823 653.167L343.802 653.244C343.797 653.268 343.789 653.297 343.781 653.32L343.759 653.408C343.753 653.432 343.743 653.461 343.738 653.484C343.73 653.514 343.724 653.538 343.715 653.566L343.696 653.644C343.688 653.673 343.677 653.708 343.67 653.737C343.66 653.778 343.651 653.813 343.638 653.854L343.612 653.96C343.604 653.983 343.599 654.001 343.595 654.019C343.586 654.054 343.577 654.09 343.568 654.119L343.55 654.189C343.541 654.225 343.535 654.249 343.524 654.283L343.485 654.442C343.479 654.466 343.471 654.489 343.463 654.519L343.424 654.678C343.417 654.708 343.408 654.743 343.398 654.772L343.325 655.067L343.301 655.155L343.052 656.158L343.031 656.252L342.962 656.53C342.957 656.547 342.954 656.572 342.948 656.595L342.907 656.76C342.9 656.79 342.893 656.826 342.886 656.855L342.87 656.92C342.861 656.956 342.852 656.991 342.846 657.027L342.805 657.192C342.803 657.21 342.797 657.234 342.792 657.251C342.779 657.305 342.769 657.358 342.755 657.412C341.569 662.52 340.723 667.701 340.222 672.921C339.843 676.891 339.667 680.849 339.69 684.769C339.722 690.012 338.391 694.911 336.053 699.166C330.147 709.911 317.812 716.518 304.773 714.121L304.362 714.044C304.205 714.017 304.061 713.994 303.903 713.961L303.873 713.954C303.737 713.933 303.606 713.906 303.471 713.879C303.414 713.871 303.356 713.857 303.3 713.849C303.252 713.844 303.229 713.838 303.186 713.827C297.652 712.792 292.169 711.662 286.734 710.457Z" fill="#33343B" fill-opacity="1.000000" fill-rule="nonzero"/>
		<path id="Vector" d="M489.757 400.309C491.837 397.857 494.705 396.421 497.709 396.077C495.221 397.774 492.554 399.193 489.757 400.309ZM547.59 448.069C548.864 445.436 550.403 442.968 552.173 440.708C551.832 442.359 551.137 443.971 550.076 445.423L549.897 445.661C549.222 446.589 548.447 447.393 547.59 448.069Z" fill="#61481A" fill-opacity="1.000000" fill-rule="nonzero"/>
		<path id="Vector" d="M185.469 373.693C176.731 371.524 171.087 362.896 172.744 353.926C174.467 344.61 183.417 338.453 192.736 340.171C193.084 340.238 193.428 340.311 193.767 340.396C202.505 342.564 208.15 351.192 206.493 360.163C204.768 369.485 195.818 375.642 186.5 373.918C186.154 373.855 185.81 373.78 185.469 373.693ZM337.326 337.273C328.588 335.104 322.945 326.47 324.601 317.5C326.324 308.183 335.273 302.025 344.594 303.744C344.939 303.812 345.286 303.885 345.625 303.969C354.363 306.138 360.007 314.766 358.348 323.735C356.626 333.058 347.675 339.215 338.358 337.491C338.009 337.43 337.665 337.357 337.326 337.273ZM480.651 369.068C471.916 366.9 466.269 358.271 467.928 349.302C469.649 339.984 478.601 333.821 487.919 335.546C488.268 335.607 488.613 335.687 488.951 335.771C497.689 337.939 503.335 346.568 501.672 355.536C499.954 364.854 491.002 371.018 481.685 369.293C481.335 369.232 480.991 369.152 480.651 369.068ZM112.36 489.48C103.622 487.312 97.9771 478.683 99.6338 469.713C101.356 460.39 110.306 454.233 119.627 455.958C119.976 456.02 120.318 456.098 120.657 456.182C129.395 458.351 135.04 466.979 133.383 475.949C131.66 485.266 122.709 491.423 113.39 489.705C113.044 489.642 112.7 489.567 112.36 489.48ZM211.647 594.342C202.909 592.173 197.264 583.545 198.921 574.575C200.642 565.258 209.594 559.095 218.914 560.82C219.262 560.887 219.606 560.96 219.944 561.044C228.682 563.213 234.327 571.841 232.671 580.811C230.946 590.134 221.995 596.291 212.677 594.567C212.332 594.504 211.988 594.429 211.647 594.342Z" fill="#F5C868" fill-opacity="1.000000" fill-rule="nonzero"/>
		<path id="Vector" d="M711.156 339.849C711.156 339.849 772.857 323.64 787.728 278.616C794.237 251.437 787.988 226.257 787.988 226.257L773.611 252.36C773.611 252.36 780.422 207.439 754.334 178.444C728.253 149.45 734.486 157.316 734.486 157.316C734.486 157.316 752.14 198.791 708.534 249.476C664.928 300.162 696.822 329.402 696.822 329.402L711.156 339.849Z" fill="#226DFF" fill-opacity="1.000000" fill-rule="nonzero"/>
		<path id="Vector" d="M712.466 320.195C712.466 320.195 715.152 267.369 744.33 245.867C705.949 275.63 692.539 303.87 693.907 329.717L712.466 320.195Z" fill="#5095D6" fill-opacity="1.000000" fill-rule="nonzero"/>
		<path id="Vector" d="M683.754 323.645C690.942 315.146 703.471 313.641 712.466 320.194L712.629 320.316L712.789 320.431C721.782 326.991 724.186 339.38 718.291 348.826L655.329 449.709L631.142 432.082L606.961 414.451L683.754 323.645Z" fill="#FFFFFF" fill-opacity="1.000000" fill-rule="nonzero"/>
		<path id="Vector" d="M596.714 437.946L637.625 467.772C643.139 471.796 650.874 470.585 654.892 465.069L655.07 464.832C659.089 459.31 657.878 451.576 652.362 447.558L611.451 417.732C605.937 413.708 598.203 414.919 594.177 420.439L594.007 420.672C589.981 426.192 591.193 433.927 596.714 437.946Z" fill="#C3C4C6" fill-opacity="1.000000" fill-rule="nonzero"/>
		<path id="Vector" d="M599.991 440.337L617.168 452.855L634.342 465.385C634.342 465.385 647.99 472.411 578.853 559.375C527.469 624.011 396.467 785.591 322.874 871.029C315.99 879.021 303.553 869.953 309.055 860.954C367.892 764.758 481.659 590.608 527.48 521.917C589.131 429.494 599.991 440.337 599.991 440.337Z" fill="#25252D" fill-opacity="1.000000" fill-rule="nonzero"/>
		<path id="Vector" d="M410.947 766.108C378.584 805.281 347.509 842.425 322.874 871.029C315.99 879.021 303.553 869.953 309.055 860.954C328.752 828.751 354.611 787.807 382.008 745.009L410.947 766.108Z" fill="#FFFFFF" fill-opacity="1.000000" fill-rule="nonzero"/>
		<path id="Vector" d="M527.811 521.417L527.868 521.338C527.851 521.359 527.829 521.397 527.811 521.417ZM527.977 521.177L528.039 521.08C528.018 521.112 527.999 521.139 527.977 521.177Z" fill="#DDDDDD" fill-opacity="1.000000" fill-rule="nonzero"/>
		<path id="Vector" d="M425.967 676.765C466.469 614.237 505.089 555.481 527.48 521.918C527.533 521.831 527.59 521.751 527.643 521.664C527.661 521.644 527.671 521.627 527.689 521.606C527.73 521.542 527.771 521.477 527.811 521.418C527.828 521.397 527.851 521.359 527.868 521.338C527.9 521.284 527.939 521.23 527.977 521.177C527.999 521.139 528.018 521.112 528.039 521.08L528.158 520.903C528.168 520.886 528.171 520.875 528.187 520.86C528.23 520.789 528.28 520.714 528.33 520.639C528.339 520.628 528.34 520.622 528.349 520.612C528.406 520.532 528.458 520.451 528.515 520.372C557.454 477.13 575.024 456.955 585.506 447.652C585.216 448.344 517.732 607.304 425.974 676.76L425.967 676.765Z" fill="#484A5C" fill-opacity="1.000000" fill-rule="nonzero"/>
	</g>
</svg>
