<svg width="1571.000000" height="1590.494141" viewBox="0 0 1571 1590.49" fill="none" xmlns="http://www.w3.org/2000/svg" xmlns:xlink="http://www.w3.org/1999/xlink">
	<desc>
			Created with Pixso.
	</desc>
	<defs>
		<linearGradient id="paint_linear_88_895_0" x1="712.233154" y1="1420.879272" x2="541.113281" y2="1591.999268" gradientUnits="userSpaceOnUse">
			<stop stop-color="#226DFF"/>
			<stop offset="1.000000" stop-color="#226DFF" stop-opacity="0.000000"/>
		</linearGradient>
		<linearGradient id="paint_linear_88_898_0" x1="766.000000" y1="1110.745605" x2="766.000000" y2="1338.745605" gradientUnits="userSpaceOnUse">
			<stop stop-color="#F0F0F0"/>
			<stop offset="1.000000" stop-color="#F0F0F0" stop-opacity="0.000000"/>
		</linearGradient>
	</defs>
	<g opacity="0.110000">
		<rect id="Rectangle 75" y="794.402344" rx="10.000000" width="487.058167" height="488.580780" transform="rotate(-45 0.000000 794.402344)" fill="#226DFF" fill-opacity="1.000000"/>
		<rect id="Rectangle 75" x="811.018677" y="794.682617" rx="10.000000" width="536.549377" height="538.226685" transform="rotate(-45 811.018677 794.682617)" fill="#226DFF" fill-opacity="1.000000"/>
		<path id="Java / Icon" d="M1151.61 735.036C1148.65 728.551 1147.32 720.987 1149.58 714.115C1151.84 707.09 1156.9 701.455 1161.96 696.204C1176.04 682.23 1193.39 671.963 1207.17 657.759C1214.79 649.961 1221.09 640.62 1223.27 629.888C1225.06 622.014 1224.21 613.908 1222.57 606.11C1229.89 614.371 1232.3 626.183 1230.2 636.837C1227.94 648.802 1221.25 659.378 1213.39 668.488C1207.09 675.823 1199.85 682.308 1192.3 688.331C1183.51 695.356 1174.87 702.921 1169.35 712.803C1164.68 720.831 1163.59 730.712 1166.78 739.437C1171.99 754.413 1184.13 765.53 1190.75 779.657C1183.43 773.249 1176.27 766.61 1169.58 759.586C1162.58 752.174 1155.96 744.301 1151.61 735.036ZM1191.29 723.301C1189.97 735.576 1196.43 747.156 1204.13 756.266C1207.86 760.357 1211.06 765.375 1211.21 771.089C1211.37 778.729 1207.01 785.834 1201.4 790.85C1202.73 790.698 1203.66 789.538 1204.75 788.921C1213.16 783.594 1221.25 776.877 1225.37 767.693C1228.1 761.439 1227.47 754.027 1223.9 748.236C1219.69 741.442 1214.17 735.42 1210.9 728.01C1209.11 723.842 1208.49 718.979 1209.97 714.578C1211.91 708.634 1216.11 703.77 1220.55 699.524C1232.76 688.022 1247.55 679.836 1261.71 670.882C1243.81 675.977 1226.15 683.003 1211.06 694.043C1201.48 701.146 1192.61 711.026 1191.29 723.301ZM1276.34 781.356C1284.83 781.82 1293.15 787.995 1294.71 796.488C1296.19 803.822 1292.61 811.078 1288.02 816.636C1280.47 825.591 1270.27 832 1260 837.481C1258.99 838.096 1258.13 838.869 1257.36 839.719C1270.9 836.321 1284.43 831.229 1295.41 822.504C1301.47 817.486 1306.84 810.844 1308.01 802.893C1309.1 796.023 1306.22 788.92 1301.09 784.366C1294.86 778.729 1286.07 776.646 1277.82 777.728C1273.07 778.345 1267.86 779.348 1264.59 783.285C1268.49 782.516 1272.3 780.97 1276.34 781.356ZM1107.41 803.433C1117.6 806.136 1128.11 806.908 1138.53 807.604C1147.87 808.221 1157.21 808.376 1166.63 808.298C1190.9 807.915 1215.34 806.291 1239.15 801.042C1241.4 800.502 1243.89 800.116 1245.92 798.727C1249.89 796.178 1254.24 794.17 1258.52 792.163C1239.15 795.251 1219.69 797.878 1200.08 799.113C1180.24 800.348 1160.24 801.12 1140.32 799.808C1134.64 799.269 1128.81 798.958 1123.51 796.795C1122.27 796.255 1120.56 795.177 1121.18 793.553C1122.35 791.468 1124.68 790.466 1126.7 789.385C1135.26 785.371 1144.6 783.133 1153.71 780.508C1138.06 780.274 1122.5 784.211 1108.19 790.311C1104.99 791.856 1101.42 793.09 1098.85 795.716C1097.83 796.794 1097.83 798.651 1099 799.575C1101.34 801.659 1104.45 802.585 1107.41 803.433ZM1233.47 824.666C1219.85 827.059 1206.15 829.3 1192.38 829.993C1177.28 830.996 1162.19 830.146 1147.25 828.603C1144.37 828.216 1141.49 827.754 1138.92 826.442C1137.6 825.669 1136.28 824.436 1136.35 822.812C1136.51 820.265 1138.69 818.49 1140.24 816.637C1135.42 818.335 1130.6 820.109 1126.55 823.278C1124.84 824.59 1123.13 826.673 1123.59 828.989C1124.29 831.691 1126.94 833.312 1129.27 834.546C1135.03 837.482 1141.49 838.792 1147.79 839.951C1163.74 842.5 1180.01 842.578 1196.04 841.494C1213 840.182 1229.89 837.404 1246.31 832.617C1241.64 830.534 1237.2 828.138 1233.47 824.666ZM1147.95 851.379C1143.59 852.613 1139.15 854.082 1135.58 856.935C1133.78 858.324 1132.38 860.72 1133.24 862.959C1134.33 865.814 1137.06 867.516 1139.62 868.978C1146.31 872.609 1153.86 874.305 1161.25 875.62C1177.99 878.242 1195.18 877.857 1211.83 874.925C1221.72 873.071 1231.6 870.446 1240.78 866.356C1234.79 863.885 1228.95 861.105 1223.35 857.864C1213.62 859.562 1203.82 861.339 1193.86 861.956C1180.71 862.959 1167.4 861.878 1154.25 860.258C1151.14 859.562 1147.25 859.254 1145.15 856.551C1144.06 854.311 1146.55 852.689 1147.95 851.379ZM1254.4 901.017C1265.29 898.781 1276.27 896.229 1286.23 891.213C1289.34 889.435 1293.15 887.505 1294.16 883.801C1294.71 880.25 1290.97 878.397 1288.33 876.929C1289.96 878.786 1291.05 881.486 1289.41 883.646C1286.69 887.276 1282.02 888.665 1277.9 890.055C1264.98 893.683 1251.6 895.15 1238.29 896.618C1203.04 899.782 1167.56 900.555 1132.31 897.621C1120.48 896.385 1108.42 895.073 1097.13 890.905C1095.35 890.132 1092.62 889.359 1092.62 886.965C1093.32 884.885 1095.35 883.723 1097.13 882.72C1105.23 878.629 1114.25 876.389 1123.28 875.85C1120.64 874.305 1117.52 874.151 1114.49 874.229C1106.94 874.46 1099.55 876.389 1092.39 878.786C1086.24 881.021 1079.94 883.493 1075.04 887.972C1073.09 889.668 1071.3 892.91 1073.32 895.228C1076.44 898.548 1081.26 899.396 1085.54 900.399C1109.51 904.492 1133.78 906.805 1158.06 907.655C1190.28 908.584 1222.73 907.194 1254.4 901.017ZM1286.3 905.187C1271.67 909.819 1256.5 912.365 1241.4 914.451C1215.34 917.692 1189.03 918.696 1162.81 917.926C1146.86 917.309 1130.91 916.228 1115.19 913.6C1118.84 916.071 1123.36 916.842 1127.56 918.001C1145.23 921.708 1163.36 922.402 1181.33 922.942C1207.71 923.406 1234.09 922.402 1260.08 918.31C1272.38 916.152 1284.75 913.525 1295.79 907.812C1301.56 904.801 1307.39 900.167 1308.4 893.452C1302.57 899.626 1294.16 902.484 1286.3 905.187Z" fill="#F0F0F0" fill-opacity="1.000000" fill-rule="nonzero"/>
		<rect id="Rectangle 75" x="386.480347" y="379.397461" rx="10.000000" width="536.549377" height="538.226685" transform="rotate(-45 386.480347 379.397461)" fill="#226DFF" fill-opacity="1.000000"/>
		<path id="Photoshop / Icon" d="M644.453 280.66C657.601 278.269 675.828 276.481 700.623 276.481C727.516 276.481 747.234 282.149 760.085 292.89C772.036 302.739 779.807 318.552 779.807 337.351C779.807 356.448 773.832 372.264 762.478 383.007C747.838 397.627 724.83 404.491 698.836 404.491C691.963 404.491 685.687 404.193 680.905 403.296L680.905 479.09L644.453 479.09L644.453 280.66ZM680.905 374.356C685.389 375.551 691.366 375.846 698.836 375.846C726.322 375.846 743.054 362.42 743.054 338.844C743.054 316.466 727.516 304.528 702.118 304.528C691.963 304.528 684.792 305.425 680.905 306.322L680.905 374.356ZM787.857 376.144C787.857 350.482 809.074 330.488 842.84 330.488C858.972 330.488 873.018 334.667 881.38 339.143L874.212 365.102C867.936 361.52 856.28 356.749 843.437 356.749C830.292 356.749 823.118 363.017 823.118 371.962C823.118 381.219 829.99 385.692 848.516 392.257C874.809 401.806 887.055 415.235 887.36 436.715C887.36 462.974 866.743 482.374 828.194 482.374C810.567 482.374 794.729 477.895 783.978 471.929L791.146 445.373C799.513 450.448 815.35 455.812 828.498 455.812C844.633 455.812 851.798 449.25 851.798 439.705C851.798 429.855 845.826 424.78 827.901 418.513C799.513 408.669 787.562 393.148 787.857 376.144Z" fill="#F0F0F0" fill-opacity="1.000000" fill-rule="evenodd"/>
		<rect id="Rectangle 75" x="386.479980" y="1209.910156" rx="10.000000" width="536.549377" height="538.226685" transform="rotate(-45 386.479980 1209.910156)" fill="url(#paint_linear_88_895_0)" fill-opacity="1.000000"/>
		<path id="Figma / Icon" d="M713.806 1169.26C691.491 1169.26 673.403 1187.48 673.403 1209.96C673.403 1232.44 691.492 1250.67 713.806 1250.67L754.209 1250.67L754.209 1210.78C754.206 1210.51 754.205 1210.24 754.205 1209.96C754.205 1209.69 754.206 1209.42 754.209 1209.14L754.209 1169.26L713.806 1169.26ZM754.209 1145.63L713.806 1145.63C691.492 1145.63 673.403 1127.41 673.403 1104.93C673.403 1082.45 691.492 1064.22 713.806 1064.22L754.209 1064.22L754.209 1145.63ZM777.669 1064.22L777.669 1145.63L818.063 1145.63C840.377 1145.63 858.472 1127.41 858.472 1104.93C858.472 1082.45 840.383 1064.22 818.068 1064.22L777.669 1064.22ZM818.065 1169.26C795.968 1169.26 778.015 1187.13 777.669 1209.31L777.669 1210.62C778.015 1232.8 795.97 1250.67 818.068 1250.67C840.383 1250.67 858.472 1232.44 858.472 1209.96C858.472 1187.48 840.378 1169.26 818.065 1169.26ZM713.806 1274.3C691.493 1274.3 673.4 1292.53 673.4 1315.01C673.4 1337.49 691.489 1355.71 713.804 1355.71C736.118 1355.71 754.208 1337.49 754.208 1315.01L754.209 1274.3L713.806 1274.3Z" fill="url(#paint_linear_88_898_0)" fill-opacity="1.000000" fill-rule="evenodd"/>
	</g>
</svg>
